# Blender 5.0.0
# www.blender.org
mtllib catBody.mtl
o kitty_001
v -0.000006 0.171882 -0.055978
v -0.000003 0.165602 -0.022669
v 0.000000 0.169386 -0.003537
v 0.000000 0.174735 0.042687
v 0.000000 0.171705 0.069256
v 0.000000 0.168849 0.113134
v 0.000000 0.143808 0.109825
v 0.000000 0.146005 0.095545
v 0.000000 0.080576 0.009505
v -0.000001 0.082038 -0.012222
v 0.000000 0.084852 0.033290
v 0.000000 0.133658 0.099117
v 0.000000 0.173129 0.019171
v 0.000000 0.170109 0.092637
v -0.000005 0.166831 -0.040515
v -0.000003 0.075578 -0.044493
v 0.043519 0.100973 -0.009878
v 0.048887 0.127244 -0.014438
v 0.037079 0.150194 -0.018252
v 0.032602 0.154369 0.000488
v 0.044128 0.136527 0.004478
v 0.037647 0.106794 0.010174
v 0.024742 0.160700 0.043284
v 0.040080 0.147664 0.043590
v 0.048857 0.119592 0.046431
v 0.021196 0.159802 0.070069
v 0.032977 0.151510 0.074234
v 0.043231 0.130580 0.077620
v 0.010617 0.166189 0.068065
v 0.011820 0.150752 0.091456
v 0.022848 0.085932 0.008332
v 0.038311 0.135418 -0.063757
v 0.013953 0.166948 -0.059017
v 0.019065 0.161756 -0.020372
v 0.016520 0.165703 -0.003013
v 0.011019 0.169444 0.042349
v 0.011484 0.160739 0.111366
v 0.011241 0.148452 0.109910
v 0.023457 0.087222 0.031999
v 0.020172 0.133410 0.097225
v 0.038847 0.112091 0.033480
v 0.044489 0.143347 0.025356
v 0.029958 0.159322 0.021203
v 0.014439 0.167431 0.018997
v 0.011194 0.162981 0.091111
v 0.032925 0.105810 -0.074292
v 0.014994 0.069777 -0.022228
v 0.018261 0.161789 -0.040200
v 0.036030 0.148283 -0.039396
v 0.047408 0.126306 -0.038818
v 0.047824 0.099467 -0.038827
v 0.028841 0.154660 -0.061085
v 0.026409 0.086013 -0.009682
v -0.043521 0.100973 -0.009879
v -0.048891 0.127244 -0.014438
v -0.037084 0.150194 -0.018253
v -0.032603 0.154370 0.000488
v -0.044128 0.136527 0.004477
v -0.037647 0.106794 0.010174
v -0.024742 0.160700 0.043284
v -0.040080 0.147664 0.043589
v -0.048857 0.119592 0.046431
v -0.021196 0.159802 0.070069
v -0.032977 0.151510 0.074234
v -0.043231 0.130580 0.077620
v -0.010617 0.166189 0.068065
v -0.011820 0.150752 0.091456
v -0.022848 0.085932 0.008332
v -0.037500 0.084941 -0.017782
v -0.038325 0.135418 -0.063756
v -0.013966 0.166948 -0.059017
v -0.019071 0.161756 -0.020372
v -0.016521 0.165703 -0.003014
v -0.011019 0.169444 0.042349
v -0.023457 0.087222 0.031999
v -0.020172 0.133410 0.097225
v -0.038847 0.112091 0.033480
v -0.044489 0.143347 0.025356
v -0.029958 0.159322 0.021203
v -0.014439 0.167431 0.018997
v -0.011194 0.162981 0.091111
v -0.032938 0.105810 -0.074292
v -0.014995 0.069777 -0.022229
v -0.032476 0.070449 -0.026112
v -0.018271 0.161789 -0.040200
v -0.036041 0.148283 -0.039396
v -0.047419 0.126306 -0.038818
v -0.047833 0.099468 -0.038828
v -0.028853 0.154660 -0.061084
v -0.026411 0.086013 -0.009682
v -0.021944 0.007659 0.041721
v -0.021689 0.001630 0.042969
v -0.020105 -0.000116 0.047832
v 0.000000 0.166976 0.282130
v 0.000000 0.163922 0.283555
v 0.000000 0.166089 0.135540
v 0.000000 0.164322 0.159464
v 0.000000 0.164939 0.183533
v 0.000000 0.167160 0.210743
v 0.000000 0.170018 0.239086
v 0.000000 0.154053 0.276578
v 0.000000 0.148408 0.243582
v 0.000000 0.144939 0.214414
v 0.000000 0.142556 0.160101
v 0.000000 0.143325 0.133180
v 0.000000 0.142728 0.185831
v 0.011660 0.158779 0.133887
v 0.011259 0.147942 0.133225
v 0.010476 0.157284 0.159826
v 0.009710 0.146886 0.159621
v 0.008903 0.157558 0.184581
v 0.007960 0.147338 0.185399
v 0.007623 0.159835 0.211957
v 0.007256 0.149687 0.214618
v 0.007431 0.162761 0.240563
v 0.007403 0.153720 0.242872
v 0.005519 0.166661 0.272708
v 0.005206 0.158605 0.276025
v 0.000000 0.173350 0.270979
v -0.011484 0.160739 0.111366
v -0.011241 0.148452 0.109910
v -0.011660 0.158779 0.133887
v -0.011259 0.147942 0.133225
v -0.010476 0.157284 0.159826
v -0.009710 0.146886 0.159621
v -0.008903 0.157558 0.184581
v -0.007960 0.147338 0.185399
v -0.007623 0.159835 0.211957
v -0.007256 0.149687 0.214618
v -0.007431 0.162761 0.240563
v -0.007403 0.153720 0.242872
v -0.005518 0.166661 0.272708
v -0.005206 0.158605 0.276025
vn 0.7032 0.7082 -0.0635
vn 0.9738 0.2203 0.0562
vn 0.9840 0.1470 0.1011
vn 0.7581 0.6507 -0.0443
vn 0.9222 -0.3123 0.2282
vn 0.9017 -0.4006 0.1626
vn 0.9868 -0.0529 -0.1529
vn 0.9720 0.1772 -0.1544
vn 0.7807 0.6198 -0.0789
vn 0.4570 0.8878 0.0552
vn -0.0000 0.9898 0.1426
vn -0.0000 0.9972 -0.0754
vn 0.4192 0.9046 -0.0774
vn 0.9484 0.3106 -0.0645
vn 0.6395 0.7683 -0.0265
vn 0.9674 -0.2508 -0.0360
vn 0.5758 0.8148 0.0671
vn 0.5641 0.7965 0.2179
vn 0.6887 0.6245 0.3684
vn 0.8535 0.5207 0.0222
vn 0.8424 0.4088 0.3510
vn 0.9828 0.1737 -0.0634
vn 0.8128 0.1223 0.5696
vn 0.4131 0.4206 0.8077
vn 0.5547 -0.8277 0.0851
vn 0.4907 -0.8649 0.1054
vn 0.9323 0.2467 -0.2645
vn 0.7459 0.6649 -0.0375
vn 0.4006 0.9091 -0.1141
vn 0.4301 0.9015 -0.0482
vn 0.4937 0.8637 0.1015
vn 0.4626 0.8853 0.0477
vn 0.8154 -0.5773 -0.0432
vn -0.0000 -0.9972 -0.0749
vn -0.0000 -0.5654 0.8248
vn 0.8151 0.5572 0.1589
vn -0.0000 0.9886 -0.1503
vn -0.0000 0.9971 -0.0763
vn -0.0000 0.9993 0.0386
vn -0.0000 0.9940 0.1092
vn -0.0000 0.9961 0.0880
vn -0.0000 -0.9934 0.1143
vn -0.0000 -0.9988 0.0481
vn 0.8869 0.4600 0.0433
vn -0.0000 0.9958 0.0918
vn 0.9282 -0.0123 -0.3719
vn -0.0000 -0.9538 0.3005
vn -0.0000 -0.9805 0.1963
vn -0.3207 -0.8026 0.5030
vn 0.4546 0.8771 0.1548
vn -0.0000 0.9687 0.2482
vn 0.4171 -0.8536 0.3122
vn -0.7031 0.7082 -0.0635
vn -0.7581 0.6507 -0.0441
vn -0.9839 0.1470 0.1013
vn -0.9738 0.2203 0.0564
vn -0.9221 -0.3123 0.2283
vn -0.9017 -0.4006 0.1627
vn -0.9869 -0.0529 -0.1527
vn -0.9720 0.1772 -0.1543
vn -0.7808 0.6199 -0.0788
vn -0.4570 0.8878 0.0553
vn -0.4191 0.9046 -0.0773
vn -0.9484 0.3106 -0.0644
vn -0.6395 0.7683 -0.0265
vn -0.9674 -0.2508 -0.0360
vn -0.5758 0.8148 0.0671
vn -0.8535 0.5207 0.0221
vn -0.6887 0.6245 0.3684
vn -0.5641 0.7965 0.2179
vn -0.9828 0.1737 -0.0634
vn -0.8424 0.4088 0.3510
vn -0.4131 0.4206 0.8077
vn -0.5547 -0.8277 0.0851
vn -0.4907 -0.8649 0.1055
vn -0.7459 0.6650 -0.0375
vn -0.9323 0.2467 -0.2644
vn -0.4006 0.9091 -0.1141
vn -0.4300 0.9015 -0.0482
vn -0.4937 0.8637 0.1015
vn -0.4626 0.8853 0.0477
vn -0.8154 -0.5773 -0.0432
vn -0.8128 0.1223 0.5696
vn -0.8151 0.5572 0.1589
vn -0.0000 0.3331 0.9429
vn -0.8869 0.4600 0.0433
vn -0.9282 -0.0123 -0.3718
vn 0.1289 -0.7889 0.6009
vn -0.4547 0.8771 0.1549
vn -0.3876 -0.8076 0.4445
vn -0.2899 -0.6391 0.7124
vn 0.9478 -0.0257 -0.3179
vn 0.8254 -0.5645 0.0011
vn -0.0000 -0.9998 -0.0216
vn 0.8940 0.4445 0.0558
vn 0.9052 0.4216 0.0543
vn 0.8192 -0.5724 0.0341
vn -0.0000 -1.0000 0.0042
vn 0.9213 0.3884 0.0191
vn 0.8369 -0.5443 0.0578
vn -0.0000 -0.9983 0.0576
vn 0.9260 0.3770 -0.0190
vn 0.8647 -0.4984 0.0626
vn -0.0000 -0.9944 0.1056
vn 0.9313 0.3639 -0.0164
vn 0.8906 -0.4460 0.0886
vn -0.0000 -0.9880 0.1545
vn 0.8973 0.3888 0.2088
vn 0.8489 -0.3422 0.4028
vn -0.0000 -0.8754 0.4834
vn -0.0000 0.5692 0.8222
vn -0.0000 0.0089 1.0000
vn -0.0000 0.9959 0.0907
vn -0.0000 0.9990 0.0450
vn -0.0000 0.9997 -0.0253
vn -0.0000 0.9969 -0.0785
vn -0.0000 0.9960 -0.0895
vn -0.0000 0.9881 0.1536
vn -0.8254 -0.5645 0.0011
vn -0.8940 0.4445 0.0558
vn -0.9052 0.4216 0.0543
vn -0.8192 -0.5724 0.0341
vn -0.9213 0.3884 0.0191
vn -0.8369 -0.5443 0.0578
vn -0.9260 0.3770 -0.0190
vn -0.8647 -0.4984 0.0626
vn -0.9313 0.3639 -0.0164
vn -0.8906 -0.4460 0.0886
vn -0.8973 0.3888 0.2088
vn -0.8489 -0.3421 0.4028
vt 0.873953 0.523980
vt 0.873995 0.524038
vt 0.874162 0.524354
vt 0.874104 0.524271
vt 0.874240 0.524468
vt 0.874078 0.524157
vt 0.874388 0.524759
vt 0.874298 0.524621
vt 0.874225 0.524508
vt 0.874185 0.524446
vt 0.874168 0.524420
vt 0.874076 0.524236
vt 0.874076 0.524232
vt 0.873845 0.523753
vt 0.873813 0.523713
vt 0.873910 0.523836
vt 0.873703 0.523497
vt 0.873583 0.523265
vt 0.873593 0.523273
vt 0.873741 0.523555
vt 0.873649 0.523353
vt 0.873819 0.523668
vt 0.873520 0.523133
vt 0.873561 0.523185
vt 0.874002 0.523976
vt 0.874148 0.524265
vt 0.874370 0.524776
vt 0.874294 0.524652
vt 0.873938 0.523966
vt 0.873793 0.523687
vt 0.873569 0.523247
vt 0.873676 0.523457
vt 0.873441 0.522977
vt 0.873455 0.522997
vt 0.873517 0.523121
vt 0.873478 0.523067
vt 0.873930 0.523955
vt 0.873771 0.523653
vt 0.873659 0.523431
vt 0.873549 0.523215
vt 0.873452 0.523025
vt 0.874006 0.523983
vt 0.874162 0.524285
vt 0.873399 0.522911
vt 0.873367 0.522859
vt 0.874506 0.525003
vt 0.874326 0.524601
vt 0.874502 0.524933
vt 0.874431 0.524776
vt 0.874244 0.524572
vt 0.874219 0.524529
vt 0.874294 0.524546
vt 0.873552 0.523169
vt 0.874341 0.524635
vt 0.874448 0.524810
vt 0.860018 0.974420
vt 0.860015 0.974416
vt 0.860015 0.974413
vt 0.873345 0.522789
vt 0.873359 0.522809
vt 0.873312 0.522737
vt 0.873208 0.522533
vt 0.873239 0.522579
vt 0.873249 0.522593
vt 0.873103 0.522328
vt 0.873130 0.522367
vt 0.873141 0.522383
vt 0.872980 0.522091
vt 0.872999 0.522116
vt 0.873014 0.522138
vt 0.872850 0.521841
vt 0.872868 0.521864
vt 0.872880 0.521882
vt 0.860406 0.975419
vt 0.860409 0.975422
vt 0.860448 0.975497
vt 0.860444 0.975491
vt 0.860412 0.975426
vt 0.860452 0.975502
vt 0.860398 0.975402
vt 0.860398 0.975403
vt 0.873283 0.522691
vt 0.873189 0.522504
vt 0.873086 0.522303
vt 0.872963 0.522068
vt 0.872834 0.521820
vt 0.860440 0.975486
vt 0.860403 0.975415
s 1
usemtl material.001
f 20/1/1 21/2/2 18/3/3 19/4/4
f 17/5/5 18/3/3 21/2/2 22/6/6
f 51/7/7 50/8/8 18/3/3 17/5/5
f 50/8/8 49/9/9 19/4/4 18/3/3
f 48/10/10 15/11/11 2/12/12 34/13/13
f 42/14/14 21/2/2 20/1/1 43/15/15
f 41/16/16 22/6/6 21/2/2 42/14/14
f 23/17/17 26/18/18 27/19/19 24/20/20
f 27/19/19 28/21/21 25/22/22 24/20/20
f 27/19/19 30/23/23 40/24/24
f 39/25/25 31/26/26 22/6/6 41/16/16
f 49/9/9 50/8/8 32/27/27 52/28/28
f 19/4/4 49/9/9 48/10/10 34/13/13
f 35/29/29 20/1/1 19/4/4 34/13/13
f 43/15/15 20/1/1 35/29/29 44/30/30
f 29/31/31 26/18/18 23/17/17 36/32/32
f 38/33/33 7/34/34 8/35/35 30/23/23
f 26/18/18 29/31/31 45/36/36
f 35/29/29 34/13/13 2/12/12 3/37/37
f 44/30/30 35/29/29 3/37/37 13/38/38
f 29/31/31 36/32/32 4/39/39 5/40/40
f 45/36/36 29/31/31 5/40/40 14/41/41
f 11/42/42 9/43/43 31/26/26 39/25/25
f 24/20/20 25/22/22 41/16/16 42/14/14
f 23/17/17 24/20/20 42/14/14 43/15/15
f 36/32/32 23/17/17 43/15/15 44/30/30
f 36/32/32 44/30/30 13/38/38 4/39/39
f 37/44/44 38/33/33 30/23/23 45/36/36
f 37/44/44 45/36/36 14/41/41 6/45/45
f 32/27/27 50/8/8 51/7/7 46/46/46
f 10/47/47 16/48/48 47/49/49
f 33/50/50 1/51/51 15/11/11 48/10/10
f 10/47/47 53/52/52 31/26/26 9/43/43
f 17/5/5 22/6/6 31/26/26 53/52/52
f 33/50/50 48/10/10 49/9/9 52/28/28
f 53/52/52 10/47/47 47/49/49
f 26/18/18 30/23/23 27/19/19
f 57/1/53 56/4/54 55/3/55 58/2/56
f 54/5/57 59/6/58 58/2/56 55/3/55
f 88/7/59 54/5/57 55/3/55 87/8/60
f 87/8/60 55/3/55 56/4/54 86/9/61
f 85/10/62 72/13/63 2/12/12 15/11/11
f 78/14/64 79/15/65 57/1/53 58/2/56
f 77/16/66 78/14/64 58/2/56 59/6/58
f 60/17/67 61/20/68 64/19/69 63/18/70
f 64/19/69 61/20/68 62/22/71 65/21/72
f 64/19/69 65/21/72 76/24/73
f 75/25/74 77/16/66 59/6/58 68/26/75
f 86/9/61 89/28/76 70/27/77 87/8/60
f 56/4/54 72/13/63 85/10/62 86/9/61
f 73/29/78 72/13/63 56/4/54 57/1/53
f 79/15/65 80/30/79 73/29/78 57/1/53
f 66/31/80 74/32/81 60/17/67 63/18/70
f 121/33/82 67/23/83 8/35/35 7/34/34
f 81/36/84 66/31/80 63/18/70
f 73/29/78 3/37/37 2/12/12 72/13/63
f 80/30/79 13/38/38 3/37/37 73/29/78
f 66/31/80 5/40/40 4/39/39 74/32/81
f 81/36/84 14/41/41 5/40/40 66/31/80
f 30/23/23 8/35/35 12/53/85 40/24/24
f 11/42/42 75/25/74 68/26/75 9/43/43
f 61/20/68 78/14/64 77/16/66 62/22/71
f 60/17/67 79/15/65 78/14/64 61/20/68
f 74/32/81 80/30/79 79/15/65 60/17/67
f 74/32/81 4/39/39 13/38/38 80/30/79
f 120/44/86 81/36/84 67/23/83 121/33/82
f 120/44/86 6/45/45 14/41/41 81/36/84
f 70/27/77 82/46/87 88/7/59 87/8/60
f 10/47/47 83/49/88 16/48/48
f 71/50/89 85/10/62 15/11/11 1/51/51
f 10/47/47 9/43/43 68/26/75 90/52/90
f 54/5/57 90/52/90 68/26/75 59/6/58
f 71/50/89 89/28/76 86/9/61 85/10/62
f 90/52/90 83/49/88 10/47/47
f 63/18/70 64/19/69 67/23/83
f 83/49/88 90/52/90 69/54/91 84/55/91
f 92/56/92 91/57/92 93/58/92
f 30/23/23 26/18/18 45/36/36
f 67/23/83 81/36/84 63/18/70
f 67/23/83 76/24/73 12/53/85 8/35/35
f 28/21/21 27/19/19 40/24/24
f 67/23/83 64/19/69 76/24/73
f 108/59/93 105/60/94 7/34/34 38/33/33
f 107/61/95 108/59/93 38/33/33 37/44/44
f 109/62/96 110/63/97 108/59/93 107/61/95
f 110/63/97 104/64/98 105/60/94 108/59/93
f 111/65/99 112/66/100 110/63/97 109/62/96
f 112/66/100 106/67/101 104/64/98 110/63/97
f 113/68/102 114/69/103 112/66/100 111/65/99
f 114/69/103 103/70/104 106/67/101 112/66/100
f 115/71/105 116/72/106 114/69/103 113/68/102
f 116/72/106 102/73/107 103/70/104 114/69/103
f 117/74/108 118/75/109 116/76/106 115/77/105
f 118/75/109 101/78/110 102/79/107 116/76/106
f 94/80/111 95/81/112 118/75/109 117/74/108
f 95/81/112 101/78/110 118/75/109
f 107/61/95 37/44/44 6/45/45 96/82/113
f 109/62/96 107/61/95 96/82/113 97/83/114
f 111/65/99 109/62/96 97/83/114 98/84/115
f 113/68/102 111/65/99 98/84/115 99/85/116
f 115/71/105 113/68/102 99/85/116 100/86/117
f 117/74/108 115/77/105 100/87/117 119/88/118
f 94/80/111 117/74/108 119/88/118
f 123/59/119 121/33/82 7/34/34 105/60/94
f 122/61/120 120/44/86 121/33/82 123/59/119
f 124/62/121 122/61/120 123/59/119 125/63/122
f 125/63/122 123/59/119 105/60/94 104/64/98
f 126/65/123 124/62/121 125/63/122 127/66/124
f 127/66/124 125/63/122 104/64/98 106/67/101
f 128/68/125 126/65/123 127/66/124 129/69/126
f 129/69/126 127/66/124 106/67/101 103/70/104
f 130/71/127 128/68/125 129/69/126 131/72/128
f 131/72/128 129/69/126 103/70/104 102/73/107
f 132/74/129 130/77/127 131/76/128 133/75/130
f 133/75/130 131/76/128 102/79/107 101/78/110
f 94/80/111 132/74/129 133/75/130 95/81/112
f 95/81/112 133/75/130 101/78/110
f 122/61/120 96/82/113 6/45/45 120/44/86
f 124/62/121 97/83/114 96/82/113 122/61/120
f 126/65/123 98/84/115 97/83/114 124/62/121
f 128/68/125 99/85/116 98/84/115 126/65/123
f 130/71/127 100/86/117 99/85/116 128/68/125
f 132/74/129 119/88/118 100/87/117 130/77/127
f 94/80/111 119/88/118 132/74/129
