# Blender 5.0.0
# www.blender.org
mtllib catBR.mtl
o kitty_001.004
v 0.000000 0.118159 0.100511
v 0.000000 0.084852 0.033290
v 0.000000 0.133658 0.099117
v 0.000000 0.101531 0.072907
v 0.000000 0.088328 0.047191
v 0.048857 0.119592 0.046431
v 0.043231 0.130580 0.077620
v 0.046125 0.103331 0.075369
v 0.049355 0.093935 0.046451
v 0.023457 0.087222 0.031999
v 0.044754 0.075886 0.050711
v 0.032823 0.072392 0.039868
v 0.044566 0.081055 0.076351
v 0.020068 0.082373 0.093434
v 0.020172 0.133410 0.097225
v 0.025378 0.109982 0.098340
v 0.034701 0.083263 0.090880
v 0.042406 0.061150 0.065020
v 0.036286 0.059051 0.054112
v 0.042102 0.062637 0.076756
v 0.025255 0.062893 0.085554
v 0.035264 0.063330 0.085827
v 0.011463 0.078208 0.079289
v 0.016147 0.070499 0.045836
v 0.024891 0.058978 0.055743
v 0.018759 0.061797 0.075966
v 0.038847 0.112091 0.033480
v 0.038335 0.089999 0.034902
v 0.005539 0.105846 0.099530
v 0.000000 0.094001 0.058627
v 0.008677 0.073263 0.062566
v 0.019256 0.060609 0.065079
v 0.006341 0.081475 0.042051
v 0.001277 0.087319 0.060633
v 0.002350 0.094025 0.076525
v 0.039382 0.029139 0.071648
v 0.034831 0.031099 0.064729
v 0.039047 0.026889 0.078744
v 0.026686 0.024899 0.083459
v 0.033850 0.024898 0.083700
v 0.026246 0.030780 0.065606
v 0.021801 0.026835 0.078128
v 0.022079 0.029102 0.071509
v 0.039464 0.013419 0.064418
v 0.034906 0.018368 0.059720
v 0.039057 0.008210 0.069200
v 0.026717 0.004642 0.072152
v 0.033808 0.004562 0.072380
v 0.026200 0.017687 0.060240
v 0.021781 0.008436 0.068632
v 0.022000 0.013446 0.064238
v 0.040358 0.011085 0.059105
v 0.035133 0.017003 0.056147
v 0.040015 0.004986 0.062474
v 0.026409 0.000306 0.063823
v 0.034043 0.000179 0.064027
v 0.026032 0.016268 0.056569
v 0.020889 0.005178 0.062066
v 0.021305 0.011289 0.059360
v 0.042850 0.005283 0.047809
v 0.039056 0.004876 0.043134
v 0.027451 0.006289 0.038241
v 0.021944 0.007659 0.041721
v 0.016775 0.006715 0.045320
v 0.015460 0.003568 0.053431
v 0.041237 0.013132 0.052165
v 0.033896 0.016257 0.048321
v 0.037748 0.011950 0.045170
v 0.034523 0.012340 0.041788
v 0.030237 0.015183 0.045643
v 0.026431 0.013626 0.041491
v 0.026365 0.016159 0.047520
v 0.018732 0.013804 0.049641
v 0.016951 0.010537 0.054309
v 0.021689 0.001630 0.042969
v 0.020105 -0.000116 0.047832
v 0.038748 -0.000872 0.050877
v 0.042143 0.003298 0.059799
v 0.026626 -0.000573 0.046979
v 0.034788 0.001848 0.038972
v 0.027129 0.000638 0.040769
v 0.041799 0.045947 0.073760
v 0.041087 0.039162 0.074684
v 0.035687 0.038907 0.064758
v 0.036103 0.045645 0.062631
v 0.041400 0.045563 0.085191
v 0.040775 0.038818 0.085088
v 0.025582 0.044776 0.093059
v 0.025851 0.038093 0.092284
v 0.034563 0.038242 0.092606
v 0.034821 0.044941 0.093393
v 0.025415 0.038820 0.066065
v 0.025032 0.045560 0.064144
v 0.020051 0.038456 0.084325
v 0.019417 0.045171 0.084377
v 0.019784 0.045755 0.073673
v 0.020458 0.038985 0.074588
v 0.033819 0.009646 0.075210
v 0.021786 0.013035 0.071006
v 0.034888 0.021551 0.060972
v 0.039055 0.012880 0.071586
v 0.039444 0.017349 0.066226
v 0.026710 0.009706 0.074979
v 0.026212 0.020960 0.061582
v 0.022020 0.017360 0.066055
vn 0.9833 0.0313 -0.1791
vn 0.8588 0.0862 0.5050
vn 0.9203 0.0207 0.3905
vn 0.9452 -0.1217 -0.3029
vn 0.8964 -0.3182 -0.3084
vn 0.2683 -0.5696 -0.7769
vn 0.5162 -0.2061 -0.8313
vn -0.8840 -0.3733 0.2813
vn -0.4844 -0.3127 0.8170
vn -0.2222 -0.0758 0.9720
vn -0.9448 -0.2679 0.1886
vn 0.9313 -0.0891 0.3531
vn -0.3114 -0.3926 0.8654
vn 0.5225 -0.1363 0.8417
vn 0.4292 -0.0108 0.9031
vn 0.3817 0.0910 0.9198
vn 0.9531 -0.2248 -0.2027
vn 0.4171 -0.5847 -0.6958
vn -0.4496 -0.6424 -0.6206
vn -0.4925 -0.6811 -0.5419
vn 0.9551 -0.0220 0.2956
vn -0.4582 -0.0475 0.8876
vn 0.5068 0.0592 0.8600
vn -0.8238 -0.5666 0.0176
vn -0.7962 -0.4686 0.3828
vn -0.8957 -0.4359 0.0881
vn -0.9237 -0.2390 0.2994
vn -0.8787 -0.4460 -0.1699
vn 0.6664 -0.0312 -0.7450
vn -0.5390 -0.7912 -0.2889
vn 0.0227 -0.4674 -0.8837
vn -0.9375 -0.3354 0.0923
vn -0.8166 -0.5711 0.0843
vn -0.2758 -0.9469 -0.1654
vn 0.3823 -0.3182 0.8675
vn -0.4330 -0.3170 0.8438
vn -0.4179 -0.4821 0.7700
vn 0.3671 -0.4903 0.7904
vn -0.9600 -0.1102 -0.2572
vn -0.5696 -0.1240 -0.8125
vn -0.5318 0.1721 -0.8292
vn -0.9542 0.0254 -0.2981
vn 0.4794 -0.1484 -0.8650
vn 0.4502 0.1695 -0.8767
vn -0.9279 -0.2046 0.3116
vn -0.9326 -0.2276 0.2801
vn 0.9708 -0.1266 -0.2039
vn 0.9054 -0.2117 0.3679
vn 0.9052 -0.2546 0.3404
vn 0.9696 -0.0042 -0.2446
vn -0.9471 0.0178 0.3204
vn -0.4533 0.1090 0.8847
vn 0.4727 -0.3900 -0.7902
vn -0.5604 -0.3568 -0.7474
vn 0.3939 0.1137 0.9121
vn 0.9740 -0.1309 -0.1850
vn -0.9610 -0.1429 -0.2368
vn 0.9248 0.0301 0.3792
vn 0.9047 -0.1991 0.3767
vn 0.3477 -0.4507 0.8222
vn 0.3225 -0.6716 0.6670
vn 0.8651 -0.3261 0.3812
vn 0.9623 0.1094 -0.2491
vn 0.9789 0.1865 -0.0831
vn -0.4078 -0.4398 0.8002
vn -0.9355 -0.1670 0.3115
vn -0.9000 -0.2800 0.3340
vn -0.3765 -0.6580 0.6521
vn -0.4914 0.3360 -0.8036
vn 0.4240 0.3472 -0.8365
vn 0.4786 0.6476 -0.5930
vn -0.5448 0.6163 -0.5686
vn -0.9431 0.1374 -0.3029
vn -0.9635 0.2288 -0.1390
vn -0.3953 0.9156 -0.0739
vn -0.8543 0.4642 0.2338
vn -0.8586 -0.2809 0.4288
vn 0.2548 -0.9089 0.3302
vn 0.8773 -0.2515 0.4088
vn 0.9454 0.3207 0.0583
vn -0.3194 -0.8929 0.3174
vn 0.3487 0.9275 -0.1345
vn -0.2236 -0.7514 -0.6208
vn -0.0522 -0.9911 -0.1225
vn -0.6585 -0.5137 -0.5500
vn 0.8812 -0.3566 0.3104
vn 0.9395 -0.0885 -0.3308
vn 0.7930 0.5879 -0.1598
vn -0.9222 -0.3459 0.1730
vn -0.4761 -0.8467 -0.2376
vn 0.7006 0.6050 -0.3784
vn 0.7722 -0.1117 -0.6254
vn 0.3876 -0.4400 -0.8100
vn 0.0716 0.5108 -0.8567
vn -0.8546 0.4390 0.2773
vn 0.3276 0.9064 -0.2666
vn 0.1288 0.8603 -0.4932
vn 0.4462 -0.8896 -0.0973
vn -0.8018 0.0143 -0.5974
vn -0.6006 0.1643 -0.7825
vn -0.0833 0.1154 -0.9898
vn -0.2043 0.6894 -0.6950
vn -0.2389 0.9319 -0.2730
vn -0.6555 0.7312 -0.1890
vn 0.1028 0.0777 0.9917
vt 0.873819 0.523668
vt 0.873649 0.523353
vt 0.873753 0.523515
vt 0.873908 0.523802
vt 0.873948 0.523847
vt 0.874013 0.523968
vt 0.873975 0.523928
vt 0.873777 0.523547
vt 0.873645 0.523308
vt 0.873600 0.523238
vt 0.873765 0.523538
vt 0.873823 0.523611
vt 0.873747 0.523467
vt 0.873757 0.523488
vt 0.873638 0.523300
vt 0.873561 0.523185
vt 0.873940 0.523798
vt 0.873991 0.523894
vt 0.873984 0.523881
vt 0.873991 0.523922
vt 0.873886 0.523697
vt 0.873852 0.523632
vt 0.873850 0.523628
vt 0.873906 0.523761
vt 0.873817 0.523596
vt 0.873867 0.523713
vt 0.873891 0.523706
vt 0.873910 0.523836
vt 0.873975 0.523914
vt 0.874002 0.523976
vt 0.873851 0.523693
vt 0.873925 0.523829
vt 0.874006 0.523983
vt 0.873914 0.523707
vt 0.873915 0.523710
vt 0.874014 0.523875
vt 0.874013 0.523873
vt 0.873989 0.523850
vt 0.874025 0.523918
vt 0.874064 0.523977
vt 0.874047 0.523943
vt 0.874030 0.523928
vt 0.874066 0.523982
vt 0.873949 0.523774
vt 0.874029 0.523906
vt 0.873945 0.523765
vt 0.874026 0.523901
vt 0.873920 0.523731
vt 0.873885 0.523663
vt 0.874010 0.523902
vt 0.874004 0.523890
vt 0.873883 0.523660
vt 0.873964 0.523814
vt 0.873964 0.523815
vt 0.873916 0.523722
vt 0.859980 0.974349
vt 0.859979 0.974346
vt 0.859987 0.974360
vt 0.859987 0.974361
vt 0.859981 0.974353
vt 0.859987 0.974363
vt 0.859980 0.974350
vt 0.859987 0.974362
vt 0.859982 0.974357
vt 0.859987 0.974365
vt 0.859987 0.974364
vt 0.859994 0.974378
vt 0.859996 0.974379
vt 0.859997 0.974381
vt 0.859998 0.974381
vt 0.859997 0.974380
vt 0.859999 0.974381
vt 0.860021 0.974426
vt 0.860016 0.974416
vt 0.860018 0.974420
vt 0.860001 0.974387
vt 0.860011 0.974407
vt 0.860001 0.974390
vt 0.860007 0.974400
vt 0.860015 0.974413
vt 0.860009 0.974405
vt 0.860016 0.974417
vt 0.860022 0.974428
vt 0.860012 0.974411
vt 0.860002 0.974391
vt 0.860003 0.974394
vt 0.860006 0.974401
vt 0.860013 0.974408
vt 0.860012 0.974410
vt 0.860015 0.974416
vt 0.860020 0.974424
vt 0.860011 0.974410
vt 0.860004 0.974396
vt 0.860003 0.974395
vt 0.873552 0.523169
vt 0.874122 0.524074
vt 0.874118 0.524061
vt 0.874117 0.524060
vt 0.874123 0.524076
vt 0.874108 0.524033
vt 0.874108 0.524032
vt 0.874113 0.524047
vt 0.874111 0.524043
s 1
usemtl material.001
f 6/1/1 7/2/2 8/3/3 9/4/4
f 9/4/4 11/5/5 12/6/6 28/7/7
f 35/8/8 29/9/9 1/10/10 4/11/11
f 8/3/3 13/12/12 11/5/5 9/4/4
f 29/9/9 14/13/13 17/14/14 16/15/15
f 8/3/3 7/2/2 15/16/16 16/15/15
f 17/14/14 13/12/12 8/3/3 16/15/15
f 11/5/5 18/17/17 19/18/18 12/6/6
f 19/18/18 25/19/19 24/20/20 12/6/6
f 13/12/12 20/21/21 18/17/17 11/5/5
f 14/13/13 21/22/22 22/23/23 17/14/14
f 17/14/14 22/23/23 20/21/21 13/12/12
f 31/24/24 23/25/25 35/8/8 34/26/26
f 26/27/27 21/22/22 14/13/13 23/25/25
f 32/17/28 26/27/27 23/25/25 31/24/24
f 27/28/29 6/1/1 9/4/4 28/7/7
f 12/6/6 24/20/20 33/29/30 10/30/31
f 12/6/6 10/30/31 28/7/7
f 27/28/29 28/7/7 10/30/31
f 1/10/10 29/9/9 16/15/15
f 23/25/25 14/13/13 29/9/9 35/8/8
f 25/19/19 32/17/28 31/24/24 24/20/20
f 24/20/20 31/24/24 34/26/26 33/29/30
f 34/26/26 35/8/8 4/11/11 30/31/32
f 33/29/30 34/26/26 30/31/32 5/32/33
f 33/29/30 5/32/33 2/33/34
f 10/30/31 33/29/30 2/33/34
f 90/34/35 89/35/36 39/36/37 40/37/38
f 97/38/39 92/39/40 41/40/41 43/41/42
f 92/39/40 84/42/43 37/43/44 41/40/41
f 94/44/45 97/38/39 43/41/42 42/45/46
f 83/38/47 87/46/48 38/47/49 36/41/50
f 89/35/36 94/44/45 42/45/46 39/36/37
f 87/46/48 90/34/35 40/37/38 38/47/49
f 21/22/22 26/27/27 95/48/51 88/49/52
f 25/19/19 19/18/18 85/50/53 93/51/54
f 22/23/23 21/22/22 88/49/52 91/52/55
f 19/18/18 18/17/17 82/53/56 85/50/53
f 32/17/28 25/19/19 93/51/54 96/54/57
f 26/27/27 32/17/28 96/54/57 95/48/51
f 20/21/21 22/23/23 91/52/55 86/55/58
f 18/17/17 20/21/21 86/55/58 82/53/56
f 101/56/59 98/57/60 48/58/61 46/59/62
f 102/60/63 101/56/59 46/59/62 44/61/64
f 103/57/65 99/62/66 50/63/67 47/58/68
f 104/64/69 100/64/70 45/65/71 49/65/72
f 98/57/60 103/57/65 47/58/68 48/58/61
f 100/64/70 102/60/63 44/61/64 45/65/71
f 105/60/73 104/64/69 49/65/72 51/66/74
f 99/62/66 105/60/73 51/66/74 50/63/67
f 51/66/74 49/65/72 57/67/75 59/68/76
f 50/63/67 51/66/74 59/68/76 58/69/77
f 46/59/62 48/58/61 56/70/78 54/71/79
f 44/61/64 46/59/62 54/71/79 52/68/80
f 47/58/68 50/63/67 58/69/77 55/72/81
f 49/65/72 45/65/71 53/67/82 57/67/75
f 48/58/61 47/58/68 55/72/81 56/70/78
f 45/65/71 44/61/64 52/68/80 53/67/82
f 84/42/43 83/38/47 36/41/50 37/43/44
f 81/73/83 79/74/84 75/75/85
f 78/76/86 60/77/87 66/78/88 54/71/79
f 55/72/81 65/79/89 76/80/90
f 68/81/91 61/82/92 80/83/93 69/84/94
f 65/79/89 58/69/77 59/68/76 74/85/95
f 56/70/78 78/76/86 54/71/79
f 67/86/96 68/81/91 69/84/94 70/87/97
f 77/88/98 79/74/84 81/73/83 80/83/93
f 65/79/89 64/89/99 76/80/90
f 64/89/99 63/90/100 76/80/90
f 75/75/85 76/80/90 63/90/100
f 62/91/101 63/90/100 71/92/102
f 62/91/101 80/83/93 81/73/83
f 69/84/94 80/83/93 70/87/97
f 77/88/98 80/83/93 61/82/92
f 61/82/92 60/77/87 77/88/98
f 61/82/92 68/81/91 60/77/87
f 60/77/87 78/76/86 77/88/98
f 68/81/91 67/86/96 60/77/87
f 66/78/88 60/77/87 67/86/96
f 65/79/89 55/72/81 58/69/77
f 63/90/100 72/93/103 71/92/102
f 72/93/103 70/87/97 71/92/102
f 79/74/84 56/70/78 55/72/81 76/80/90
f 54/71/79 66/78/88 52/68/80
f 56/70/78 77/88/98 78/76/86
f 66/78/88 67/86/96 53/67/82 52/68/80
f 76/80/90 75/75/85 79/74/84
f 77/88/98 56/70/78 79/74/84
f 67/86/96 70/87/97 72/93/103 53/67/82
f 73/94/104 74/85/95 59/68/76 57/67/75
f 72/93/103 73/94/104 57/67/75 53/67/82
f 73/94/104 64/89/99 65/79/89 74/85/95
f 63/90/100 64/89/99 73/94/104 72/93/103
f 62/91/101 81/73/83 75/75/85 63/90/100
f 70/87/97 80/83/93 62/91/101 71/92/102
f 3/95/105 1/10/10 16/15/15 15/16/16
f 83/38/47 84/42/43 85/50/53 82/53/56
f 87/46/48 83/38/47 82/53/56 86/55/58
f 89/35/36 90/34/35 91/52/55 88/49/52
f 90/34/35 87/46/48 86/55/58 91/52/55
f 84/42/43 92/39/40 93/51/54 85/50/53
f 97/38/39 94/44/45 95/48/51 96/54/57
f 94/44/45 89/35/36 88/49/52 95/48/51
f 92/39/40 97/38/39 96/54/57 93/51/54
f 43/41/42 41/40/41 104/96/69 105/97/73
f 37/43/44 36/41/50 102/98/63 100/99/70
f 40/37/38 39/36/37 103/100/65 98/101/60
f 41/40/41 37/43/44 100/99/70 104/96/69
f 39/36/37 42/45/46 99/102/66 103/100/65
f 36/41/50 38/47/49 101/103/59 102/98/63
f 38/47/49 40/37/38 98/101/60 101/103/59
f 42/45/46 43/41/42 105/97/73 99/102/66
