# Blender 5.0.0
# www.blender.org
mtllib catFR.mtl
o kitty_001.002
v -0.000005 0.087001 -0.072981
v -0.000006 0.102870 -0.080364
v -0.000003 0.075578 -0.044493
v 0.043519 0.100973 -0.009878
v 0.037497 0.084941 -0.017781
v 0.032925 0.105810 -0.074292
v 0.010904 0.070709 -0.059678
v 0.030080 0.071874 -0.054209
v 0.014994 0.069777 -0.022228
v 0.032475 0.070449 -0.026112
v 0.047824 0.099467 -0.038827
v 0.046579 0.085213 -0.040674
v 0.036492 0.071309 -0.041145
v 0.034514 0.087725 -0.064430
v 0.026409 0.086013 -0.009682
v 0.034862 0.026498 -0.047376
v 0.030385 0.024546 -0.037329
v 0.017791 0.024076 -0.033996
v 0.011146 0.026198 -0.045925
v 0.015740 0.029900 -0.058318
v 0.026782 0.028999 -0.055586
v 0.035457 0.014240 -0.051097
v 0.030730 0.009563 -0.043452
v 0.017414 0.008227 -0.040820
v 0.010678 0.013238 -0.049996
v 0.015225 0.021049 -0.059263
v 0.026890 0.019174 -0.057442
v 0.026917 0.044523 -0.054117
v 0.034858 0.043913 -0.045250
v 0.011092 0.043741 -0.043334
v 0.015806 0.044134 -0.057150
v 0.030468 0.043982 -0.035137
v 0.017731 0.044153 -0.031794
v 0.036014 0.013392 -0.066049
v 0.032580 0.010421 -0.069600
v 0.029985 0.015474 -0.071389
v 0.024337 0.016424 -0.072751
v 0.018004 0.016643 -0.073328
v 0.010601 0.014996 -0.068423
v 0.008357 0.009406 -0.057713
v 0.008397 0.008103 -0.069103
v 0.013623 0.009679 -0.073660
v 0.020576 0.007981 -0.077238
v 0.028080 0.006873 -0.076974
v 0.035462 0.005406 -0.068319
v 0.037530 0.008562 -0.061154
v 0.031306 0.002072 -0.067993
v 0.034724 0.004188 -0.058602
v 0.026149 0.000746 -0.072294
v 0.017699 0.001566 -0.073396
v 0.016769 0.001678 -0.061255
v 0.009656 0.002387 -0.065592
v 0.021413 0.000871 -0.050876
v 0.023606 0.002868 -0.044105
v 0.034749 0.054263 -0.043621
v 0.035164 0.061237 -0.042576
v 0.031498 0.061650 -0.030944
v 0.030964 0.054778 -0.033361
v 0.016108 0.061821 -0.027118
v 0.016857 0.054970 -0.029803
v 0.008013 0.060539 -0.041322
v 0.010053 0.053860 -0.041350
v 0.013859 0.060748 -0.056557
v 0.015107 0.053867 -0.055944
v 0.028254 0.061419 -0.052606
v 0.027464 0.054461 -0.052619
v 0.015483 0.025474 -0.058790
v 0.026836 0.024087 -0.056514
v 0.017603 0.016152 -0.037408
v 0.010912 0.019718 -0.047960
v 0.035160 0.020369 -0.049237
v 0.030558 0.017054 -0.040391
vn 0.9238 -0.3701 -0.0985
vn 0.9731 -0.2163 -0.0790
vn 0.8029 -0.4045 0.4379
vn 0.6693 -0.5260 0.5248
vn 0.5070 -0.3464 -0.7893
vn 0.6154 -0.3924 -0.6835
vn 0.6039 -0.5390 0.5872
vn 0.9166 -0.3880 -0.0963
vn -0.4606 -0.0569 -0.8858
vn 0.5506 0.0396 -0.8339
vn 0.5171 0.0980 -0.8503
vn -0.4547 0.0794 -0.8871
vn -0.3756 -0.2991 0.8772
vn -0.9715 -0.2034 0.1221
vn -0.9942 -0.0614 0.0880
vn -0.3732 -0.1626 0.9134
vn 0.6685 -0.2044 0.7151
vn 0.6528 -0.1106 0.7494
vn 0.9868 -0.0470 -0.1551
vn 0.9860 0.0099 -0.1667
vn 0.5862 -0.3998 -0.7046
vn 0.0374 -0.5771 -0.8158
vn -0.2992 -0.6031 -0.7394
vn -0.8423 -0.5310 -0.0926
vn 0.2133 -0.4345 -0.8751
vn 0.3594 -0.5992 0.7154
vn -0.1514 -0.5796 0.8007
vn 0.9901 0.0265 -0.1378
vn 0.5053 0.1253 -0.8538
vn -0.4667 0.1248 -0.8755
vn -0.9941 -0.0221 0.1061
vn 0.6251 -0.1865 0.7579
vn -0.3667 -0.2227 0.9033
vn -0.4805 0.1714 -0.8601
vn 0.4720 0.1756 -0.8639
vn 0.4761 0.6479 -0.5947
vn -0.5930 0.5885 -0.5495
vn -0.3875 -0.3329 0.8597
vn -0.9960 -0.0229 0.0869
vn -0.9533 -0.1757 0.2456
vn -0.4448 -0.5264 0.7246
vn 0.9845 0.0470 -0.1689
vn 0.6258 -0.2757 0.7296
vn 0.6118 -0.4593 0.6440
vn 0.9936 0.0887 0.0697
vn -0.9254 -0.3665 0.0966
vn -0.3684 -0.4495 0.8138
vn -0.3890 -0.3171 -0.8650
vn 0.6705 -0.3364 0.6613
vn 0.5910 -0.1099 -0.7991
vn 0.9804 -0.1425 -0.1358
vn 0.0287 -0.7996 0.5998
vn -0.1407 -0.9491 0.2818
vn 0.6444 -0.7440 0.1765
vn -0.9038 -0.0233 -0.4273
vn -0.6880 -0.7195 -0.0944
vn -0.9457 -0.1309 0.2974
vn 0.6838 -0.3863 -0.6190
vn 0.4815 -0.8327 -0.2733
vn -0.5093 0.7190 -0.4730
vn 0.7429 0.5781 -0.3376
vn 0.9894 -0.1380 0.0446
vn -0.0142 -0.9999 -0.0033
vn 0.1097 0.7686 -0.6303
vn 0.6025 0.6642 -0.4424
vn 0.4615 -0.1257 -0.8782
vn -0.1163 -0.0363 -0.9925
vn 0.7747 0.2377 -0.5859
vn 0.2852 -0.8701 -0.4019
vn -0.5576 0.1181 -0.8216
vn -0.3441 0.6967 -0.6294
vn -0.2918 -0.7748 -0.5608
vt 0.874442 0.524838
vt 0.874388 0.524759
vt 0.874240 0.524468
vt 0.874341 0.524635
vt 0.874506 0.525003
vt 0.874531 0.525017
vt 0.874448 0.524810
vt 0.874509 0.524934
vt 0.874649 0.525163
vt 0.874636 0.525137
vt 0.874688 0.525216
vt 0.874700 0.525240
vt 0.874538 0.524947
vt 0.874596 0.525059
vt 0.874652 0.525144
vt 0.874599 0.525042
vt 0.874555 0.524980
vt 0.874615 0.525073
vt 0.874601 0.525068
vt 0.874656 0.525153
vt 0.874559 0.525034
vt 0.874565 0.525083
vt 0.874583 0.525079
vt 0.874502 0.524933
vt 0.874540 0.525063
vt 0.874294 0.524546
vt 0.874431 0.524776
vt 0.874735 0.525277
vt 0.874756 0.525320
vt 0.874762 0.525335
vt 0.874732 0.525270
vt 0.874706 0.525217
vt 0.874694 0.525194
vt 0.874784 0.525369
vt 0.874780 0.525359
vt 0.874804 0.525398
vt 0.874805 0.525403
vt 0.874735 0.525262
vt 0.874763 0.525322
vt 0.874795 0.525373
vt 0.874776 0.525330
vt 0.874766 0.525327
vt 0.874744 0.525280
vt 0.874782 0.525343
vt 0.874796 0.525377
vt 0.874564 0.525012
vt 0.874492 0.524875
vt 0.874618 0.525121
vt 0.874512 0.524912
vt 0.874603 0.525091
vt 0.874563 0.525012
vt 0.860158 0.974692
vt 0.860166 0.974707
vt 0.860171 0.974719
vt 0.860152 0.974683
vt 0.860179 0.974735
vt 0.860180 0.974735
vt 0.860167 0.974712
vt 0.860182 0.974739
vt 0.860158 0.974698
vt 0.860173 0.974726
vt 0.860172 0.974723
vt 0.860175 0.974726
vt 0.860176 0.974733
vt 0.860176 0.974731
vt 0.860187 0.974751
vt 0.860187 0.974750
vt 0.860178 0.974733
vt 0.860157 0.974696
vt 0.860155 0.974691
vt 0.860188 0.974750
vt 0.860155 0.974690
vt 0.860182 0.974741
vt 0.860177 0.974733
vt 0.860150 0.974679
s 1
usemtl material.001
f 12/1/1 11/2/2 4/3/3 5/4/4
f 6/5/5 11/2/2 12/1/1 14/6/6
f 5/4/4 10/7/7 13/8/8 12/1/1
f 64/9/9 66/10/10 28/11/11 31/12/12
f 60/13/13 62/14/14 30/15/15 33/16/16
f 58/17/17 60/13/13 33/16/16 32/18/18
f 55/19/19 58/17/17 32/18/18 29/20/20
f 8/21/21 14/6/6 12/1/1 13/8/8
f 66/10/10 55/19/19 29/20/20 28/11/11
f 62/14/14 64/9/9 31/12/12 30/15/15
f 1/22/22 7/23/23 3/24/24
f 14/6/6 1/22/22 2/25/25 6/5/5
f 8/21/21 7/23/23 1/22/22 14/6/6
f 4/3/3 15/26/26 5/4/4
f 9/27/27 10/7/7 5/4/4 15/26/26
f 28/11/11 29/20/20 16/28/28 21/29/29
f 30/15/15 31/12/12 20/30/30 19/31/31
f 29/20/20 32/18/18 17/32/32 16/28/28
f 31/12/12 28/11/11 21/29/29 20/30/30
f 33/16/16 30/15/15 19/31/31 18/33/33
f 32/18/18 33/16/16 18/33/33 17/32/32
f 67/34/34 68/35/35 27/36/36 26/37/37
f 69/38/38 70/39/39 25/40/40 24/41/41
f 71/42/42 72/43/43 23/44/44 22/45/45
f 68/35/35 71/42/42 22/45/45 27/36/36
f 70/39/39 67/34/34 26/37/37 25/40/40
f 72/43/43 69/38/38 24/41/41 23/44/44
f 3/24/24 61/46/46 59/47/47 9/27/27
f 7/23/23 63/48/48 61/46/46 3/24/24
f 10/7/7 9/27/27 59/47/47 57/49/49
f 8/21/21 65/50/50 63/48/48 7/23/23
f 13/8/8 10/7/7 57/49/49 56/51/51
f 54/52/52 53/53/53 48/54/54 23/55/44
f 41/56/55 52/57/56 40/58/57
f 45/57/58 48/54/54 47/59/59
f 40/58/57 26/60/37 39/61/60 41/56/55
f 34/62/61 46/54/62 45/57/58
f 51/63/63 47/59/59 48/54/54 53/53/53
f 37/64/64 36/65/65 44/66/66 43/67/67
f 34/62/61 35/68/68 27/69/36 22/70/45
f 46/54/62 34/62/61 22/70/45
f 49/71/69 44/66/66 35/68/68 47/59/59
f 52/57/56 25/72/40 40/58/57
f 22/70/45 23/55/44 48/54/54
f 41/56/55 39/61/60 42/73/70
f 42/73/70 39/61/60 26/60/37
f 42/73/70 26/60/37 38/74/71
f 38/74/71 26/60/37 37/64/64
f 44/66/66 36/65/65 35/68/68
f 45/57/58 35/68/68 34/62/61
f 27/69/36 35/68/68 36/65/65
f 47/59/59 51/63/63 49/71/69
f 43/67/67 42/73/70 38/74/71 37/64/64
f 40/58/57 25/72/40 26/60/37
f 26/60/37 27/69/36 36/65/65 37/64/64
f 52/57/56 50/71/72 51/63/63
f 44/66/66 49/71/69 50/71/72 43/67/67
f 24/75/41 54/52/52 23/55/44
f 50/71/72 52/57/56 41/56/55 42/73/70
f 54/52/52 24/75/41 25/72/40 53/53/53
f 48/54/54 45/57/58 46/54/62
f 46/54/62 22/70/45 48/54/54
f 35/68/68 45/57/58 47/59/59
f 51/63/63 53/53/53 52/57/56
f 43/67/67 50/71/72 42/73/70
f 25/72/40 52/57/56 53/53/53
f 50/71/72 49/71/69 51/63/63
f 58/17/17 55/19/19 56/51/51 57/49/49
f 60/13/13 58/17/17 57/49/49 59/47/47
f 62/14/14 60/13/13 59/47/47 61/46/46
f 64/9/9 62/14/14 61/46/46 63/48/48
f 66/10/10 64/9/9 63/48/48 65/50/50
f 55/19/19 66/10/10 65/50/50 56/51/51
f 8/21/21 13/8/8 56/51/51 65/50/50
f 17/32/32 18/33/33 69/38/38 72/43/43
f 19/31/31 20/30/30 67/34/34 70/39/39
f 21/29/29 16/28/28 71/42/42 68/35/35
f 16/28/28 17/32/32 72/43/43 71/42/42
f 18/33/33 19/31/31 70/39/39 69/38/38
f 20/30/30 21/29/29 68/35/35 67/34/34
