# Blender 5.0.0
# www.blender.org
mtllib catHead.mtl
o kitty_001.001
v -0.000006 0.171882 -0.055978
v -0.000006 0.102870 -0.080364
v -0.000007 0.180372 -0.068772
v -0.000007 0.117919 -0.091363
v 0.038311 0.135418 -0.063757
v 0.013953 0.166948 -0.059017
v 0.032925 0.105810 -0.074292
v 0.011287 0.175970 -0.072012
v 0.031960 0.145912 -0.080481
v 0.023963 0.124841 -0.086606
v 0.028841 0.154660 -0.061085
v 0.023903 0.165254 -0.076909
v -0.000007 0.130455 -0.110717
v -0.000007 0.179200 -0.149744
v 0.029671 0.190103 -0.118450
v -0.000007 0.202107 -0.118200
v -0.000007 0.197422 -0.086718
v 0.020366 0.194640 -0.124525
v 0.040517 0.214920 -0.115436
v -0.000007 0.203474 -0.104717
v 0.033311 0.209100 -0.119924
v 0.036775 0.185752 -0.112490
v 0.044628 0.199288 -0.111989
v 0.013159 0.193291 -0.136083
v -0.000007 0.132299 -0.125227
v 0.031683 0.213107 -0.119435
v 0.013181 0.196048 -0.089146
v 0.025172 0.194438 -0.094742
v 0.039796 0.181591 -0.111257
v 0.033035 0.157599 -0.094094
v 0.026027 0.139061 -0.104464
v 0.039525 0.156167 -0.107581
v 0.040929 0.168572 -0.108399
v 0.035918 0.178196 -0.122426
v 0.036817 0.162042 -0.126490
v 0.031658 0.183519 -0.128305
v 0.027347 0.179164 -0.137568
v -0.000007 0.187888 -0.144931
v 0.022776 0.188870 -0.135482
v 0.010773 0.186736 -0.145223
v 0.007784 0.179182 -0.149024
v 0.021120 0.181539 -0.143408
v 0.027248 0.173531 -0.139490
v -0.000007 0.135986 -0.143852
v 0.018158 0.169317 -0.136856
v 0.012745 0.174750 -0.147916
v 0.023576 0.164786 -0.141901
v 0.028141 0.163654 -0.138459
v 0.040393 0.198925 -0.114137
v -0.000007 0.194312 -0.136651
v -0.000007 0.145016 -0.154381
v 0.023612 0.154649 -0.141246
v 0.019689 0.161225 -0.144416
v 0.012817 0.166543 -0.143822
v 0.016958 0.142229 -0.141991
v 0.005148 0.170317 -0.150637
v 0.031494 0.198516 -0.111553
v -0.000007 0.150162 -0.157938
v 0.012070 0.152328 -0.153006
v 0.019743 0.147751 -0.146859
v 0.009866 0.142746 -0.147508
v 0.010965 0.142986 -0.144488
v 0.005726 0.143181 -0.151695
v -0.000007 0.141804 -0.151885
v 0.010525 0.139163 -0.143904
v 0.026426 0.145210 -0.125827
v 0.018827 0.197455 -0.122966
v 0.024698 0.208469 -0.120808
v 0.042231 0.193890 -0.102851
v 0.014374 0.201642 -0.102343
v 0.039170 0.182483 -0.100246
v 0.026384 0.208088 -0.107312
v 0.036256 0.201246 -0.100028
v -0.000007 0.170617 -0.151331
v 0.014112 0.199938 -0.121929
v 0.039098 0.209867 -0.117746
v 0.028231 0.205007 -0.121203
v -0.000007 0.159470 -0.160134
v 0.024710 0.177779 -0.087191
v -0.000007 0.189175 -0.079082
v 0.010689 0.186538 -0.081040
v 0.030081 0.187782 -0.120429
v 0.040941 0.204731 -0.115563
v 0.044332 0.207359 -0.113014
v -0.000007 0.162417 -0.158911
v -0.000007 0.153965 -0.158674
v 0.005534 0.158082 -0.158405
v 0.004223 0.161883 -0.157685
v -0.038325 0.135418 -0.063756
v -0.013966 0.166948 -0.059017
v -0.032938 0.105810 -0.074292
v -0.011301 0.175970 -0.072012
v -0.031974 0.145912 -0.080480
v -0.023977 0.124841 -0.086606
v -0.028853 0.154660 -0.061084
v -0.023916 0.165254 -0.076909
v -0.029671 0.190137 -0.118440
v -0.021995 0.193742 -0.123660
v -0.040531 0.214920 -0.115436
v -0.033325 0.209102 -0.119924
v -0.036743 0.185236 -0.113020
v -0.044662 0.199276 -0.111939
v -0.013184 0.193291 -0.136077
v -0.031695 0.213107 -0.119434
v -0.013195 0.196048 -0.089146
v -0.025186 0.194438 -0.094741
v -0.039814 0.181553 -0.111256
v -0.033049 0.157599 -0.094094
v -0.026041 0.139061 -0.104464
v -0.039540 0.156166 -0.107580
v -0.040943 0.168572 -0.108399
v -0.035933 0.178196 -0.122427
v -0.036832 0.162042 -0.126490
v -0.031675 0.183514 -0.128306
v -0.027361 0.179164 -0.137568
v -0.022792 0.188868 -0.135483
v -0.010788 0.186736 -0.145223
v -0.007798 0.179182 -0.149024
v -0.021134 0.181539 -0.143408
v -0.027263 0.173530 -0.139490
v -0.018117 0.169295 -0.136866
v -0.012759 0.174749 -0.147916
v -0.023558 0.164748 -0.141923
v -0.028070 0.163668 -0.138555
v -0.040456 0.198940 -0.114159
v -0.023525 0.154790 -0.141400
v -0.014359 0.161237 -0.144148
v -0.013054 0.166229 -0.143670
v -0.016971 0.142228 -0.141989
v -0.005162 0.170317 -0.150637
v -0.031477 0.198535 -0.111567
v -0.012152 0.152396 -0.152968
v -0.019777 0.147951 -0.146931
v -0.009880 0.142746 -0.147508
v -0.010979 0.142986 -0.144488
v -0.005740 0.143181 -0.151695
v -0.010539 0.139163 -0.143904
v -0.026440 0.145210 -0.125827
v -0.018748 0.197296 -0.122571
v -0.024706 0.208387 -0.120863
v -0.042246 0.193890 -0.102851
v -0.014388 0.201642 -0.102343
v -0.039184 0.182483 -0.100246
v -0.026398 0.208088 -0.107312
v -0.036271 0.201246 -0.100028
v -0.014189 0.199934 -0.121930
v -0.039113 0.209867 -0.117746
v -0.028213 0.204916 -0.121195
v -0.024724 0.177779 -0.087191
v -0.010704 0.186538 -0.081040
v -0.030095 0.187795 -0.120410
v -0.040955 0.204734 -0.115564
v -0.044347 0.207359 -0.113015
v -0.005548 0.158083 -0.158405
v -0.004238 0.161883 -0.157685
v 0.011238 0.162656 -0.131663
v 0.011247 0.172899 -0.131704
v 0.010137 0.174145 -0.137059
v 0.010082 0.167756 -0.130476
v 0.007531 0.167853 -0.137058
v 0.010131 0.161553 -0.137021
v 0.011304 0.162728 -0.142264
v 0.011305 0.173017 -0.142271
v 0.010149 0.167873 -0.143427
v 0.016385 0.158930 -0.136898
v 0.025287 0.167824 -0.136961
v 0.021418 0.162628 -0.131543
v 0.022543 0.167714 -0.130347
v 0.016312 0.161479 -0.130385
v 0.016423 0.176741 -0.137036
v 0.016260 0.167679 -0.127650
v 0.016330 0.174000 -0.130443
v 0.021444 0.172860 -0.131610
v 0.022698 0.174120 -0.136995
v 0.016445 0.161571 -0.143412
v 0.021581 0.162723 -0.142236
v 0.022662 0.161530 -0.136900
v 0.016449 0.167873 -0.146036
v 0.021590 0.173014 -0.142263
v 0.022747 0.167873 -0.143424
v 0.016449 0.174173 -0.143427
v -0.020996 0.163331 -0.132438
v -0.021016 0.173054 -0.132489
v -0.022197 0.174244 -0.137590
v -0.022063 0.168164 -0.131292
v -0.024658 0.168263 -0.137558
v -0.022169 0.162287 -0.137513
v -0.021133 0.163417 -0.142560
v -0.021139 0.173189 -0.142579
v -0.022238 0.168306 -0.143680
v -0.016207 0.159817 -0.137518
v -0.007790 0.168289 -0.137644
v -0.011314 0.163354 -0.132534
v -0.010216 0.168203 -0.131410
v -0.016138 0.162236 -0.131324
v -0.016236 0.176733 -0.137626
v -0.016094 0.168126 -0.128725
v -0.016156 0.174138 -0.131382
v -0.011323 0.173089 -0.132574
v -0.010265 0.174266 -0.137646
v -0.016255 0.162323 -0.143675
v -0.011372 0.163422 -0.142582
v -0.010261 0.162309 -0.137621
v -0.016256 0.168306 -0.146159
v -0.011372 0.173190 -0.142584
v -0.010275 0.168306 -0.143681
v -0.016256 0.174288 -0.143681
v -0.000007 0.145601 -0.152781
v 0.014914 0.142229 -0.135228
v -0.000007 0.147757 -0.144794
v 0.009866 0.145487 -0.137921
v 0.010965 0.140237 -0.136646
v -0.014927 0.142228 -0.135227
v -0.009880 0.145486 -0.137921
v -0.010979 0.140237 -0.136646
v -0.000007 0.139654 -0.140548
v 0.009870 0.143901 -0.128011
v -0.000007 0.146387 -0.133235
v 0.005741 0.144304 -0.131229
v 0.006380 0.142584 -0.129955
v -0.009883 0.143900 -0.128010
v -0.005755 0.144303 -0.131229
v -0.006395 0.142584 -0.129955
v -0.000007 0.141399 -0.133017
vn 0.5597 0.7363 0.3803
vn 0.5239 0.6657 0.5314
vn -0.0000 0.7842 0.6205
vn -0.0000 0.8481 0.5299
vn 0.9269 0.1311 -0.3518
vn 0.9894 0.0811 -0.1207
vn 0.8062 0.4878 0.3347
vn 0.8446 0.5297 0.0779
vn -0.0000 -0.5185 -0.8551
vn -0.0000 -0.6775 -0.7355
vn 0.6557 -0.4485 -0.6073
vn 0.5852 -0.3212 -0.7445
vn 0.9245 -0.3653 0.1092
vn 0.7064 -0.6730 -0.2190
vn 0.6767 -0.6860 -0.2674
vn 0.9011 -0.1961 -0.3867
vn 0.1491 0.4640 0.8732
vn 0.3518 0.4607 0.8149
vn -0.2857 0.8550 0.4328
vn -0.3362 0.8423 0.4214
vn 0.8316 -0.0049 0.5553
vn 0.7112 0.4076 0.5727
vn 0.5354 0.3322 -0.7765
vn 0.2212 0.5744 -0.7881
vn 0.2587 0.8189 -0.5124
vn 0.5687 0.6652 -0.4837
vn -0.1828 0.9705 0.1572
vn -0.1564 0.9393 0.3054
vn -0.1516 0.9864 -0.0628
vn -0.2056 0.9715 -0.1183
vn 0.5841 -0.5682 -0.5797
vn 0.3393 -0.1408 -0.9301
vn 0.6702 -0.1157 -0.7331
vn 0.4901 0.5372 0.6865
vn 0.6669 0.3269 0.6696
vn 0.8409 0.0930 0.5331
vn 0.9670 0.1684 -0.1912
vn 0.9973 -0.0395 0.0619
vn 0.8878 0.2640 -0.3769
vn 0.3145 0.7292 0.6077
vn 0.1672 0.9627 0.2127
vn 0.9299 -0.1004 0.3538
vn -0.0000 -0.9848 -0.1738
vn 0.4850 -0.7279 -0.4848
vn 0.4298 0.5621 0.7067
vn -0.0000 0.9743 -0.2252
vn -0.0000 0.9941 0.1083
vn 0.1865 0.9333 -0.3070
vn -0.0000 -0.9246 -0.3811
vn -0.0000 -0.5853 -0.8108
vn 0.5607 0.0666 -0.8253
vn 0.5646 -0.1109 -0.8178
vn 0.6505 0.0748 -0.7558
vn 0.5647 0.5035 -0.6539
vn 0.4093 0.2578 -0.8752
vn -0.0000 0.4239 -0.9057
vn -0.0000 0.6537 -0.7568
vn 0.7925 -0.1600 -0.5885
vn 0.6867 -0.3513 -0.6364
vn 0.4697 0.3512 -0.8099
vn -0.0000 -0.9212 -0.3891
vn 0.4534 -0.5995 -0.6596
vn 0.5220 0.1637 -0.8371
vn 0.2070 0.2317 -0.9505
vn 0.2149 0.2352 -0.9479
vn 0.5197 0.1653 -0.8382
vn 0.6637 0.2003 -0.7207
vn 0.4740 -0.1089 -0.8737
vn 0.1954 0.2756 -0.9412
vn -0.0000 0.3263 -0.9453
vn 0.7525 -0.1129 -0.6488
vn -0.0047 0.2591 -0.9658
vn 0.0270 0.1920 -0.9810
vn 0.0361 0.1897 -0.9812
vn 0.1450 0.4401 -0.8862
vn 0.2699 -0.0372 -0.9622
vn 0.6169 -0.0011 -0.7870
vn -0.0000 0.1249 -0.9922
vn 0.1585 -0.5526 -0.8182
vn -0.1561 -0.3570 -0.9210
vn 0.6507 0.3921 -0.6503
vn -0.2702 -0.1401 -0.9526
vn 0.3486 0.2113 -0.9131
vn 0.5434 -0.7545 -0.3679
vn -0.0000 0.6554 -0.7553
vn -0.0000 0.8610 -0.5086
vn -0.0000 0.6773 0.7357
vn 0.6352 -0.0421 -0.7712
vn 0.6162 -0.0728 -0.7842
vn 0.9709 -0.0290 0.2376
vn 0.5608 0.5949 -0.5758
vn 0.5389 0.0725 -0.8392
vn 0.6889 0.5134 -0.5117
vn 0.6769 0.5284 -0.5124
vn 0.6112 0.1810 -0.7705
vn 0.8373 -0.1213 0.5330
vn 0.3762 -0.9026 0.2091
vn -0.0000 -0.9615 0.2749
vn -0.0000 -0.9916 0.1297
vn 0.3090 -0.9510 -0.0086
vn 0.4461 -0.1613 -0.8803
vn 0.4668 -0.1602 -0.8697
vn -0.0000 0.8085 0.5885
vn 0.9648 -0.2490 0.0848
vn 0.2520 0.2660 -0.9305
vn 0.1111 0.8229 0.5572
vn -0.4181 0.8893 0.1854
vn 0.6306 -0.0883 -0.7711
vn 0.3765 -0.5756 -0.7259
vn 0.7859 0.4673 -0.4050
vn 0.7517 0.2439 -0.6128
vn -0.0010 -0.5698 -0.8218
vn -0.0010 -0.4558 -0.8901
vn 0.5239 0.7849 -0.3308
vn 0.7156 0.6370 -0.2865
vn -0.0009 -0.3342 -0.9425
vn -0.5579 0.8289 0.0401
vn -0.5526 0.8335 -0.0008
vn 0.3082 0.0467 -0.9502
vn -0.0000 -0.2564 -0.9666
vn -0.0000 0.0900 -0.9959
vn -0.0000 0.3833 -0.9236
vn 0.3350 0.3142 -0.8883
vn -0.5597 0.7362 0.3803
vn -0.5239 0.6657 0.5314
vn -0.9269 0.1311 -0.3517
vn -0.8446 0.5298 0.0779
vn -0.8062 0.4878 0.3347
vn -0.9894 0.0811 -0.1206
vn -0.5852 -0.3212 -0.7445
vn -0.6557 -0.4485 -0.6073
vn -0.9245 -0.3653 0.1092
vn -0.9007 -0.1964 -0.3874
vn -0.6768 -0.6856 -0.2683
vn -0.7064 -0.6731 -0.2190
vn -0.1491 0.4641 0.8732
vn 0.3359 0.8429 0.4204
vn 0.2865 0.8553 0.4316
vn -0.3519 0.4607 0.8148
vn -0.8310 -0.0048 0.5562
vn -0.7098 0.4087 0.5737
vn -0.5354 0.3322 -0.7765
vn -0.5692 0.6644 -0.4843
vn -0.2640 0.8190 -0.5095
vn -0.2212 0.5744 -0.7881
vn -0.0000 0.8994 0.4372
vn -0.0000 0.9906 0.1366
vn -0.5800 -0.5746 -0.5774
vn -0.6560 -0.1164 -0.7457
vn -0.3293 -0.1347 -0.9346
vn -0.4901 0.5372 0.6865
vn -0.8406 0.0930 0.5336
vn -0.6669 0.3269 0.6696
vn -0.9671 0.1682 -0.1910
vn -0.8879 0.2641 -0.3767
vn -0.9973 -0.0395 0.0620
vn -0.3145 0.7292 0.6077
vn -0.1671 0.9628 0.2125
vn -0.9299 -0.1004 0.3539
vn -0.4850 -0.7278 -0.4848
vn -0.4298 0.5621 0.7067
vn -0.2011 0.9305 -0.3062
vn -0.5607 0.0666 -0.8253
vn -0.5925 -0.0789 -0.8017
vn -0.4080 0.2580 -0.8758
vn -0.5624 0.5043 -0.6553
vn -0.6484 0.0738 -0.7577
vn -0.7530 -0.1013 -0.6502
vn -0.6367 0.3263 -0.6987
vn -0.6980 -0.2643 -0.6655
vn -0.4544 -0.6001 -0.6583
vn -0.5219 0.1639 -0.8371
vn -0.5196 0.1655 -0.8382
vn -0.2175 0.2330 -0.9479
vn -0.2093 0.2290 -0.9507
vn -0.7653 0.0721 -0.6397
vn -0.1954 0.2756 -0.9412
vn -0.4740 -0.1044 -0.8743
vn -0.7210 -0.1153 -0.6833
vn -0.0060 0.1763 -0.9843
vn -0.1097 0.3241 -0.9396
vn -0.0479 0.1633 -0.9854
vn -0.0405 0.1619 -0.9860
vn -0.2486 -0.0661 -0.9664
vn -0.6175 -0.0003 -0.7866
vn -0.1581 -0.5527 -0.8183
vn 0.1557 -0.3561 -0.9214
vn -0.6376 0.4011 -0.6577
vn -0.3364 0.2329 -0.9125
vn 0.2701 -0.1229 -0.9549
vn -0.5469 -0.7505 -0.3711
vn -0.6195 -0.0717 -0.7817
vn -0.6374 -0.0416 -0.7694
vn -0.9698 -0.0258 0.2426
vn -0.5941 0.6230 -0.5088
vn -0.5459 0.0157 -0.8377
vn -0.6485 0.1955 -0.7356
vn -0.6732 0.5526 -0.4914
vn -0.6888 0.5286 -0.4961
vn -0.8373 -0.1214 0.5330
vn -0.3762 -0.9027 0.2091
vn -0.3090 -0.9510 -0.0085
vn -0.4859 -0.1596 -0.8593
vn -0.4998 -0.1585 -0.8515
vn -0.9646 -0.2491 0.0865
vn -0.2013 0.2234 -0.9537
vn -0.1112 0.8229 0.5572
vn 0.4214 0.8881 0.1835
vn -0.6307 -0.0883 -0.7709
vn -0.3800 -0.5724 -0.7266
vn -0.7517 0.2439 -0.6128
vn -0.7871 0.4647 -0.4056
vn -0.7179 0.6340 -0.2875
vn -0.5470 0.7744 -0.3180
vn 0.5604 0.8274 0.0363
vn 0.5521 0.8338 -0.0039
vn -0.3082 0.0467 -0.9502
vn -0.3350 0.3142 -0.8883
vn -0.0022 -1.0000 -0.0043
vn -0.0091 -0.7184 0.6956
vn -0.5942 -0.5845 0.5525
vn -0.7088 -0.7053 -0.0123
vn -0.0122 -0.0004 0.9999
vn -0.7236 0.0011 0.6902
vn -1.0000 0.0017 -0.0089
vn -0.0049 0.7111 0.7031
vn -0.5875 0.5831 0.5612
vn 0.0020 1.0000 0.0069
vn -0.7057 0.7085 -0.0017
vn -0.5774 -0.5786 -0.5761
vn 0.0019 -0.7098 -0.7044
vn -0.7078 -0.0001 -0.7064
vn 0.0009 -0.0011 -1.0000
vn 0.0019 0.7109 -0.7033
vn -0.5778 0.5799 -0.5744
vn 0.7067 -0.7075 0.0032
vn 0.5795 -0.5854 0.5670
vn 1.0000 -0.0010 0.0097
vn 0.7071 -0.0010 0.7071
vn 0.5787 0.5791 0.5743
vn 0.7084 0.7057 0.0120
vn 0.5824 -0.5811 -0.5684
vn 0.7134 -0.0015 -0.7007
vn 0.5834 0.5803 -0.5683
vn 0.0019 -1.0000 -0.0053
vn 0.0085 -0.7185 0.6955
vn -0.5802 -0.5856 0.5661
vn -0.7070 -0.7072 0.0021
vn 0.0113 -0.0007 0.9999
vn -0.7076 -0.0010 0.7066
vn -1.0000 -0.0007 0.0085
vn 0.0046 0.7113 0.7029
vn -0.5789 0.5793 0.5739
vn -0.0019 1.0000 0.0060
vn -0.7083 0.7059 0.0105
vn -0.5819 -0.5802 -0.5698
vn -0.0016 -0.7091 -0.7051
vn -0.7127 -0.0010 -0.7015
vn -0.0006 -0.0006 -1.0000
vn -0.0015 0.7104 -0.7038
vn -0.5826 0.5799 -0.5695
vn 0.7088 -0.7053 -0.0124
vn 0.5936 -0.5846 0.5530
vn 1.0000 0.0016 -0.0085
vn 0.7231 0.0013 0.6908
vn 0.5869 0.5830 0.5618
vn 0.7058 0.7084 -0.0019
vn 0.5774 -0.5781 -0.5765
vn 0.7077 0.0001 -0.7065
vn 0.5777 0.5794 -0.5749
vn 0.3623 -0.9256 0.1098
vn 0.4269 -0.9042 -0.0132
vn 0.1564 0.9393 0.3054
vn 0.1824 0.9706 0.1572
vn 0.2054 0.9715 -0.1183
vn 0.1515 0.9865 -0.0627
vn -0.3621 -0.9256 0.1099
vn -0.4268 -0.9042 -0.0131
vn 0.0001 -0.8182 -0.5749
vn -0.2044 -0.7531 -0.6254
vn 0.3248 -0.1674 -0.9309
vn -0.2638 0.4998 -0.8250
vn 0.2044 -0.7531 -0.6253
vn -0.0000 0.6799 -0.7333
vn 0.2637 0.4997 -0.8251
vn -0.3249 -0.1675 -0.9308
vt 0.874244 0.524572
vt 0.874269 0.524635
vt 0.874244 0.524593
vt 0.874219 0.524529
vt 0.874370 0.524776
vt 0.874401 0.524854
vt 0.874322 0.524724
vt 0.874294 0.524652
vt 0.874540 0.525063
vt 0.874537 0.525082
vt 0.874495 0.525010
vt 0.874506 0.525003
vt 0.874476 0.525019
vt 0.874518 0.525078
vt 0.874573 0.525194
vt 0.874522 0.525117
vt 0.874312 0.524748
vt 0.874315 0.524763
vt 0.874322 0.524785
vt 0.874321 0.524775
vt 0.874343 0.524811
vt 0.874336 0.524813
vt 0.874522 0.525140
vt 0.874514 0.525132
vt 0.874465 0.525044
vt 0.874475 0.525059
vt 0.038752 0.805013
vt 0.038760 0.805028
vt 0.027550 0.917170
vt 0.027846 0.918904
vt 0.027742 0.919631
vt 0.874327 0.524753
vt 0.874367 0.524841
vt 0.874407 0.524919
vt 0.874440 0.524965
vt 0.874460 0.525016
vt 0.874284 0.524696
vt 0.874420 0.524910
vt 0.859321 0.975055
vt 0.859331 0.975078
vt 0.859310 0.975038
vt 0.874275 0.524665
vt 0.874376 0.524881
vt 0.874323 0.524781
vt 0.874394 0.524914
vt 0.859335 0.975084
vt 0.859337 0.975089
vt 0.859336 0.975088
vt 0.859328 0.975076
vt 0.859329 0.975079
vt 0.859326 0.975075
vt 0.859312 0.975051
vt 0.859313 0.975052
vt 0.859327 0.975076
vt 0.874596 0.525251
vt 0.874636 0.525320
vt 0.874644 0.525341
vt 0.874588 0.525243
vt 0.874614 0.525258
vt 0.874569 0.525166
vt 0.027470 0.916044
vt 0.874336 0.524818
vt 0.874346 0.524837
vt 0.874342 0.524831
vt 0.874325 0.524800
vt 0.874570 0.525214
vt 0.874582 0.525243
vt 0.874556 0.525198
vt 0.874548 0.525189
vt 0.859304 0.975038
vt 0.859304 0.975037
vt 0.874558 0.525188
vt 0.874360 0.524860
vt 0.874364 0.524866
vt 0.874398 0.524920
vt 0.874532 0.525145
vt 0.874531 0.525147
vt 0.859334 0.975084
vt 0.027486 0.915854
vt 0.027640 0.917217
vt 0.027982 0.921705
vt 0.027807 0.918862
vt 0.028169 0.922711
vt 0.859326 0.975069
vt 0.874511 0.525127
vt 0.874464 0.525044
vt 0.874260 0.524639
vt 0.874343 0.524826
vt 0.874353 0.524837
vt 0.874418 0.524956
vt 0.874424 0.524959
vt 0.874407 0.524929
vt 0.874395 0.524899
vt 0.038771 0.805049
vt 0.038779 0.805068
vt 0.874357 0.524843
vt 0.874269 0.524668
vt 0.874561 0.525198
vt 0.859328 0.975073
vt 0.859326 0.975070
vt 0.874465 0.525033
vt 0.874508 0.525112
vt 0.859333 0.975083
vt 0.859332 0.975083
vt 0.874675 0.525387
vt 0.874667 0.525375
vt 0.874644 0.525329
vt 0.026205 0.877351
vt 0.026278 0.878193
vt 0.026156 0.877028
vt 0.026121 0.876499
vt 0.026144 0.876596
vt 0.038782 0.805073
vt 0.027551 0.917183
vt 0.027749 0.919637
vt 0.874396 0.524918
vt 0.028174 0.922872
vt 0.859557 0.974889
vt 0.859567 0.974907
vt 0.859566 0.974905
vt 0.874418 0.524954
vt 0.874399 0.524907
vt 0.874357 0.524844
vt 0.526103 0.773615
vt 0.526013 0.773410
vt 0.526027 0.773388
vt 0.526082 0.773555
vt 0.525818 0.773444
vt 0.525882 0.773434
vt 0.525918 0.773648
vt 0.525634 0.773698
vt 0.525720 0.773622
vt 0.525567 0.774023
vt 0.525706 0.773841
vt 0.526047 0.773818
vt 0.526036 0.773940
vt 0.525906 0.773961
vt 0.525851 0.774195
vt 0.525657 0.774229
vt 0.525739 0.774053
vt 0.525966 0.773797
vt 0.525932 0.773583
vt 0.525750 0.773994
vt 0.525763 0.773675
vt 0.525621 0.773820
vt 0.525584 0.774088
vt 0.525951 0.774019
vt 0.525787 0.774210
vt 0.525640 0.774256
s 1
usemtl material.001
f 6/1/1 8/2/2 3/3/3 1/4/4
f 5/5/5 9/6/6 12/7/7 11/8/8
f 2/9/9 4/10/10 10/11/11 7/12/12
f 7/12/12 10/11/11 9/6/6 5/5/5
f 12/7/7 8/2/2 6/1/1 11/8/8
f 32/13/13 31/14/14 66/15/15 35/16/16
f 28/17/17 73/18/18 72/19/19 70/20/20
f 69/21/21 84/22/22 73/18/18
f 42/23/23 40/24/24 24/25/25 39/26/26
f 55/27/27 62/28/28 212/28/29 209/27/30
f 77/29/31 57/30/32 67/31/33
f 28/17/34 79/32/35 71/33/36
f 29/34/37 33/35/38 34/36/39
f 27/37/40 28/17/34 70/20/41
f 32/13/13 35/16/16 33/35/38
f 32/13/13 30/38/42 31/14/14
f 30/38/42 32/13/13 33/35/38
f 12/7/7 9/6/6 30/38/42 79/32/35
f 25/39/43 65/40/44 66/41/15
f 12/7/7 79/32/35 81/42/45 8/2/2
f 16/43/46 20/44/47 70/20/41 75/45/48
f 44/46/49 64/47/50 63/48/51
f 59/49/52 87/50/53 88/51/54 56/52/55
f 74/53/56 56/52/55 88/51/54 85/54/57
f 52/55/58 60/56/59 59/57/52 53/58/60
f 25/59/43 66/15/15 31/14/14 13/60/61
f 21/61/62 57/30/32 77/29/31
f 76/62/63 21/63/64 26/64/65 19/65/66
f 54/66/67 59/57/52 56/67/55
f 40/24/24 42/23/23 46/68/68 41/69/69
f 74/53/56 14/70/70 41/71/69 56/52/55
f 52/55/58 48/72/71 35/16/16 66/15/15
f 10/11/11 31/14/14 30/38/42 9/6/6
f 75/45/72 68/73/73 77/74/74 67/75/75
f 45/76/76 46/68/68 43/77/77
f 64/47/50 208/78/78 63/48/51
f 76/79/79 83/80/80 57/30/32
f 67/31/33 57/30/32 15/81/81
f 57/30/32 49/82/82 22/83/83
f 77/74/74 68/73/73 26/64/65 21/63/64
f 55/84/84 66/41/15 65/40/44
f 24/25/25 40/24/24 38/85/85 50/86/86
f 8/2/2 81/42/45 80/87/87 3/3/3
f 38/85/85 40/24/24 41/69/69
f 19/65/66 84/22/88 83/88/89 76/62/63
f 57/30/32 22/83/83 15/81/81
f 69/21/21 23/89/90 84/22/22
f 67/75/75 18/90/91 75/45/72
f 29/34/92 82/91/93 15/92/94 22/93/95
f 28/17/17 71/33/96 69/21/21 73/18/18
f 59/57/52 54/66/67 53/58/60
f 134/94/97 51/95/98 210/95/99 214/94/100
f 49/96/101 23/89/102 29/34/92 22/93/95
f 76/79/79 57/30/32 21/61/62
f 70/20/41 20/44/47 17/97/103 27/37/40
f 54/66/67 56/67/55 46/68/68
f 69/21/21 71/33/96 29/34/104
f 48/72/71 52/55/58 53/58/60 47/98/105
f 19/65/106 26/64/107 72/19/19
f 29/34/37 71/33/36 33/35/38
f 53/58/60 54/66/67 45/76/76
f 46/68/68 45/76/76 54/66/67
f 73/18/18 19/65/106 72/19/19
f 25/39/43 44/46/49 65/40/44
f 63/48/51 62/99/108 65/40/44
f 55/84/84 61/40/109 60/100/59
f 34/36/39 33/35/38 35/16/16
f 39/26/26 36/101/110 37/102/111 42/23/23
f 60/56/59 52/55/58 66/15/15
f 75/45/48 24/25/25 50/86/86 16/43/46
f 59/49/52 61/40/109 51/103/112 58/104/113
f 43/77/77 46/68/68 42/23/23 37/102/111
f 43/77/77 48/72/71 47/98/105
f 71/33/36 30/38/42 33/35/38
f 45/76/76 47/98/105 53/58/60
f 39/26/26 18/90/114 82/91/115 36/101/110
f 55/84/84 65/40/44 62/99/108
f 29/34/104 23/89/90 69/21/21
f 60/100/59 66/41/15 55/84/84
f 60/100/59 61/40/109 59/49/52
f 43/77/77 47/98/105 45/76/76
f 58/104/113 86/104/116 87/50/53 59/49/52
f 13/60/61 31/14/14 10/11/11 4/10/10
f 80/87/87 81/42/45 27/37/40 17/97/103
f 81/42/45 79/32/35 28/17/34 27/37/40
f 79/32/35 30/38/42 71/33/36
f 24/25/25 75/45/48 18/90/114 39/26/26
f 63/105/51 208/106/78 62/107/108
f 44/46/49 63/48/51 65/40/44
f 56/67/55 41/69/69 46/68/68
f 48/72/71 43/77/77 34/36/39 35/16/16
f 34/36/39 43/77/77 37/102/111 36/101/110
f 68/73/117 72/19/19 26/64/107
f 70/20/20 72/19/19 68/73/117 75/45/118
f 82/91/93 18/90/91 67/75/75 15/92/94
f 82/91/115 29/34/37 34/36/39 36/101/110
f 57/30/32 83/80/80 49/82/82
f 73/18/18 84/22/22 19/65/106
f 83/88/89 84/22/88 23/89/102 49/96/101
f 87/108/119 86/109/120 78/110/121
f 85/111/122 88/112/123 78/110/121
f 88/112/123 87/108/119 78/110/121
f 90/1/124 1/4/4 3/3/3 92/2/125
f 89/5/126 95/8/127 96/7/128 93/6/129
f 2/9/9 91/12/130 94/11/131 4/10/10
f 91/12/130 89/5/126 93/6/129 94/11/131
f 96/7/128 95/8/127 90/1/124 92/2/125
f 110/13/132 113/16/133 138/15/134 109/14/135
f 106/17/136 142/20/137 144/19/138 145/18/139
f 141/21/140 145/18/139 153/22/141
f 119/23/142 116/26/143 103/25/144 117/24/145
f 62/28/28 208/113/146 216/113/147
f 148/114/148 139/115/149 131/30/150
f 106/17/151 143/33/152 149/32/153
f 107/34/154 112/36/155 111/35/156
f 105/37/157 142/20/158 106/17/151
f 110/13/132 111/35/156 113/16/133
f 110/13/132 109/14/135 108/38/159
f 108/38/159 111/35/156 110/13/132
f 96/7/128 149/32/153 108/38/159 93/6/129
f 25/39/43 138/41/134 137/40/160
f 96/7/128 92/2/125 150/42/161 149/32/153
f 16/43/46 146/45/162 142/20/158 20/44/47
f 44/46/49 136/48/163 64/47/50
f 132/49/164 130/52/165 155/51/166 154/50/167
f 74/53/56 85/54/57 155/51/166 130/52/165
f 126/55/168 127/58/169 132/57/164 133/56/170
f 25/59/43 13/60/61 109/14/135 138/15/134
f 100/61/171 148/114/148 131/30/150
f 147/62/172 99/65/173 104/64/174 100/63/175
f 128/66/176 130/67/165 132/57/164
f 117/24/145 118/69/177 122/68/178 119/23/142
f 74/53/56 130/52/165 118/71/177 14/70/70
f 126/55/168 138/15/134 113/16/133 124/72/179
f 94/11/131 93/6/129 108/38/159 109/14/135
f 146/45/180 139/116/181 148/74/182 140/73/183
f 121/76/184 120/77/185 122/68/178
f 64/47/50 136/48/163 208/78/78
f 147/79/186 131/30/150 152/80/187
f 139/115/149 97/81/188 131/30/150
f 131/30/150 101/117/189 125/82/190
f 148/74/182 100/63/175 104/64/174 140/73/183
f 129/84/191 137/40/160 138/41/134
f 103/25/144 50/86/86 38/85/85 117/24/145
f 92/2/125 3/3/3 80/87/87 150/42/161
f 38/118/85 14/119/70 118/120/177
f 99/65/173 147/62/172 152/88/192 153/22/193
f 131/30/150 97/81/188 101/117/189
f 141/21/140 153/22/141 102/89/194
f 139/116/181 146/45/180 98/121/195
f 107/34/196 101/122/197 97/92/198 151/91/199
f 106/17/136 145/18/139 141/21/140 143/33/200
f 132/57/164 127/58/169 128/66/176
f 51/95/98 61/94/201 211/94/202 210/95/99
f 125/123/203 101/122/197 107/34/196 102/89/204
f 147/79/186 100/61/171 131/30/150
f 142/20/158 105/37/157 17/97/103 20/44/47
f 128/66/176 122/68/178 130/67/165
f 141/21/140 107/34/205 143/33/200
f 124/72/179 123/98/206 127/58/169 126/55/168
f 99/65/207 144/19/138 104/64/208
f 107/34/154 111/35/156 143/33/152
f 127/58/169 121/76/184 128/66/176
f 122/68/178 128/66/176 121/76/184
f 145/18/139 144/19/138 99/65/207
f 25/39/43 137/40/160 44/46/49
f 136/48/163 137/40/160 135/99/209
f 129/84/191 133/100/170 134/40/210
f 112/36/155 113/16/133 111/35/156
f 116/26/143 119/23/142 115/102/211 114/101/212
f 133/56/170 138/15/134 126/55/168
f 146/45/162 16/43/46 50/86/86 103/25/144
f 132/49/164 58/104/113 51/103/112 134/40/210
f 120/77/185 115/102/211 119/23/142 122/68/178
f 120/77/185 123/98/206 124/72/179
f 143/33/152 111/35/156 108/38/159
f 121/76/184 127/58/169 123/98/206
f 116/26/143 114/101/212 151/91/213 98/121/214
f 129/84/191 135/99/209 137/40/160
f 107/34/205 141/21/140 102/89/194
f 133/100/170 129/84/191 138/41/134
f 133/100/170 132/49/164 134/40/210
f 120/77/185 121/76/184 123/98/206
f 58/104/113 132/49/164 154/50/167 86/104/116
f 13/60/61 4/10/10 94/11/131 109/14/135
f 80/87/87 17/97/103 105/37/157 150/42/161
f 150/42/161 105/37/157 106/17/151 149/32/153
f 149/32/153 143/33/152 108/38/159
f 103/25/144 116/26/143 98/121/214 146/45/162
f 136/105/163 135/107/209 208/106/78
f 44/46/49 137/40/160 136/48/163
f 130/67/165 122/68/178 118/69/177
f 124/72/179 113/16/133 112/36/155 120/77/185
f 112/36/155 114/101/212 115/102/211 120/77/185
f 140/73/215 104/64/208 144/19/138
f 142/20/137 146/45/216 140/73/215 144/19/138
f 151/91/199 97/92/198 139/116/181 98/121/195
f 151/91/213 114/101/212 112/36/155 107/34/154
f 131/30/150 125/82/190 152/80/187
f 145/18/139 99/65/207 153/22/141
f 152/88/192 125/123/203 102/89/204 153/22/193
f 154/108/217 78/110/121 86/109/120
f 85/111/122 78/110/121 155/112/218
f 155/112/218 78/110/121 154/108/217
f 165/124/219 169/125/220 156/126/221 161/127/222
f 171/128/223 159/129/224 156/126/221 169/125/220
f 160/130/225 161/127/222 156/126/221 159/129/224
f 171/128/223 172/131/226 157/132/227 159/129/224
f 170/133/228 158/134/229 157/132/227 172/131/226
f 160/130/225 159/129/224 157/132/227 158/134/229
f 165/124/219 161/127/222 162/135/230 175/136/231
f 160/130/225 164/137/232 162/135/230 161/127/222
f 178/138/233 175/136/231 162/135/230 164/137/232
f 170/133/228 181/139/234 163/140/235 158/134/229
f 178/138/233 164/137/232 163/140/235 181/139/234
f 160/130/225 158/134/229 163/140/235 164/137/232
f 165/124/219 177/141/236 167/142/237 169/125/220
f 166/143/238 168/144/239 167/142/237 177/141/236
f 171/128/223 169/125/220 167/142/237 168/144/239
f 170/133/228 172/131/226 173/145/240 174/146/241
f 171/128/223 168/144/239 173/145/240 172/131/226
f 166/143/238 174/146/241 173/145/240 168/144/239
f 165/124/219 175/136/231 176/147/242 177/141/236
f 178/138/233 180/148/243 176/147/242 175/136/231
f 166/143/238 177/141/236 176/147/242 180/148/243
f 170/133/228 174/146/241 179/149/244 181/139/234
f 166/143/238 180/148/243 179/149/244 174/146/241
f 178/138/233 181/139/234 179/149/244 180/148/243
f 191/124/245 195/125/246 182/126/247 187/127/248
f 197/128/249 185/129/250 182/126/247 195/125/246
f 186/130/251 187/127/248 182/126/247 185/129/250
f 197/128/249 198/131/252 183/132/253 185/129/250
f 196/133/254 184/134/255 183/132/253 198/131/252
f 186/130/251 185/129/250 183/132/253 184/134/255
f 191/124/245 187/127/248 188/135/256 201/136/257
f 186/130/251 190/137/258 188/135/256 187/127/248
f 204/138/259 201/136/257 188/135/256 190/137/258
f 196/133/254 207/139/260 189/140/261 184/134/255
f 204/138/259 190/137/258 189/140/261 207/139/260
f 186/130/251 184/134/255 189/140/261 190/137/258
f 191/124/245 203/141/262 193/142/263 195/125/246
f 192/143/264 194/144/265 193/142/263 203/141/262
f 197/128/249 195/125/246 193/142/263 194/144/265
f 196/133/254 198/131/252 199/145/266 200/146/267
f 197/128/249 194/144/265 199/145/266 198/131/252
f 192/143/264 200/146/267 199/145/266 194/144/265
f 191/124/245 201/136/257 202/147/268 203/141/262
f 204/138/259 206/148/269 202/147/268 201/136/257
f 192/143/264 203/141/262 202/147/268 206/148/269
f 196/133/254 200/146/267 205/149/270 207/139/260
f 192/143/264 206/148/269 205/149/270 200/146/267
f 204/138/259 207/139/260 205/149/270 206/148/269
f 129/27/271 134/94/97 214/94/100 213/27/272
f 135/28/273 129/27/274 213/27/275 215/28/276
f 61/94/201 55/27/277 209/27/278 211/94/202
f 135/28/273 215/28/276 216/113/147
f 214/94/100 210/95/99 218/95/279 222/94/280
f 215/28/276 213/27/275 221/27/281 223/28/282
f 210/95/99 211/94/202 219/94/283 218/95/279
f 212/28/29 216/113/147 224/113/284 220/28/285
f 211/94/202 209/27/278 217/27/286
f 209/27/30 212/28/29 220/28/285 217/27/286
f 214/94/100 222/94/280 221/27/281
f 216/113/147 215/28/276 223/28/282 224/113/284
f 224/113/284 223/28/282 222/94/280 218/95/279
f 222/94/280 223/28/282 221/27/281
f 218/95/279 219/94/283 220/28/285 224/113/284
f 219/94/283 217/27/286 220/28/285
f 213/27/272 214/94/100 221/27/281
f 219/94/283 211/94/202 217/27/286
f 212/28/29 62/28/28 216/113/147
f 208/113/146 135/28/273 216/113/147
f 117/24/145 38/85/85 118/69/177
f 14/119/70 38/118/85 41/120/69
