# Blender 4.5.3 LTS
# www.blender.org
mtllib Cristal4.mtl
o Plano.010
v -1.500000 18.269997 -26.500000
v -1.500000 7.489997 -26.500000
v -1.500000 18.269997 -33.500000
v -1.500000 7.489997 -33.500000
vn 1.0000 -0.0000 -0.0000
vt 0.000000 0.000000
vt 1.000000 0.000000
vt 1.000000 1.000000
vt 0.000000 1.000000
s 0
usemtl Cristal.002
f 1/1/1 2/2/1 4/3/1 3/4/1
o Plano.009
v -1.500000 18.269997 -34.500000
v -1.500000 7.489997 -34.500000
v -1.500000 18.269997 -38.000000
v -1.500000 7.489997 -38.000000
vn 1.0000 -0.0000 -0.0000
vt 0.000000 0.000000
vt 1.000000 0.000000
vt 1.000000 1.000000
vt 0.000000 1.000000
s 0
usemtl Cristal.001
f 5/5/2 6/6/2 8/7/2 7/8/2
o Plano.008
v -1.500000 18.269997 -22.000000
v -1.500000 7.489997 -22.000000
v -1.500000 18.269997 -25.500000
v -1.500000 7.489997 -25.500000
vn 1.0000 -0.0000 -0.0000
vt 0.000000 0.000000
vt 1.000000 0.000000
vt 1.000000 1.000000
vt 0.000000 1.000000
s 0
usemtl Cristal
f 9/9/3 10/10/3 12/11/3 11/12/3
