# Blender 4.5.3 LTS
# www.blender.org
mtllib Cristal2.mtl
o Ventana2
v 24.250000 1.500000 -46.000000
v 27.250000 1.500000 -46.000000
v 24.250000 3.020000 -46.000000
v 27.250000 3.020000 -46.000000
vn -0.0000 -0.0000 1.0000
vt 0.000000 0.000000
vt 1.000000 0.000000
vt 1.000000 1.000000
vt 0.000000 1.000000
s 0
usemtl Vidrio2
f 1/1/1 2/2/1 4/3/1 3/4/1
o Ventana1
v 16.750000 1.500000 -46.000000
v 19.750000 1.500000 -46.000000
v 16.750000 3.020000 -46.000000
v 19.750000 3.020000 -46.000000
vn -0.0000 -0.0000 1.0000
vt 0.000000 0.000000
vt 1.000000 0.000000
vt 1.000000 1.000000
vt 0.000000 1.000000
s 0
usemtl Vidrio1
f 5/5/2 6/6/2 8/7/2 7/8/2
o PuertaCristal.001
v 22.000000 0.000000 -46.000000
v 23.500000 0.000000 -46.000000
v 22.000000 3.000000 -46.000000
v 23.500000 3.000000 -46.000000
vn -0.0000 -0.0000 1.0000
vt 0.000000 0.000000
vt 1.000000 0.000000
vt 1.000000 1.000000
vt 0.000000 1.000000
s 0
usemtl Vidrio1.002
f 9/9/3 10/10/3 12/11/3 11/12/3
o PuertaCristal
v 20.500000 0.000000 -46.000000
v 22.000000 0.000000 -46.000000
v 20.500000 3.000000 -46.000000
v 22.000000 3.000000 -46.000000
vn -0.0000 -0.0000 1.0000
vt 0.000000 0.000000
vt 1.000000 0.000000
vt 1.000000 1.000000
vt 0.000000 1.000000
s 0
usemtl Vidrio1.001
f 13/13/4 14/14/4 16/15/4 15/16/4
