# Blender 5.0.0
# www.blender.org
mtllib heliProp.mtl
o Cube.006
v 0.011921 6.406096 1.329886
v -0.481821 6.406096 0.910330
v -0.062265 6.406096 0.416588
v 0.431477 6.406096 0.836144
v 0.011921 7.665436 1.329886
v -0.481821 7.665436 0.910330
v -0.062265 7.665436 0.416588
v 0.431477 7.665436 0.836144
v 0.390820 6.537768 0.801597
v -0.021609 6.537768 0.451136
v 0.112694 7.405358 0.448485
v 0.370025 7.377783 0.670009
v -0.441165 6.537768 0.944878
v -0.028736 6.537768 1.295339
v -0.161954 7.377783 1.296053
v -0.422106 7.405358 1.077848
v 0.046468 6.537768 1.289230
v 0.396929 6.537768 0.876801
v 0.396929 7.417118 0.876801
v 0.046468 7.417118 1.289230
v -0.096813 6.537768 0.457245
v -0.447274 6.537768 0.869674
v -0.447274 7.417118 0.869674
v -0.096813 7.417118 0.457245
v 1.971165 6.874055 -1.763124
v 2.269730 7.002301 -1.564255
v 2.284037 7.080832 -1.557255
v 1.985472 6.952585 -1.756125
v -2.035816 7.002301 3.502597
v -2.334381 6.874055 3.303728
v -2.320074 6.952585 3.310727
v -2.021509 7.080832 3.509597
v 2.623052 7.000232 2.937438
v 2.363840 6.884543 3.122836
v 2.393456 6.954654 3.114582
v 2.652668 7.070343 2.929184
v -2.703012 6.884543 -1.182710
v -2.443800 7.000232 -1.368109
v -2.414184 7.070343 -1.376362
v -2.673396 6.954654 -1.190964
v -0.049741 7.665436 0.570775
v -0.327635 7.665436 0.897806
v -0.000604 7.665436 1.175700
v 0.277290 7.665436 0.848669
v -0.227711 8.060740 0.889689
v -0.041624 8.060740 0.670698
v 0.177367 8.060740 0.856785
v -0.008720 8.060740 1.075776
v -0.955830 7.126256 2.010648
v -0.948617 6.948432 2.129472
v -0.998348 7.043468 1.969062
v -1.112659 6.842626 1.990078
v 1.216184 7.115435 1.810907
v 1.221590 6.953403 1.811116
v 1.098387 7.001483 1.949533
v 1.103792 6.839451 1.949743
v 0.947127 7.126256 -0.228789
v 0.899224 7.043468 -0.264039
v 0.901515 6.842626 -0.380243
v 1.065557 6.948432 -0.240849
v -1.148732 6.953403 -0.203058
v -1.154137 7.115435 -0.203268
v -1.271934 7.001483 -0.064642
v -1.266529 6.839451 -0.064432
v 0.019823 6.321637 1.427174
v -0.579109 6.321637 0.918233
v -0.070168 6.321637 0.319301
v 0.528764 6.321637 0.828242
v 0.019823 6.180844 1.427174
v -0.579109 6.180844 0.918233
v -0.070168 6.180844 0.319301
v 0.528764 6.180844 0.828242
v 0.019823 5.935264 1.427174
v -0.579109 5.935264 0.918233
v -0.070168 5.935264 0.319301
v 0.528764 5.935264 0.828242
v -0.021609 7.417118 0.451136
v 0.390820 7.417118 0.801597
v -0.028736 7.417118 1.295339
v -0.441165 7.417118 0.944878
v 0.898273 7.006454 -0.382998
v -0.951860 7.112260 2.126717
v -1.115902 7.006454 1.987322
v 1.062315 7.112260 -0.243604
v 0.110720 7.358876 0.456044
v 0.368051 7.331301 0.677569
v -0.154812 7.331301 1.292885
v -0.414964 7.358876 1.074680
v 0.897250 6.996985 -0.256479
v -0.948688 7.079774 2.007480
v -0.991206 6.996985 1.965894
v 0.945153 7.079774 -0.221230
v -0.641990 6.811544 1.851428
v -0.335363 6.674656 1.573383
v -0.888828 6.741007 1.641678
v -0.664996 6.639387 1.293278
v -0.336444 7.315499 1.572465
v -0.644152 7.213879 1.849591
v -0.666077 7.280230 1.292359
v -0.890989 7.143342 1.639841
v -0.426579 7.293941 1.534251
v -0.691205 7.210098 1.772450
v -0.614187 7.284728 1.374919
v -0.806267 7.164098 1.671991
v -0.419438 7.247458 1.531083
v -0.684063 7.163616 1.769282
v -0.607045 7.238246 1.371751
v -0.799126 7.117616 1.668823
v 0.592294 7.143052 -0.105541
v 0.285666 7.279941 0.172504
v 0.841120 6.811833 0.105899
v 0.616208 6.674946 0.453381
v 0.615125 7.315284 0.452460
v 0.838957 7.213665 0.104060
v 0.286750 6.639603 0.173424
v 0.594458 6.741221 -0.103702
v 0.637601 7.163843 -0.027033
v 0.375425 7.284473 0.210475
v 0.562799 7.293763 0.369777
v 0.755166 7.209921 0.070177
v 0.635628 7.117361 -0.019474
v 0.373451 7.237991 0.218034
v 0.560825 7.247281 0.377336
v 0.753193 7.163439 0.077736
v -0.506481 7.540880 1.598292
v -0.692933 7.492036 1.744870
v -0.660058 7.537849 1.468368
v -0.807583 7.446220 1.643927
v 0.609627 7.445960 -0.023857
v 0.460178 7.537611 0.150064
v 0.613038 7.540696 0.280531
v 0.727603 7.491853 0.072867
v -0.531738 7.705265 1.609496
v -0.718190 7.656422 1.756073
v -0.685315 7.702235 1.479572
v -0.832840 7.610606 1.655130
v 0.616572 7.610342 -0.050620
v 0.467123 7.701993 0.123301
v 0.619983 7.705079 0.253768
v 0.734548 7.656236 0.046104
v -0.187513 7.757418 0.908733
v -0.033937 7.760448 1.038656
v 0.136991 7.760255 0.837192
v -0.015869 7.757170 0.706725
v -0.212770 7.921803 0.919936
v -0.059194 7.924834 1.049860
v 0.143936 7.924638 0.810429
v -0.008924 7.921553 0.679962
v 3.222203 6.809265 -3.415240
v 3.707868 7.017879 -3.091746
v 3.731140 7.145621 -3.080360
v 3.245476 6.937008 -3.403854
v -3.295816 7.017879 5.150329
v -3.781481 6.809265 4.826835
v -3.758208 6.937008 4.838221
v -3.272543 7.145621 5.161715
v 4.282605 7.014513 4.231003
v 3.860954 6.826326 4.532584
v 3.909129 6.940372 4.519157
v 4.330781 7.128560 4.217578
v -4.381122 6.826326 -2.471100
v -3.959470 7.014513 -2.772681
v -3.911294 7.128560 -2.786106
v -4.332945 6.940372 -2.484526
v 5.396578 6.696655 -6.286714
v 6.207435 7.044952 -5.746615
v 6.246289 7.258230 -5.727604
v 5.435435 6.909933 -6.267705
v -5.485771 7.044952 8.014181
v -6.296627 6.696655 7.474083
v -6.257771 6.909933 7.493092
v -5.446914 7.258230 8.033189
v 7.167003 7.039334 6.479294
v 6.463022 6.725142 6.982807
v 6.543456 6.915551 6.960392
v 7.247436 7.229744 6.456879
v -7.297774 6.725142 -4.710398
v -6.593793 7.039334 -5.213911
v -6.513360 7.229744 -5.236326
v -7.217340 6.915551 -4.732813
v 5.633893 6.922774 -6.635145
v 6.444751 7.271070 -6.095046
v 6.483605 7.484348 -6.076035
v 5.672750 7.136051 -6.616136
v -5.723086 7.238978 8.362612
v -6.533942 6.890681 7.822512
v -6.495086 7.103959 7.841522
v -5.684229 7.452256 8.381619
v 7.420050 7.353544 6.789149
v 6.716070 7.039351 7.292662
v 6.796503 7.229760 7.270246
v 7.500483 7.543953 6.766733
v -7.550820 6.983976 -5.020251
v -6.846840 7.298170 -5.523764
v -6.766406 7.488579 -5.546178
v -7.470387 7.174386 -5.042665
vn 0.5901 0.6328 0.5014
vn 0.7501 0.1765 0.6374
vn 0.6177 -0.0929 -0.7809
vn -0.2741 0.9245 -0.2649
vn 0.6719 -0.0968 -0.7343
vn 0.7865 -0.0467 0.6159
vn 0.6475 -0.0000 -0.7620
vn -0.6475 -0.0000 0.7620
vn 0.7620 -0.0000 0.6475
vn -0.7620 -0.0000 -0.6475
vn 0.5815 -0.3330 -0.7423
vn -0.7782 0.1950 -0.5969
vn -0.6351 0.3494 0.6889
vn 0.7157 -0.1903 0.6719
vn -0.3034 0.9258 -0.2257
vn -0.6177 0.0929 0.7809
vn -0.2560 0.9039 0.3427
vn -0.2926 0.9071 0.3024
vn 0.3034 -0.9258 0.2257
vn 0.2741 -0.9245 0.2649
vn 0.7354 -0.0454 0.6761
vn 0.2926 -0.9071 -0.3024
vn -0.7354 0.0454 -0.6761
vn 0.2560 -0.9039 -0.3427
vn -0.7865 0.0467 -0.6159
vn -0.6719 0.0968 0.7343
vn -0.0000 1.0000 -0.0000
vn 0.6374 0.1765 -0.7501
vn -0.6374 0.1765 0.7501
vn -0.7501 0.1765 -0.6374
vn -0.8401 -0.0124 -0.5423
vn 0.0563 -0.9163 0.3965
vn 0.5401 0.1395 -0.8300
vn 0.6708 0.0124 0.7415
vn -0.5308 -0.0026 0.8475
vn 0.3071 -0.9495 0.0646
vn 0.1141 0.9492 0.2932
vn 0.7507 0.0038 -0.6607
vn -0.6708 -0.0124 -0.7415
vn 0.8401 0.0124 0.5423
vn 0.4006 -0.9162 -0.0083
vn -0.7319 0.1395 0.6669
vn -0.1141 -0.9492 -0.2932
vn -0.3071 0.9495 -0.0646
vn -0.7507 -0.0038 0.6607
vn 0.5308 0.0026 -0.8475
vn -0.5901 0.6328 -0.5014
vn 0.5014 0.6328 -0.5901
vn -0.5014 0.6328 0.5901
vn -0.0000 -1.0000 -0.0000
vn 0.2041 0.9598 -0.1927
vn -0.1573 0.9598 0.2325
vn 0.1453 0.9398 -0.3092
vn -0.2167 0.9702 0.1085
vn -0.3472 0.9264 0.1455
vn -0.5724 0.7999 -0.1802
vn 0.0021 0.9618 -0.2739
vn -0.2703 0.7999 -0.5358
vn -0.5429 0.8268 -0.1474
vn -0.2336 0.8265 -0.5123
vn -0.6593 -0.0502 -0.7502
vn -0.6446 -0.1501 0.7496
vn -0.8467 -0.0502 -0.5296
vn 0.8200 0.0874 0.5657
vn 0.6906 0.0874 0.7179
vn 0.6357 -0.1501 -0.7572
vn -0.1569 0.9598 0.2328
vn -0.6166 0.3415 0.7094
vn -0.2817 0.9398 0.1933
vn -0.3149 0.9339 0.1694
vn -0.2700 0.9618 0.0463
vn -0.2436 0.9668 0.0774
vn 0.6705 0.0009 0.7419
vn 0.6706 0.0040 0.7418
vn -0.1540 -0.9597 0.2350
vn -0.0775 -0.9518 0.2968
vn -0.8404 -0.0009 -0.5420
vn -0.8403 -0.0040 -0.5421
vn 0.2043 0.9598 -0.1925
vn -0.6674 0.0382 0.7438
vn 0.0722 0.9702 -0.2313
vn 0.0371 0.9668 -0.2529
vn 0.0876 0.9264 -0.3661
vn 0.1164 0.9339 -0.3380
vn 0.2071 -0.9597 -0.1899
vn 0.2806 -0.9518 -0.1242
vn 0.8404 0.0009 0.5420
vn 0.8403 0.0041 0.5421
vn -0.6705 -0.0009 -0.7419
vn -0.6706 -0.0041 -0.7418
vn 0.7716 0.0703 0.6322
vn -0.7456 -0.0694 -0.6628
vn -0.8094 -0.0122 -0.5871
vn 0.6404 0.0460 0.7666
vn 0.6262 0.0382 -0.7787
vn 0.6006 0.3416 -0.7229
vn 0.8600 0.0463 0.5082
vn -0.7101 -0.0124 -0.7040
vn -0.2804 0.9518 0.1244
vn 0.0771 0.9517 -0.2971
vn -0.7745 -0.0697 -0.6288
vn -0.1752 -0.9578 0.2279
vn 0.6110 0.0400 0.7906
vn 0.6608 -0.1477 -0.7359
vn 0.8789 0.0403 0.4754
vn -0.6196 -0.1477 0.7708
vn -0.6437 0.1494 0.7506
vn 0.6369 0.1494 -0.7563
vn 0.1965 -0.9578 -0.2099
vn 0.1752 0.9578 -0.2279
vn 0.7485 0.0701 0.6595
vn -0.1965 0.9578 0.2099
vn -0.7716 -0.0703 -0.6322
vn -0.7485 -0.0701 -0.6595
vn -0.7157 0.1903 -0.6719
vn 0.2322 -0.9372 -0.2601
vn 0.2639 -0.9412 0.2107
vn -0.2322 0.9372 0.2601
vn -0.2639 0.9412 -0.2107
vn 0.6351 -0.3494 -0.6889
vn 0.7782 -0.1950 0.5969
vn -0.5815 0.3330 0.7423
vn -0.2522 0.9405 -0.2279
vn 0.2522 -0.9405 0.2279
vn -0.2217 0.9358 0.2740
vn 0.2217 -0.9358 -0.2740
vn -0.4990 0.8417 0.2064
vn 0.8655 -0.4010 -0.3002
vn -0.8652 0.1987 -0.4604
vn -0.8655 0.4009 0.3002
vn 0.5627 -0.0289 -0.8262
vn -0.5627 0.0289 0.8262
vn 0.6230 -0.1733 0.7628
vn -0.6230 0.1734 -0.7628
vn -0.5647 0.7636 -0.3131
vn 0.0348 -0.8629 0.5042
vn -0.0758 -0.7949 -0.6020
vn -0.7574 0.1936 -0.6236
vn 0.5761 -0.3313 -0.7472
vn 0.7574 -0.1936 0.6236
vn -0.5761 0.3313 0.7472
vn -0.0348 0.8629 -0.5042
vn 0.4990 -0.8417 -0.2064
vn 0.0758 0.7949 0.6020
vn 0.5647 -0.7636 0.3131
vn 0.8652 -0.1987 0.4604
vt 0.849213 0.120310
vt 0.536713 0.411071
vt 0.849213 0.120310
vt 0.849213 0.120310
vt 0.849212 0.120310
vt 0.849213 0.120310
vt 0.849213 0.120310
vt 0.849212 0.120310
vt 0.849212 0.120310
vt 0.849212 0.120310
vt 0.849212 0.120310
vt 0.849212 0.120310
vt 0.849212 0.120310
vt 0.849212 0.120310
vt 0.849212 0.120310
vt 0.849213 0.120310
s 0
usemtl Material.001
f 4/1/1 1/1/1 65/1/1 68/1/1
f 43/2/2 44/2/2 47/2/2 48/2/2
f 54/1/3 53/1/3 36/1/3 33/1/3
f 81/1/4 84/1/4 27/1/4 28/1/4
f 62/1/5 61/1/5 38/1/5 39/1/5
f 50/1/6 82/1/6 32/1/6 29/1/6
f 4/1/7 3/1/7 10/1/7 9/1/7
f 3/1/7 7/1/7 77/1/7 10/1/7
f 7/1/7 8/1/7 78/1/7 77/1/7
f 8/1/7 4/1/7 9/1/7 78/1/7
f 2/1/8 1/1/8 14/1/8 13/1/8
f 1/1/8 5/1/8 79/1/8 14/1/8
f 5/1/8 6/1/8 80/1/8 79/1/8
f 6/1/8 2/1/8 13/1/8 80/1/8
f 1/1/9 4/1/9 18/1/9 17/1/9
f 4/1/9 8/1/9 19/1/9 18/1/9
f 8/1/9 5/1/9 20/1/9 19/1/9
f 5/1/9 1/1/9 17/1/9 20/1/9
f 3/1/10 2/1/10 22/1/10 21/1/10
f 2/1/10 6/1/10 23/1/10 22/1/10
f 6/1/10 7/1/10 24/1/10 23/1/10
f 7/1/10 3/1/10 21/1/10 24/1/10
f 33/1/11 36/1/11 160/1/11 157/1/11
f 25/1/12 28/1/12 152/1/12 149/1/12
f 35/1/13 34/1/13 158/1/13 159/1/13
f 27/1/14 26/1/14 150/1/14 151/1/14
f 82/1/15 83/1/15 31/1/15 32/1/15
f 64/1/16 63/1/16 40/1/16 37/1/16
f 53/1/17 55/1/17 35/1/17 36/1/17
f 63/1/18 62/1/18 39/1/18 40/1/18
f 60/1/19 59/1/19 25/1/19 26/1/19
f 52/1/20 50/1/20 29/1/20 30/1/20
f 84/1/21 60/1/21 26/1/21 27/1/21
f 56/1/22 54/1/22 33/1/22 34/1/22
f 83/1/23 52/1/23 30/1/23 31/1/23
f 61/1/24 64/1/24 37/1/24 38/1/24
f 59/1/25 81/1/25 28/1/25 25/1/25
f 55/1/26 56/1/26 34/1/26 35/1/26
f 7/1/27 6/1/27 42/1/27 41/1/27
f 6/1/27 5/1/27 43/1/27 42/1/27
f 5/1/27 8/1/27 44/1/27 43/1/27
f 8/1/27 7/1/27 41/1/27 44/1/27
f 46/2/27 45/2/27 48/2/27 47/2/27
f 44/2/28 41/2/28 46/2/28 47/2/28
f 42/2/29 43/2/29 48/2/29 45/2/29
f 41/2/30 42/2/30 45/2/30 46/2/30
f 100/3/31 95/4/31 52/1/31 83/1/31
f 95/4/32 93/5/32 50/1/32 52/1/32
f 51/1/33 49/6/33 90/6/33 91/1/33
f 93/5/34 98/6/34 82/1/34 50/1/34
f 20/1/35 17/1/35 56/1/35 55/1/35
f 17/1/36 18/1/36 54/1/36 56/1/36
f 19/1/37 20/1/37 55/1/37 53/1/37
f 18/1/38 19/1/38 53/1/38 54/1/38
f 116/6/39 109/6/39 81/1/39 59/1/39
f 114/6/40 111/6/40 60/1/40 84/1/40
f 111/6/41 116/6/41 59/1/41 60/1/41
f 57/7/42 58/3/42 89/3/42 92/7/42
f 21/1/43 22/1/43 64/1/43 61/1/43
f 23/1/44 24/1/44 62/1/44 63/1/44
f 22/1/45 23/1/45 63/1/45 64/1/45
f 24/1/46 21/1/46 61/1/46 62/1/46
f 68/1/9 65/1/9 69/1/9 72/1/9
f 2/1/47 3/1/47 67/1/47 66/1/47
f 3/1/48 4/1/48 68/1/48 67/1/48
f 1/1/49 2/1/49 66/1/49 65/1/49
f 72/1/9 69/1/9 73/1/9 76/1/9
f 66/1/10 67/1/10 71/1/10 70/1/10
f 67/1/7 68/1/7 72/1/7 71/1/7
f 65/1/8 66/1/8 70/1/8 69/1/8
f 75/1/50 76/1/50 73/1/50 74/1/50
f 70/1/10 71/1/10 75/1/10 74/1/10
f 71/1/7 72/1/7 76/1/7 75/1/7
f 69/1/8 70/1/8 74/1/8 73/1/8
f 12/8/51 11/6/51 77/1/51 78/1/51
f 16/1/52 15/9/52 79/1/52 80/1/52
f 117/3/53 58/3/53 81/1/53 109/6/53
f 102/10/54 49/6/54 82/1/54 98/6/54
f 103/6/55 16/1/55 80/1/55 99/11/55
f 49/6/56 51/1/56 83/1/56 82/1/56
f 119/8/57 12/8/57 78/1/57 113/5/57
f 58/3/58 57/7/58 84/1/58 81/1/58
f 106/12/59 108/13/59 91/1/59 90/6/59
f 121/6/60 124/8/60 92/7/60 89/3/60
f 101/14/61 15/9/61 87/9/61 105/10/61
f 15/9/62 16/1/62 88/1/62 87/9/62
f 120/15/63 57/7/63 92/7/63 124/8/63
f 104/11/64 51/1/64 91/1/64 108/13/64
f 118/1/65 11/6/65 85/6/65 122/6/65
f 11/6/66 12/8/66 86/8/66 85/6/66
f 16/1/64 103/6/64 107/6/64 88/1/64
f 103/6/64 104/11/64 108/13/64 107/6/64
f 49/6/61 102/10/61 106/12/61 90/6/61
f 102/10/61 101/14/61 105/10/61 106/12/61
f 87/9/67 88/1/67 107/6/67 105/10/67
f 122/6/68 123/8/68 131/8/68 130/6/68
f 51/1/69 104/11/69 100/3/69 83/1/69
f 104/11/70 103/6/70 99/11/70 100/3/70
f 15/9/71 101/14/71 97/6/71 79/1/71
f 101/14/72 102/10/72 98/6/72 97/6/72
f 14/1/73 79/1/73 97/6/73 94/11/73
f 94/11/74 97/6/74 98/6/74 93/5/74
f 13/1/75 14/1/75 94/11/75 96/16/75
f 96/16/76 94/11/76 93/5/76 95/4/76
f 80/1/77 13/1/77 96/16/77 99/11/77
f 99/11/78 96/16/78 95/4/78 100/3/78
f 58/3/65 117/3/65 121/6/65 89/3/65
f 117/3/65 118/1/65 122/6/65 121/6/65
f 12/8/63 119/8/63 123/8/63 86/8/63
f 119/8/63 120/15/63 124/8/63 123/8/63
f 85/6/79 86/8/79 123/8/79 122/6/79
f 108/13/80 106/12/80 126/12/80 128/13/80
f 57/7/81 120/15/81 114/6/81 84/1/81
f 120/15/82 119/8/82 113/5/82 114/6/82
f 11/6/83 118/1/83 110/13/83 77/1/83
f 118/1/84 117/3/84 109/6/84 110/13/84
f 9/1/85 10/1/85 115/6/85 112/12/85
f 112/12/86 115/6/86 116/6/86 111/6/86
f 78/1/87 9/1/87 112/12/87 113/5/87
f 113/5/88 112/12/88 111/6/88 114/6/88
f 10/1/89 77/1/89 110/13/89 115/6/89
f 115/6/90 110/13/90 109/6/90 116/6/90
f 131/8/91 139/8/91 147/8/91 143/8/91
f 127/6/92 128/13/92 136/13/92 135/6/92
f 107/6/93 108/13/93 128/13/93 127/6/93
f 106/12/94 105/10/94 125/10/94 126/12/94
f 124/8/95 121/6/95 129/6/95 132/8/95
f 105/10/96 107/6/96 127/6/96 125/10/96
f 123/8/97 124/8/97 132/8/97 131/8/97
f 121/6/98 122/6/98 130/6/98 129/6/98
f 133/10/99 135/6/99 136/13/99 134/12/99
f 138/6/100 139/8/100 140/8/100 137/6/100
f 129/6/101 130/6/101 138/6/101 137/6/101
f 130/6/102 131/8/102 143/8/102 144/6/102
f 126/12/103 125/10/103 133/10/103 134/12/103
f 132/8/104 129/6/104 137/6/104 140/8/104
f 131/8/105 132/8/105 140/8/105 139/8/105
f 128/13/106 126/12/106 134/12/106 136/13/106
f 144/6/107 143/8/107 147/8/107 148/6/107
f 142/10/108 141/6/108 145/6/108 146/10/108
f 125/10/109 127/6/109 141/6/109 142/10/109
f 139/8/110 138/6/110 148/6/110 147/8/110
f 133/10/111 125/10/111 142/10/111 146/10/111
f 135/6/112 133/10/112 146/10/112 145/6/112
f 138/6/113 130/6/113 144/6/113 148/6/113
f 127/6/114 135/6/114 145/6/114 141/6/114
f 155/1/115 154/1/115 170/1/115 171/1/115
f 162/1/116 161/1/116 177/1/116 178/1/116
f 154/1/117 153/1/117 169/1/117 170/1/117
f 160/1/118 159/1/118 175/1/118 176/1/118
f 28/1/119 27/1/119 151/1/119 152/1/119
f 36/1/118 35/1/118 159/1/118 160/1/118
f 30/1/117 29/1/117 153/1/117 154/1/117
f 38/1/116 37/1/116 161/1/116 162/1/116
f 31/1/115 30/1/115 154/1/115 155/1/115
f 39/1/120 38/1/120 162/1/120 163/1/120
f 29/1/121 32/1/121 156/1/121 153/1/121
f 37/1/122 40/1/122 164/1/122 161/1/122
f 32/1/123 31/1/123 155/1/123 156/1/123
f 26/1/124 25/1/124 149/1/124 150/1/124
f 40/1/125 39/1/125 163/1/125 164/1/125
f 34/1/126 33/1/126 157/1/126 158/1/126
f 168/1/127 167/1/127 183/1/127 184/1/127
f 173/1/128 176/1/128 192/1/128 189/1/128
f 165/1/129 168/1/129 184/1/129 181/1/129
f 175/1/130 174/1/130 190/1/130 191/1/130
f 163/1/120 162/1/120 178/1/120 179/1/120
f 153/1/121 156/1/121 172/1/121 169/1/121
f 161/1/122 164/1/122 180/1/122 177/1/122
f 156/1/123 155/1/123 171/1/123 172/1/123
f 150/1/124 149/1/124 165/1/124 166/1/124
f 164/1/125 163/1/125 179/1/125 180/1/125
f 158/1/126 157/1/126 173/1/126 174/1/126
f 151/1/14 150/1/14 166/1/14 167/1/14
f 159/1/13 158/1/13 174/1/13 175/1/13
f 149/1/12 152/1/12 168/1/12 165/1/12
f 157/1/11 160/1/11 176/1/11 173/1/11
f 152/1/119 151/1/119 167/1/119 168/1/119
f 182/1/131 181/1/131 184/1/131 183/1/131
f 186/1/132 185/1/132 188/1/132 187/1/132
f 190/1/133 189/1/133 192/1/133 191/1/133
f 194/1/134 193/1/134 196/1/134 195/1/134
f 176/1/135 175/1/135 191/1/135 192/1/135
f 170/1/136 169/1/136 185/1/136 186/1/136
f 178/1/137 177/1/137 193/1/137 194/1/137
f 171/1/138 170/1/138 186/1/138 187/1/138
f 179/1/139 178/1/139 194/1/139 195/1/139
f 169/1/140 172/1/140 188/1/140 185/1/140
f 177/1/141 180/1/141 196/1/141 193/1/141
f 172/1/142 171/1/142 187/1/142 188/1/142
f 166/1/143 165/1/143 181/1/143 182/1/143
f 180/1/144 179/1/144 195/1/144 196/1/144
f 174/1/145 173/1/145 189/1/145 190/1/145
f 167/1/146 166/1/146 182/1/146 183/1/146
