# Blender 5.0.0
# www.blender.org
mtllib lostGirlBody.mtl
o Cube.010
v -0.597352 4.261987 -0.351304
v -0.629201 4.249745 0.256127
v -0.716566 4.348714 -0.052759
v -0.484910 4.949007 -0.174798
v -0.503441 4.886188 0.474569
v -0.618773 4.789236 0.037456
v -0.452714 3.699573 -0.238269
v -0.449235 3.555819 0.505636
v -0.601764 3.678100 0.106312
v -0.698940 3.849037 -0.377454
v -0.818714 3.896219 0.157472
v -0.620605 3.651208 0.652384
v -0.475814 5.560513 0.022143
v -0.466220 5.222576 0.434051
v -0.511998 5.608056 0.321915
v -0.140186 5.499906 0.412975
v -0.196237 5.632912 0.285704
v -0.244153 5.593667 0.487382
v -0.290559 5.632288 0.402118
v -0.148299 5.410602 0.602390
v -0.167536 5.460764 0.505975
v -0.872525 5.333913 0.093957
v -0.575725 5.115287 0.464108
v -0.733126 5.471393 0.277946
v -0.800952 4.798315 0.036253
v -0.580440 4.852547 0.289946
v -0.629991 4.786016 0.155414
v -1.017448 4.496765 0.624306
v -0.672039 4.461809 0.567681
v -0.874078 4.593292 0.629113
v -0.876651 4.112470 0.387824
v -0.570660 4.283278 0.496205
v -0.705714 4.155109 0.359232
v -0.798030 4.468955 0.810713
v -0.690717 4.341767 0.528253
v -0.793785 4.552702 0.671329
v -0.609189 4.109828 0.706221
v -0.532668 4.189802 0.457198
v -0.569753 4.075475 0.567711
v 0.095455 4.617488 0.753409
v 0.088071 4.556222 0.708093
v 0.076306 4.625439 0.684167
v 0.124124 4.569651 0.786593
v 0.105349 4.496675 0.733439
v 0.136744 4.512445 0.799610
v -0.205198 5.535196 0.347756
v -0.163968 5.389041 0.806075
v -0.239828 5.448875 0.539901
v -0.209290 5.902972 0.202333
v -0.249008 5.999913 0.789957
v -0.305175 5.961507 0.611877
v -0.251959 5.634853 0.269813
v -0.326619 5.756692 0.457342
v -0.311151 5.747852 0.861125
v -0.233693 6.150921 0.468391
v -0.156872 6.150074 0.689639
v -0.197816 6.117829 0.301150
v 0.236129 4.686715 0.731880
v 0.184252 4.619613 0.693642
v 0.180653 4.696433 0.692222
v 0.248442 4.600165 0.746522
v 0.199080 4.550672 0.706806
v 0.228586 4.546552 0.755909
v 0.492646 4.793844 0.579067
v 0.511470 4.620955 0.525154
v 0.436375 4.784801 0.539230
v 0.523232 4.585662 0.606340
v 0.460797 4.465288 0.522752
v 0.479314 4.444516 0.585749
v 0.655699 4.781426 0.388827
v 0.697265 4.609783 0.317276
v 0.640773 4.772832 0.344770
v 0.711369 4.582588 0.379210
v 0.681000 4.495674 0.338672
v 0.708410 4.451030 0.406658
v 0.307414 4.794223 0.683508
v 0.251938 4.803940 0.643850
v 0.470182 4.903558 0.611576
v 0.413910 4.894514 0.571739
v 0.533369 4.830466 0.494479
v 0.478077 4.826886 0.452465
v 0.564719 4.939685 0.468265
v 0.509426 4.936104 0.426251
v -0.331421 5.886140 0.383977
v -0.318873 5.996357 0.452695
v 0.042882 4.541259 0.899402
v 0.084804 4.418242 0.891923
v -0.057663 4.700213 0.682519
v -0.045332 4.673958 0.832147
v 0.066221 4.409420 0.733994
v -0.003875 4.547444 0.692363
v -0.068805 5.874548 0.093358
v -0.071895 5.799461 0.115872
v -0.096916 5.782875 -0.012946
v -0.129213 5.724248 0.005294
v -0.136104 5.552978 -0.189625
v -0.181661 5.436672 -0.099321
v -0.107253 5.327027 -0.257868
v -0.106861 5.255270 -0.231114
v -0.037110 5.147657 -0.285564
v -0.038791 5.102878 -0.267922
v 0.000000 4.041248 -0.566107
v 0.000000 4.004205 0.476875
v 0.000000 4.735062 -0.390521
v 0.000000 4.443112 0.454099
v 0.000000 3.634586 -0.369722
v 0.000000 3.446031 0.561122
v 0.000000 3.561359 0.748999
v 0.000000 3.677016 -0.510792
v 0.000000 5.398127 -0.159619
v 0.000000 5.002401 0.599683
v 0.000000 5.558159 0.177701
v 0.000000 5.219434 0.567347
v -0.000000 5.542253 0.307221
v -0.000000 5.367965 0.891736
v -0.000000 5.448875 0.539901
v -0.000000 5.999086 0.138743
v -0.000000 6.005299 0.852494
v -0.000000 5.657536 0.150513
v -0.000000 5.722322 0.940955
v -0.000000 6.202091 0.466428
v -0.000000 6.182189 0.716832
v -0.000000 6.142218 0.259603
v 0.597352 4.261987 -0.351304
v 0.629201 4.249745 0.256127
v 0.716566 4.348714 -0.052759
v 0.484910 4.949007 -0.174798
v 0.503441 4.886188 0.474569
v 0.618773 4.789236 0.037456
v 0.452714 3.699573 -0.238269
v 0.449235 3.555819 0.505636
v 0.601764 3.678100 0.106312
v 0.698940 3.849037 -0.377454
v 0.818714 3.896219 0.157472
v 0.620605 3.651208 0.652384
v 0.475814 5.560513 0.022143
v 0.466220 5.222576 0.434051
v 0.511998 5.608056 0.321915
v 0.135122 5.490440 0.403522
v 0.196237 5.632912 0.285704
v 0.244153 5.593667 0.487382
v 0.290559 5.632288 0.402118
v 0.148299 5.410602 0.602390
v -0.003623 5.519523 0.352094
v -0.000000 5.343388 0.658072
v 0.166030 5.449296 0.494520
v 0.872525 5.333913 0.093957
v 0.575725 5.115287 0.464108
v 0.733126 5.471393 0.277946
v 0.800952 4.793441 0.007009
v 0.580440 4.852547 0.289946
v 0.629991 4.786016 0.155414
v 0.978082 4.466655 0.597726
v 0.672039 4.461809 0.567681
v 0.884929 4.589818 0.618027
v 0.886366 4.135829 0.458347
v 0.570660 4.283278 0.496205
v 0.715430 4.178468 0.429755
v 0.709122 4.446412 0.847315
v 0.658272 4.356713 0.548958
v 0.718221 4.533089 0.709968
v 0.584699 4.108069 0.706685
v 0.546675 4.182539 0.447317
v 0.580355 4.072405 0.563055
v -0.197197 4.509230 0.658626
v -0.188967 4.460669 0.600012
v -0.179715 4.533927 0.592985
v -0.223774 4.453990 0.679925
v -0.203980 4.396282 0.610778
v -0.234453 4.394942 0.679207
v 0.205198 5.535196 0.347756
v 0.163968 5.389041 0.806075
v 0.239828 5.448875 0.539901
v 0.209290 5.902972 0.202333
v 0.249008 5.999913 0.789957
v 0.305175 5.961507 0.611877
v 0.251959 5.634853 0.269813
v 0.326619 5.756692 0.457342
v 0.311151 5.747852 0.861125
v 0.233693 6.150921 0.468391
v 0.156872 6.150074 0.689639
v 0.197816 6.117829 0.301150
v -0.320376 4.556611 0.619886
v -0.283737 4.479560 0.582779
v -0.267738 4.554442 0.575508
v -0.345376 4.474411 0.641679
v -0.308453 4.415021 0.602015
v -0.333830 4.418858 0.653396
v -0.568234 4.696425 0.479715
v -0.619770 4.526345 0.440108
v -0.517905 4.675654 0.436462
v -0.630014 4.498400 0.524306
v -0.595694 4.364480 0.445170
v -0.611786 4.350891 0.510739
v -0.747111 4.700600 0.303882
v -0.822332 4.534556 0.248381
v -0.737704 4.687021 0.259556
v -0.835233 4.513839 0.313024
v -0.823176 4.420803 0.276714
v -0.851482 4.385529 0.349659
v -0.377033 4.671595 0.569408
v -0.324396 4.669426 0.525030
v -0.525342 4.802475 0.502351
v -0.475013 4.781703 0.459098
v -0.609641 4.734363 0.396044
v -0.559569 4.719003 0.350303
v -0.624841 4.845574 0.364428
v -0.574769 4.830215 0.318687
v 0.331421 5.886140 0.383977
v 0.318873 5.996357 0.452695
v -0.158028 4.414288 0.763561
v -0.175430 4.286252 0.747733
v -0.045579 4.595712 0.571586
v -0.082761 4.562439 0.715601
v -0.124426 4.286354 0.596859
v -0.072676 4.435736 0.570314
v -0.000000 5.893628 0.104377
v -0.000000 5.775311 0.093729
v 0.068805 5.874548 0.093358
v 0.071895 5.799461 0.115872
v -0.000000 5.865498 -0.013909
v -0.000000 5.708403 0.044590
v 0.121383 5.782875 -0.012946
v 0.133585 5.724248 0.005294
v -0.000000 5.617334 -0.240457
v 0.000000 5.462712 -0.065897
v 0.165207 5.552978 -0.189625
v 0.181661 5.436672 -0.099321
v -0.000000 5.423987 -0.277286
v -0.000000 5.222991 -0.197940
v 0.137771 5.327027 -0.257868
v 0.106861 5.255270 -0.231114
v -0.000000 5.159643 -0.285414
v -0.000000 5.100667 -0.258976
v 0.037110 5.147657 -0.285564
v 0.038791 5.102878 -0.267922
vn -0.2685 -0.8884 -0.3724
vn -0.2245 -0.8723 0.4343
vn -0.2657 0.2585 -0.9288
vn -0.6453 -0.7616 -0.0598
vn -0.8798 0.2584 -0.3990
vn -0.2565 -0.1439 0.9558
vn -0.9575 0.1241 0.2605
vn -0.2600 -0.0022 -0.9656
vn -0.0688 0.5385 0.8398
vn -0.8377 0.3270 0.4374
vn -0.9420 0.1589 -0.2956
vn -0.5950 -0.7878 -0.1588
vn 0.1395 0.9000 -0.4130
vn -0.5023 0.8380 -0.2133
vn -0.2170 -0.1048 0.9705
vn -0.4405 0.1716 -0.8812
vn -0.0937 0.9856 -0.1405
vn 0.3503 0.8389 0.4165
vn -0.4943 0.2762 0.8242
vn -0.2738 0.0691 0.9593
vn -0.0607 -0.9087 -0.4130
vn -0.0603 -0.8965 -0.4389
vn 0.8684 0.4903 -0.0742
vn 0.5679 0.6828 0.4596
vn -0.7619 -0.6233 0.1759
vn -0.2577 0.3091 -0.9154
vn 0.2677 -0.4004 -0.8764
vn -0.9190 -0.0893 -0.3841
vn -0.0413 -0.8886 -0.4568
vn -0.5661 -0.1415 0.8121
vn 0.2447 -0.9486 0.2007
vn -0.2589 0.2986 0.9186
vn 0.7372 0.2933 0.6087
vn 0.5148 -0.2769 -0.8113
vn -0.7162 0.4097 0.5649
vn 0.9414 0.0187 0.3368
vn 0.8711 -0.2010 -0.4481
vn 0.0442 0.2781 0.9595
vn 0.4469 0.8914 0.0750
vn 0.7406 0.2434 0.6263
vn -0.6231 -0.5371 0.5686
vn -0.0522 -0.9920 -0.1149
vn -0.3105 0.7187 0.6221
vn 0.0863 -0.3366 0.9377
vn 0.0776 -0.1626 -0.9836
vn 0.3905 -0.9135 -0.1140
vn 0.2595 -0.2051 -0.9437
vn 0.8558 -0.4991 -0.1361
vn 0.0352 -0.1401 -0.9895
vn 0.5427 0.6484 0.5340
vn -0.2708 -0.9626 -0.0031
vn -0.2427 -0.9442 -0.2228
vn -0.8088 0.5462 0.2180
vn -0.9941 0.0341 0.1032
vn -0.2246 0.3025 0.9263
vn -0.9808 0.1589 0.1127
vn -0.9405 -0.3262 0.0948
vn -0.3398 -0.2043 0.9180
vn -0.8971 -0.3817 -0.2225
vn -0.1773 -0.7431 -0.6453
vn -0.8887 -0.0756 -0.4522
vn -0.2127 0.9740 0.0775
vn -0.2243 0.6110 0.7592
vn -0.1916 0.9480 -0.2540
vn -0.3520 0.4977 -0.7927
vn 0.3037 -0.9128 -0.2732
vn 0.4645 -0.2017 0.8623
vn 0.0822 0.3563 0.9307
vn 0.3119 0.1687 0.9350
vn -0.4319 0.7955 0.4250
vn -0.0257 -0.2929 -0.9558
vn -0.7091 -0.1995 -0.6763
vn -0.2257 -0.9009 -0.3708
vn -0.5090 0.0400 -0.8598
vn -0.3715 -0.9273 -0.0468
vn -0.4675 -0.1067 -0.8775
vn 0.4486 0.1895 0.8734
vn 0.9298 0.3087 -0.2005
vn 0.9161 -0.1459 -0.3734
vn 0.7550 0.1873 0.6284
vn 0.6944 -0.1015 0.7124
vn -0.0804 0.9870 -0.1393
vn -0.6924 0.1217 -0.7112
vn -0.8720 0.4863 -0.0566
vn -0.3150 0.8357 0.4498
vn -0.4892 0.0463 -0.8709
vn -0.4020 0.5839 0.7053
vn 0.4905 -0.0467 0.8702
vn 0.5821 -0.3439 -0.7368
vn 0.8657 -0.0495 0.4980
vn -0.2033 0.9708 0.1274
vn -0.8676 0.0494 -0.4948
vn -0.8250 0.3059 -0.4752
vn -0.0932 -0.1273 0.9875
vn 0.0272 0.3542 -0.9348
vn 0.5030 -0.8156 -0.2859
vn 0.2292 0.2751 -0.9337
vn 0.0885 -0.6524 0.7527
vn -0.2229 0.9090 0.3522
vn -0.4698 0.8020 -0.3690
vn -0.3525 0.4862 -0.7996
vn -0.3696 -0.3928 -0.8421
vn -0.5957 -0.1285 -0.7929
vn -0.2026 -0.3491 0.9149
vn -0.1973 -0.6961 0.6903
vn -0.9445 0.2943 0.1456
vn -0.9134 -0.0332 -0.4057
vn -0.9348 0.2825 -0.2152
vn -0.5073 0.5795 -0.6378
vn -0.3398 -0.3891 0.8562
vn -0.3909 0.1983 -0.8988
vn -0.1997 -0.5455 0.8140
vn 0.1588 -0.3882 -0.9078
vn -0.7841 -0.2133 -0.5828
vn -0.1709 0.0524 -0.9839
vn 0.2685 -0.8884 -0.3724
vn 0.2245 -0.8723 0.4343
vn 0.2657 0.2585 -0.9288
vn 0.6453 -0.7616 -0.0598
vn 0.8798 0.2584 -0.3990
vn 0.2565 -0.1439 0.9558
vn 0.9575 0.1241 0.2605
vn 0.2600 -0.0022 -0.9656
vn 0.0688 0.5385 0.8398
vn 0.8377 0.3270 0.4374
vn 0.9420 0.1589 -0.2956
vn 0.5950 -0.7878 -0.1588
vn -0.1395 0.9000 -0.4130
vn 0.5023 0.8380 -0.2133
vn 0.2170 -0.1048 0.9705
vn 0.4202 0.1956 -0.8861
vn 0.0937 0.9856 -0.1405
vn -0.3255 0.8343 0.4450
vn 0.4943 0.2762 0.8242
vn 0.2738 0.0691 0.9593
vn 0.2345 -0.8650 -0.4437
vn 0.0526 -0.8468 -0.5293
vn -0.8769 0.4694 -0.1033
vn -0.5871 0.6481 0.4850
vn 0.7619 -0.6233 0.1759
vn 0.2577 0.3091 -0.9154
vn -0.3315 -0.5027 -0.7984
vn 0.9392 -0.0899 -0.3314
vn -0.0500 -0.9041 -0.4243
vn 0.5661 -0.1415 0.8121
vn -0.2447 -0.9486 0.2007
vn 0.2589 0.2986 0.9186
vn -0.6909 0.7108 -0.1319
vn -0.1059 -0.3049 -0.9465
vn 0.8079 0.3483 0.4754
vn -0.9414 0.0187 0.3368
vn -0.7972 -0.2715 -0.5393
vn -0.0088 0.2763 0.9610
vn -0.4318 0.8919 0.1340
vn -0.7461 0.0533 0.6637
vn 0.6037 -0.4657 0.6470
vn 0.1396 -0.9734 -0.1815
vn 0.4446 0.5655 0.6946
vn -0.3503 -0.2337 0.9070
vn 0.1598 -0.1218 -0.9796
vn -0.1930 -0.9787 -0.0696
vn -0.2707 -0.0829 -0.9591
vn -0.7735 -0.5630 -0.2911
vn -0.2009 0.0071 -0.9796
vn -0.5547 0.5034 0.6625
vn 0.2708 -0.9626 -0.0031
vn 0.2717 -0.9452 -0.1810
vn 0.8088 0.5462 0.2180
vn -1.0000 -0.0000 -0.0000
vn 0.9941 0.0341 0.1032
vn 0.2246 0.3025 0.9263
vn 0.9808 0.1589 0.1127
vn 0.9405 -0.3262 0.0948
vn 0.3398 -0.2043 0.9180
vn 0.8971 -0.3817 -0.2225
vn 0.1773 -0.7431 -0.6453
vn 0.8887 -0.0756 -0.4522
vn 0.2127 0.9740 0.0775
vn 0.2243 0.6110 0.7592
vn 0.1916 0.9480 -0.2540
vn 0.3520 0.4977 -0.7927
vn -0.4719 -0.8627 -0.1821
vn -0.4141 -0.0690 0.9076
vn -0.1886 0.3576 0.9146
vn -0.2605 0.0903 0.9612
vn 0.2106 0.9226 0.3231
vn 0.0789 -0.2489 -0.9653
vn 0.6050 -0.3561 -0.7121
vn 0.0418 -0.9463 -0.3204
vn 0.4316 -0.0975 -0.8968
vn 0.2090 -0.9779 -0.0074
vn 0.3652 -0.2359 -0.9006
vn -0.3334 0.3139 0.8890
vn -0.8805 0.4493 -0.1508
vn -0.9567 -0.0105 -0.2908
vn -0.6563 0.3491 0.6689
vn -0.6367 0.0597 0.7688
vn 0.2285 0.9492 -0.2164
vn 0.6381 -0.0394 -0.7689
vn 0.8720 0.4863 -0.0566
vn 0.4857 0.7954 0.3625
vn 0.4122 -0.0886 -0.9068
vn 0.5523 0.5479 0.6283
vn -0.4136 0.0884 0.9062
vn -0.6927 -0.2832 -0.6632
vn -0.8153 0.1273 0.5649
vn 0.3700 0.9281 0.0406
vn 0.8174 -0.1274 -0.5618
vn 0.8250 0.3059 -0.4752
vn -0.0895 -0.1508 0.9845
vn 0.1097 0.4088 -0.9060
vn -0.2852 -0.8791 -0.3820
vn -0.0826 0.2647 -0.9608
vn -0.1216 -0.6843 0.7190
vn 0.0364 0.9171 0.3970
vn 0.4283 0.8351 -0.3452
vn 0.3525 0.4862 -0.7996
vn 0.3696 -0.3928 -0.8421
vn 0.5957 -0.1285 -0.7929
vn 0.1997 -0.3510 0.9148
vn 0.1931 -0.6948 0.6928
vn 0.9221 0.2054 0.3278
vn 0.9737 -0.1696 -0.1523
vn 0.9856 0.1687 0.0117
vn 0.4311 0.6045 -0.6699
vn 0.3398 -0.3891 0.8562
vn 0.3255 0.2098 -0.9220
vn 0.1997 -0.5455 0.8140
vn -0.1588 -0.3882 -0.9078
vn 0.8518 -0.3590 -0.3816
vn 0.1391 0.0483 -0.9891
vt 0.431469 0.557649
vt 0.419602 0.590643
vt 0.390452 0.511670
vt 0.406960 0.508085
vt 0.514907 0.485665
vt 0.535050 0.483205
vt 0.537141 0.557073
vt 0.517585 0.539429
vt 0.730680 0.896203
vt 0.676580 0.869775
vt 0.675206 0.786912
vt 0.742343 0.813703
vt 0.474285 0.566955
vt 0.482680 0.593478
vt 0.631639 0.268214
vt 0.667007 0.273241
vt 0.674734 0.324728
vt 0.648208 0.346674
vt 0.823426 0.792260
vt 0.900457 0.772994
vt 0.894955 0.823592
vt 0.831364 0.869005
vt 0.702496 0.270054
vt 0.724027 0.344314
vt 0.672361 0.745801
vt 0.752129 0.765288
vt 0.833899 0.726089
vt 0.907356 0.723802
vt 0.694250 0.222654
vt 0.750952 0.211675
vt 0.631268 0.219886
vt 0.976373 0.355948
vt 0.939133 0.335569
vt 0.943823 0.308929
vt 0.979101 0.294435
vt 0.221564 0.393061
vt 0.217604 0.347504
vt 0.244172 0.361884
vt 0.256053 0.385363
vt 0.888888 0.889372
vt 0.831330 0.908055
vt 0.763293 0.881107
vt 0.773740 0.943556
vt 0.730233 0.969953
vt 0.944864 0.371009
vt 0.929199 0.349872
vt 0.921342 0.331215
vt 0.924014 0.314520
vt 0.852774 0.954019
vt 0.846469 0.957298
vt 0.820701 0.951261
vt 0.886053 0.914234
vt 0.601839 0.132339
vt 0.610179 0.128348
vt 0.606619 0.151690
vt 0.598859 0.143588
vt 0.582795 0.156210
vt 0.583081 0.150719
vt 0.364632 0.243282
vt 0.363841 0.217886
vt 0.370784 0.228386
vt 0.370767 0.252063
vt 0.911333 0.336637
vt 0.579918 0.121817
vt 0.581510 0.112959
vt 0.599304 0.120488
vt 0.612135 0.136354
vt 0.676985 0.949990
vt 0.132401 0.197136
vt 0.132659 0.127368
vt 0.151596 0.121753
vt 0.153889 0.195390
vt 0.193920 0.300807
vt 0.209011 0.217377
vt 0.246693 0.239378
vt 0.030241 0.488894
vt 0.030818 0.475134
vt 0.051446 0.487858
vt 0.017876 0.516372
vt 0.820133 0.894566
vt 0.821866 0.862819
vt 0.015509 0.440369
vt 0.025093 0.460755
vt 0.796543 0.932494
vt 0.367908 0.136017
vt 0.361576 0.133445
vt 0.364401 0.102885
vt 0.367318 0.117078
vt 0.087559 0.868731
vt 0.080051 0.859259
vt 0.078580 0.847643
vt 0.098446 0.847025
vt 0.252032 0.256203
vt 0.058590 0.181771
vt 0.056212 0.105418
vt 0.068208 0.085385
vt 0.082775 0.154408
vt 0.084780 0.073742
vt 0.098863 0.149277
vt 0.792889 0.831869
vt 0.817554 0.818606
vt 0.083270 0.520996
vt 0.092382 0.503735
vt 0.100439 0.506188
vt 0.100827 0.523177
vt 0.858292 0.014034
vt 0.849019 0.026320
vt 0.842469 0.028488
vt 0.843632 0.014490
vt 0.439473 0.100082
vt 0.444906 0.132765
vt 0.398738 0.121166
vt 0.390968 0.095562
vt 0.890367 0.058607
vt 0.892919 0.028668
vt 0.906545 0.019529
vt 0.908038 0.067472
vt 0.103450 0.628482
vt 0.082170 0.602538
vt 0.099014 0.604091
vt 0.104007 0.614230
vt 0.370482 0.596972
vt 0.361304 0.585836
vt 0.367804 0.561097
vt 0.369731 0.572852
vt 0.506920 0.172795
vt 0.512172 0.186451
vt 0.503435 0.184941
vt 0.499083 0.172803
vt 0.790811 0.598705
vt 0.793130 0.587972
vt 0.799800 0.588172
vt 0.798917 0.599843
vt 0.500414 0.161971
vt 0.492202 0.173701
vt 0.483443 0.167115
vt 0.861155 0.032030
vt 0.851414 0.033530
vt 0.518976 0.159610
vt 0.074695 0.507868
vt 0.088244 0.499350
vt 0.582376 0.086238
vt 0.601404 0.096645
vt 0.245130 0.171866
vt 0.236637 0.193890
vt 0.210996 0.193786
vt 0.223782 0.168102
vt 0.196102 0.163057
vt 0.202150 0.148818
vt 0.206085 0.173745
vt 0.939806 0.132272
vt 0.932840 0.163825
vt 0.904260 0.157035
vt 0.903339 0.127451
vt 0.248463 0.141581
vt 0.235882 0.113872
vt 0.206172 0.120629
vt 0.947781 0.091488
vt 0.928184 0.089470
vt 0.178530 0.143729
vt 0.185774 0.134694
vt 0.612936 0.162095
vt 0.583660 0.175879
vt 0.175865 0.174542
vt 0.074430 0.714882
vt 0.047586 0.711294
vt 0.041568 0.694927
vt 0.070345 0.689596
vt 0.928110 0.182911
vt 0.910827 0.175456
vt 0.092340 0.706349
vt 0.093201 0.683648
vt 0.242619 0.062500
vt 0.241080 0.088922
vt 0.218969 0.091773
vt 0.219904 0.073307
vt 0.786509 0.347710
vt 0.794188 0.349078
vt 0.794623 0.360576
vt 0.786858 0.358891
vt 0.488589 0.005641
vt 0.518834 -0.001324
vt 0.520502 0.015948
vt 0.489504 0.012140
vt 0.476274 0.006013
vt 0.485933 0.021573
vt 0.471695 0.010503
vt 0.479160 -0.000089
vt 0.095789 0.489215
vt 0.100321 0.495826
vt 0.495418 0.185105
vt 0.042597 0.221990
vt 0.043396 0.247640
vt 0.029014 0.246529
vt 0.029576 0.219828
vt 0.792983 0.550529
vt 0.788280 0.517421
vt 0.797345 0.518923
vt 0.800604 0.552643
vt 0.492683 0.218653
vt 0.476496 0.208989
vt 0.513356 0.214613
vt 0.511838 0.038679
vt 0.664188 0.047477
vt 0.670991 0.051323
vt 0.665828 0.070349
vt 0.660777 0.070817
vt 0.669410 0.038003
vt 0.662181 0.031983
vt 0.636208 0.046946
vt 0.637203 0.071551
vt 0.639495 0.031087
vt 0.359353 0.482188
vt 0.361323 0.453032
vt 0.365921 0.450484
vt 0.366943 0.483331
vt 0.017906 0.239997
vt 0.011772 0.213690
vt 0.191249 0.195303
vt 0.780481 0.056880
vt 0.775091 0.038921
vt 0.782705 0.039902
vt 0.788418 0.057991
vt 0.521772 0.196289
vt 0.526714 0.215452
vt 0.479198 0.021034
vt 0.491217 0.035123
vt 0.484482 0.034583
vt 0.506765 0.050882
vt 0.358284 0.415528
vt 0.364741 0.412603
vt 0.365132 0.425159
vt 0.358674 0.428084
vt 0.081748 0.033495
vt 0.095245 0.033075
vt 0.094748 0.043985
vt 0.084008 0.051140
vt 0.779424 0.019601
vt 0.787247 0.020371
vt 0.121996 0.430629
vt 0.132968 0.431435
vt 0.133581 0.451145
vt 0.123292 0.442704
vt 0.411555 0.219107
vt 0.394592 0.211935
vt 0.522279 0.073024
vt 0.494017 0.076670
vt 0.791022 0.704798
vt 0.787347 0.632124
vt 0.802774 0.622349
vt 0.805231 0.701250
vt 0.471750 0.089287
vt 0.450558 0.135336
vt 0.426636 0.220709
vt 0.369189 0.370898
vt 0.366445 0.375930
vt 0.357382 0.365069
vt 0.366205 0.354540
vt 0.219806 0.060587
vt 0.227803 0.057961
vt 0.217814 0.034106
vt 0.245067 0.032518
vt 0.227414 0.049655
vt 0.219294 0.046769
vt 0.310772 0.081940
vt 0.295436 0.081046
vt 0.294352 0.046254
vt 0.314889 0.052887
vt 0.309746 0.090000
vt 0.301140 0.091604
vt 0.376012 0.366166
vt 0.372709 0.349741
vt 0.382924 0.316297
vt 0.365769 0.321205
vt 0.372454 0.298635
vt 0.379329 0.294619
vt 0.352058 0.328134
vt 0.318785 0.024352
vt 0.305734 0.025807
vt 0.316263 0.009301
vt 0.320804 0.009840
vt 0.054598 0.589088
vt 0.041073 0.598099
vt 0.037408 0.575491
vt 0.047333 0.562771
vt 0.034890 0.538468
vt 0.035863 0.543265
vt 0.031888 0.545343
vt 0.030316 0.539126
vt 0.378417 0.284448
vt 0.382866 0.281936
vt 0.410974 0.454656
vt 0.387960 0.431634
vt 0.497247 0.437227
vt 0.509045 0.415884
vt 0.618676 0.899690
vt 0.604367 0.817999
vt 0.447042 0.430053
vt 0.445615 0.407220
vt 0.529332 0.299531
vt 0.518878 0.382313
vt 0.492876 0.365939
vt 0.497114 0.312983
vt 0.969083 0.807234
vt 0.947907 0.880985
vt 0.443186 0.384669
vt 0.459354 0.306971
vt 0.590689 0.770315
vt 0.977565 0.740857
vt 0.404311 0.244030
vt 0.466567 0.263123
vt 0.526641 0.250681
vt 0.945928 0.251429
vt 0.926577 0.292463
vt 0.912104 0.258541
vt 0.908018 0.230169
vt 0.922103 0.206002
vt 0.939258 0.919150
vt 0.620330 0.973375
vt 0.572205 0.949831
vt 0.578683 0.885832
vt 0.910608 0.286046
vt 0.913453 0.300477
vt 0.939226 0.963446
vt 0.913731 0.964212
vt 0.909294 0.959830
vt 0.562999 0.133081
vt 0.566802 0.144201
vt 0.559024 0.151159
vt 0.554551 0.127727
vt 0.098936 0.451341
vt 0.095173 0.462703
vt 0.087585 0.435927
vt 0.094230 0.424196
vt 0.081910 0.467022
vt 0.081207 0.444432
vt 0.795327 0.383180
vt 0.796672 0.426364
vt 0.787670 0.403032
vt 0.781748 0.394718
vt 0.789625 0.157577
vt 0.772862 0.152245
vt 0.770649 0.081170
vt 0.789415 0.090027
vt 0.182526 0.562772
vt 0.153783 0.618807
vt 0.131324 0.503877
vt 0.157916 0.473013
vt 0.716998 0.056472
vt 0.746479 0.067985
vt 0.702044 0.071811
vt 0.707965 0.046105
vt 0.956234 0.876632
vt 0.953410 0.908267
vt 0.700050 0.007773
vt 0.704680 0.030305
vt 0.966258 0.949941
vt 0.361954 0.073839
vt 0.361178 0.048712
vt 0.360803 0.036854
vt 0.375756 0.061238
vt 0.021735 0.111207
vt 0.016325 0.091257
vt 0.033129 0.090734
vt 0.031594 0.102997
vt 0.127054 0.627748
vt 0.123610 0.517132
vt 0.097578 0.824205
vt 0.071951 0.801574
vt 0.083085 0.738978
vt 0.095608 0.760951
vt 0.055336 0.800365
vt 0.073850 0.737526
vt 0.973126 0.834599
vt 0.996471 0.852315
vt 0.068374 0.323185
vt 0.085758 0.322160
vt 0.080613 0.335532
vt 0.072637 0.335839
vt 0.212422 0.542409
vt 0.227556 0.542961
vt 0.230122 0.551715
vt 0.223141 0.551733
vt 0.214318 0.419050
vt 0.255135 0.414641
vt 0.249356 0.443837
vt 0.207009 0.451846
vt 0.781855 0.462558
vt 0.797376 0.448968
vt 0.798792 0.494468
vt 0.786100 0.484465
vt 0.100539 0.203091
vt 0.097084 0.216118
vt 0.083262 0.232106
vt 0.066909 0.228838
vt 0.365068 0.195222
vt 0.364306 0.170739
vt 0.367269 0.158662
vt 0.369387 0.183527
vt 0.579522 0.302688
vt 0.587878 0.301964
vt 0.588055 0.313369
vt 0.579378 0.313367
vt 0.155270 0.316951
vt 0.163711 0.319145
vt 0.162470 0.331296
vt 0.156136 0.329300
vt 0.588783 0.288527
vt 0.606293 0.290643
vt 0.595283 0.302056
vt 0.153314 0.306668
vt 0.171571 0.309692
vt 0.570089 0.289129
vt 0.819403 0.014368
vt 0.820030 0.034507
vt 0.810608 0.025333
vt 0.810769 0.017780
vt 0.564906 0.120104
vt 0.563372 0.096221
vt 0.680842 0.164208
vt 0.702532 0.163758
vt 0.713750 0.189171
vt 0.687870 0.184239
vt 0.363052 0.387164
vt 0.372802 0.365337
vt 0.385285 0.359648
vt 0.730467 0.160462
vt 0.719956 0.171448
vt 0.725098 0.143994
vt 0.974344 0.141645
vt 0.961084 0.168394
vt 0.679224 0.133439
vt 0.692465 0.094736
vt 0.722069 0.107465
vt 0.965602 0.096950
vt 0.741582 0.122083
vt 0.748566 0.135024
vt 0.554495 0.161443
vt 0.749575 0.167421
vt 0.064588 0.662329
vt 0.040979 0.676016
vt 0.946625 0.182612
vt 0.084008 0.661863
vt 0.194277 0.064005
vt 0.195388 0.090345
vt 0.262713 0.646626
vt 0.263068 0.658020
vt 0.255448 0.660099
vt 0.255166 0.648342
vt 0.223675 0.563737
vt 0.229712 0.566255
vt 0.225806 0.599937
vt 0.209177 0.594891
vt 0.236816 0.549905
vt 0.239456 0.565181
vt 0.081136 0.346242
vt 0.075096 0.351497
vt 0.595529 0.314460
vt 0.573480 0.346222
vt 0.592457 0.354302
vt 0.599297 0.379758
vt 0.580057 0.373535
vt 0.144473 0.364369
vt 0.152436 0.364810
vt 0.138404 0.395650
vt 0.129116 0.394236
vt 0.610169 0.347768
vt 0.249374 0.597131
vt 0.019723 0.285684
vt 0.024376 0.309299
vt 0.019063 0.309651
vt 0.013065 0.290208
vt 0.013189 0.278011
vt 0.020281 0.270986
vt 0.044692 0.289282
vt 0.045449 0.313590
vt 0.221785 0.624798
vt 0.207054 0.623853
vt 0.359962 0.507941
vt 0.367647 0.505935
vt 0.368659 0.538444
vt 0.363784 0.536508
vt 0.611668 0.376893
vt 0.733207 0.189601
vt 0.080402 0.361396
vt 0.086442 0.356141
vt 0.091827 0.376851
vt 0.086041 0.382293
vt 0.560164 0.343532
vt 0.568486 0.323053
vt 0.251085 0.574275
vt 0.262558 0.594279
vt 0.059304 0.039320
vt 0.059695 0.051897
vt 0.055039 0.048593
vt 0.054648 0.036016
vt 0.024735 0.911471
vt 0.024255 0.896067
vt 0.035205 0.898418
vt 0.037726 0.907641
vt 0.106408 0.391589
vt 0.100316 0.396836
vt 0.039734 0.972126
vt 0.038818 0.983169
vt 0.028395 0.991805
vt 0.027872 0.975011
vt 0.245659 0.537604
vt 0.558525 0.199288
vt 0.582676 0.203918
vt 0.124046 0.231390
vt 0.137821 0.223937
vt 0.606589 0.213768
vt 0.201712 0.452310
vt 0.026769 0.941656
vt 0.038537 0.933668
vt 0.039026 0.949389
vt 0.025490 0.949944
vt 0.211911 0.058455
vt 0.210808 0.050172
vt 0.186870 0.034330
vt 0.336082 0.053024
vt 0.325620 0.085943
vt 0.317655 0.094283
vt 0.372457 0.356239
vt 0.640539 0.186054
vt 0.647371 0.171374
vt 0.652634 0.176299
vt 0.647234 0.192278
vt 0.640986 0.135940
vt 0.643226 0.110846
vt 0.650256 0.116125
vt 0.656879 0.142449
vt 0.377583 0.327873
vt 0.028018 0.623324
vt 0.020271 0.594893
vt 0.043615 0.630345
vt 0.325173 0.010747
vt 0.330281 0.029789
vt 0.019417 0.567491
vt 0.360670 0.309423
vt 0.380370 0.298449
vt 0.026052 0.539963
vt 0.027408 0.544695
vt 0.376303 0.286885
vt 0.382372 0.283892
vt 0.637678 0.094162
vt 0.642094 0.097625
s 0
usemtl Material
f 7/1/1 10/2/1 109/3/1 106/4/1
f 107/5/2 108/6/2 12/7/2 8/8/2
f 4/9/3 104/10/3 102/11/3 1/12/3
f 9/13/4 8/8/4 12/7/4 11/14/4
f 1/15/5 3/16/5 6/17/5 4/18/5
f 2/19/6 103/20/6 105/21/6 5/22/6
f 3/16/7 2/23/7 5/24/7 6/17/7
f 102/11/8 109/25/8 10/26/8 1/12/8
f 2/19/9 12/27/9 108/28/9 103/20/9
f 3/16/10 11/29/10 12/30/10 2/23/10
f 1/15/11 10/31/11 11/29/11 3/16/11
f 9/13/12 11/14/12 10/2/12 7/1/12
f 13/32/13 17/33/13 112/34/13 110/35/13
f 13/36/14 22/37/14 24/38/14 15/39/14
f 5/22/15 105/21/15 111/40/15 14/41/15
f 4/9/16 25/42/16 22/43/16 13/44/16
f 15/45/17 19/46/17 17/33/17 13/32/17
f 17/33/18 16/47/18 144/48/18 112/34/18
f 14/41/19 18/49/19 19/50/19 15/51/19
f 111/40/20 113/52/20 18/49/20 14/41/20
f 21/53/21 48/54/21 46/55/21 16/56/21
f 16/56/22 46/55/22 114/57/22 144/58/22
f 18/59/23 20/60/23 21/61/23 19/62/23
f 19/46/24 21/63/24 16/47/24 17/33/24
f 113/64/25 145/65/25 20/66/25 18/67/25
f 13/44/26 110/68/26 104/10/26 4/9/26
f 27/69/27 33/70/27 31/71/27 25/72/27
f 25/73/28 31/74/28 28/75/28 22/37/28
f 6/76/29 27/77/29 25/78/29 4/79/29
f 14/41/30 23/80/30 26/81/30 5/22/30
f 5/82/31 26/83/31 27/77/31 6/76/31
f 15/51/32 24/84/32 23/80/32 14/41/32
f 30/85/33 36/86/33 35/87/33 29/88/33
f 32/89/34 38/90/34 39/91/34 33/92/34
f 22/37/35 28/75/35 30/93/35 24/38/35
f 23/94/36 29/95/36 32/96/36 26/97/36
f 26/97/37 32/96/37 33/98/37 27/99/37
f 24/84/38 30/100/38 29/101/38 23/80/38
f 89/102/39 40/103/39 42/104/39 88/105/39
f 87/106/40 45/107/40 43/108/40 86/109/40
f 31/110/41 37/111/41 34/112/41 28/113/41
f 33/114/42 39/115/42 37/116/42 31/117/42
f 28/118/43 34/119/43 36/120/43 30/121/43
f 29/122/44 35/123/44 38/124/44 32/125/44
f 42/126/45 60/127/45 59/128/45 41/129/45
f 44/130/46 62/131/46 63/132/46 45/133/46
f 91/134/47 41/129/47 44/135/47 90/136/47
f 90/137/48 44/138/48 45/107/48 87/106/48
f 88/139/49 42/126/49 41/129/49 91/134/49
f 86/140/50 43/141/50 40/103/50 89/102/50
f 145/65/51 115/142/51 47/143/51 20/66/51
f 20/66/52 47/143/52 48/54/52 21/53/52
f 50/144/53 56/145/53 55/146/53 51/147/53
f 84/148/54 53/149/54 51/147/54 85/150/54
f 120/151/55 118/152/55 50/153/55 54/154/55
f 54/155/56 50/144/56 51/147/56 53/149/56
f 47/156/57 54/155/57 53/149/57 48/157/57
f 115/158/58 120/151/58 54/154/58 47/159/58
f 48/157/59 53/149/59 52/160/59 46/161/59
f 46/55/60 52/162/60 119/163/60 114/57/60
f 53/149/61 84/148/61 49/164/61 52/160/61
f 55/165/62 56/166/62 122/167/62 121/168/62
f 118/152/63 122/169/63 56/170/63 50/153/63
f 57/171/64 55/165/64 121/168/64 123/172/64
f 49/173/65 57/174/65 123/175/65 117/176/65
f 64/177/66 66/178/66 81/179/66 80/180/66
f 63/181/67 69/182/67 67/183/67 61/184/67
f 43/185/68 61/184/68 58/186/68 40/187/68
f 45/188/69 63/181/69 61/184/69 43/185/69
f 40/103/70 58/189/70 60/190/70 42/104/70
f 41/129/71 59/128/71 62/191/71 44/135/71
f 66/192/72 72/193/72 71/194/72 65/195/72
f 68/196/73 74/197/73 75/198/73 69/199/73
f 59/128/74 65/200/74 68/201/74 62/191/74
f 62/131/75 68/196/75 69/199/75 63/132/75
f 60/127/76 66/202/76 65/200/76 59/128/76
f 61/184/77 67/183/77 64/203/77 58/186/77
f 73/204/78 71/205/78 72/206/78 70/207/78
f 74/208/79 71/205/79 73/204/79 75/209/79
f 67/210/80 73/204/80 70/207/80 64/211/80
f 69/212/81 75/209/81 73/204/81 67/210/81
f 64/213/82 70/214/82 72/215/82 66/216/82
f 65/195/83 71/194/83 74/217/83 68/218/83
f 55/146/84 57/219/84 85/150/84 51/147/84
f 76/220/85 78/221/85 79/222/85 77/223/85
f 66/202/86 60/127/86 77/224/86 79/225/86
f 60/226/87 58/186/87 76/227/87 77/228/87
f 58/186/88 64/203/88 78/229/88 76/227/88
f 80/230/89 81/231/89 83/232/89 82/233/89
f 78/234/90 64/235/90 80/236/90 82/237/90
f 79/222/91 78/221/91 82/238/91 83/239/91
f 66/240/92 79/241/92 83/242/92 81/243/92
f 49/164/93 84/148/93 85/150/93 57/219/93
f 37/111/94 86/244/94 89/245/94 34/112/94
f 36/246/95 88/139/95 91/134/95 35/247/95
f 38/248/96 90/249/96 87/250/96 39/251/96
f 35/247/97 91/134/97 90/136/97 38/252/97
f 39/253/98 87/254/98 86/244/98 37/111/98
f 34/119/99 89/102/99 88/105/99 36/120/99
f 92/255/100 217/256/100 221/257/100 94/258/100
f 49/173/101 117/176/101 217/259/101 92/260/101
f 119/261/102 52/262/102 93/263/102 218/264/102
f 52/262/103 49/173/103 92/260/103 93/263/103
f 222/265/104 95/266/104 97/267/104 226/268/104
f 218/269/105 93/270/105 95/266/105 222/265/105
f 93/271/106 92/255/106 94/258/106 95/272/106
f 97/273/107 96/274/107 98/275/107 99/276/107
f 95/272/108 94/258/108 96/274/108 97/273/108
f 94/258/109 221/257/109 225/277/109 96/274/109
f 230/278/110 99/279/110 101/280/110 234/281/110
f 96/282/111 225/283/111 229/284/111 98/285/111
f 226/268/112 97/267/112 99/279/112 230/278/112
f 101/286/113 100/287/113 233/288/113 234/289/113
f 99/276/114 98/275/114 100/290/114 101/291/114
f 98/285/115 229/284/115 233/288/115 100/287/115
f 130/292/116 106/4/116 109/3/116 133/293/116
f 107/5/117 131/294/117 135/295/117 108/6/117
f 127/296/118 124/297/118 102/11/118 104/10/118
f 132/298/119 134/299/119 135/295/119 131/294/119
f 124/300/120 127/301/120 129/302/120 126/303/120
f 125/304/121 128/305/121 105/21/121 103/20/121
f 126/303/122 129/302/122 128/306/122 125/307/122
f 102/11/123 124/297/123 133/308/123 109/25/123
f 125/304/124 103/20/124 108/28/124 135/309/124
f 126/303/125 125/307/125 135/310/125 134/311/125
f 124/300/126 126/303/126 134/311/126 133/312/126
f 132/298/127 130/292/127 133/293/127 134/299/127
f 136/313/128 110/35/128 112/34/128 140/314/128
f 136/313/129 138/315/129 149/316/129 147/317/129
f 128/305/130 137/318/130 111/40/130 105/21/130
f 127/296/131 136/319/131 147/320/131 150/321/131
f 138/315/132 136/313/132 140/314/132 142/322/132
f 140/314/133 112/34/133 144/48/133 139/323/133
f 137/318/134 138/324/134 142/325/134 141/326/134
f 111/40/135 137/318/135 141/326/135 113/52/135
f 146/327/136 139/328/136 171/329/136 173/330/136
f 139/328/137 144/58/137 114/57/137 171/329/137
f 141/331/138 142/332/138 146/333/138 143/334/138
f 142/332/139 140/335/139 139/336/139 146/333/139
f 113/337/140 141/338/140 143/339/140 145/340/140
f 136/319/141 127/296/141 104/10/141 110/68/141
f 152/341/142 150/342/142 156/343/142 158/344/142
f 150/345/143 147/346/143 153/347/143 156/348/143
f 129/349/144 127/350/144 150/351/144 152/352/144
f 137/318/145 128/305/145 151/353/145 148/354/145
f 128/355/146 129/349/146 152/352/146 151/356/146
f 138/324/147 137/318/147 148/354/147 149/357/147
f 155/358/148 154/359/148 160/360/148 161/361/148
f 157/362/149 158/363/149 164/364/149 163/365/149
f 147/346/150 149/366/150 155/367/150 153/347/150
f 148/368/151 151/369/151 157/370/151 154/371/151
f 151/369/152 152/372/152 158/373/152 157/370/152
f 149/357/153 148/354/153 154/374/153 155/375/153
f 214/376/154 213/377/154 167/378/154 165/379/154
f 212/380/155 211/381/155 168/382/155 170/383/155
f 156/384/156 153/385/156 159/386/156 162/387/156
f 158/388/157 156/389/157 162/390/157 164/391/157
f 153/392/158 155/393/158 161/394/158 159/395/158
f 154/396/159 157/397/159 163/398/159 160/399/159
f 167/400/160 166/401/160 184/402/160 185/403/160
f 169/404/161 170/405/161 188/406/161 187/407/161
f 216/408/162 215/409/162 169/410/162 166/401/162
f 215/411/163 212/412/163 170/405/163 169/404/163
f 213/413/164 216/408/164 166/401/164 167/400/164
f 211/414/165 214/415/165 165/416/165 168/417/165
f 145/65/166 143/418/166 172/419/166 115/142/166
f 143/418/167 146/327/167 173/330/167 172/419/167
f 175/420/168 176/421/168 180/422/168 181/423/168
f 117/424/169 217/256/169 218/425/169 119/426/169
f 209/427/170 210/428/170 176/421/170 178/429/170
f 120/151/171 179/430/171 175/431/171 118/152/171
f 179/432/172 178/429/172 176/421/172 175/420/172
f 172/433/173 173/434/173 178/429/173 179/432/173
f 115/158/174 172/435/174 179/430/174 120/151/174
f 173/434/175 171/436/175 177/437/175 178/429/175
f 171/329/176 114/57/176 119/163/176 177/438/176
f 178/429/177 177/437/177 174/439/177 209/427/177
f 180/440/178 121/168/178 122/167/178 181/441/178
f 118/152/179 175/431/179 181/442/179 122/169/179
f 182/443/180 123/172/180 121/168/180 180/440/180
f 174/444/181 117/176/181 123/175/181 182/445/181
f 189/446/182 205/447/182 206/448/182 191/449/182
f 188/450/183 186/451/183 192/452/183 194/453/183
f 168/382/184 165/454/184 183/455/184 186/451/184
f 170/383/185 168/382/185 186/451/185 188/450/185
f 165/379/186 167/378/186 185/456/186 183/457/186
f 166/401/187 169/410/187 187/458/187 184/402/187
f 191/459/188 190/460/188 196/461/188 197/462/188
f 193/463/189 194/464/189 200/465/189 199/466/189
f 184/402/190 187/458/190 193/467/190 190/460/190
f 187/407/191 188/406/191 194/464/191 193/463/191
f 185/403/192 184/402/192 190/460/192 191/459/192
f 186/451/193 183/455/193 189/468/193 192/452/193
f 198/469/194 195/470/194 197/471/194 196/472/194
f 199/473/195 200/474/195 198/469/195 196/472/195
f 192/475/196 189/476/196 195/470/196 198/469/196
f 194/453/197 192/452/197 198/477/197 200/478/197
f 189/479/198 191/480/198 197/481/198 195/482/198
f 190/460/199 193/467/199 199/483/199 196/461/199
f 180/422/200 176/421/200 210/428/200 182/484/200
f 201/485/201 202/486/201 204/487/201 203/488/201
f 191/459/202 204/489/202 202/490/202 185/403/202
f 185/456/203 202/486/203 201/485/203 183/457/203
f 183/455/204 201/491/204 203/492/204 189/468/204
f 205/493/205 207/494/205 208/495/205 206/496/205
f 203/497/206 207/498/206 205/499/206 189/500/206
f 204/487/207 208/501/207 207/502/207 203/488/207
f 191/503/208 206/504/208 208/505/208 204/506/208
f 174/439/209 182/484/209 210/428/209 209/427/209
f 162/387/210 159/386/210 214/507/210 211/381/210
f 161/508/211 160/509/211 216/408/211 213/413/211
f 163/510/212 164/511/212 212/412/212 215/411/212
f 160/509/213 163/512/213 215/409/213 216/408/213
f 164/513/214 162/387/214 211/381/214 212/380/214
f 159/395/215 161/394/215 213/377/215 214/376/215
f 219/514/216 223/515/216 221/516/216 217/517/216
f 174/444/217 219/518/217 217/259/217 117/176/217
f 119/261/218 218/264/218 220/519/218 177/520/218
f 177/520/219 220/519/219 219/518/219 174/444/219
f 222/265/220 226/268/220 228/521/220 224/522/220
f 218/269/221 222/265/221 224/522/221 220/523/221
f 217/256/169 221/257/169 222/524/169 218/425/169
f 220/525/222 224/526/222 223/527/222 219/528/222
f 228/529/223 232/530/223 231/531/223 227/532/223
f 221/257/169 225/277/169 226/533/169 222/524/169
f 224/526/224 228/529/224 227/532/224 223/527/224
f 223/534/225 227/535/225 225/283/225 221/536/225
f 230/278/226 234/281/226 236/537/226 232/538/226
f 227/535/227 231/539/227 229/284/227 225/283/227
f 226/268/228 230/278/228 232/538/228 228/521/228
f 225/277/169 229/540/169 230/541/169 226/533/169
f 236/542/229 234/289/229 233/288/229 235/543/229
f 229/540/169 233/544/169 234/545/169 230/541/169
f 232/530/230 236/546/230 235/547/230 231/531/230
f 231/539/231 235/543/231 233/288/231 229/284/231
l 116 115
l 114 116
