# Blender 5.0.0
# www.blender.org
mtllib lostGirlLegs.mtl
o Cube.001
v -0.452714 3.699573 -0.238269
v -0.449235 3.555819 0.505636
v -0.601764 3.678100 0.106312
v -0.486695 0.053550 0.216662
v -0.515619 0.054705 0.517572
v -0.444754 0.049875 0.056985
v -0.101295 0.033136 0.056973
v -0.091798 0.028167 0.520309
v -0.040410 0.029322 0.217348
v -0.121894 0.423953 0.323592
v -0.338462 0.495133 0.451420
v -0.336484 0.484846 0.161710
v -0.521833 1.916475 0.436103
v -0.430546 1.991220 0.205994
v -0.248728 1.973968 0.676218
v -0.427579 1.976913 0.659425
v -0.179110 1.989682 0.231793
v -0.139058 2.008433 0.477167
v -0.169925 0.468894 0.163263
v -0.162727 0.485755 0.453035
v -0.396208 0.431600 0.321106
v -0.413333 2.852907 0.095276
v -0.428876 2.852071 0.566825
v -0.129816 2.971784 0.195585
v -0.550643 2.742381 0.250617
v -0.187496 2.954855 0.605294
v -0.150072 2.956532 0.021542
v -0.507034 2.057631 0.397054
v -0.259698 2.180790 0.635000
v -0.215319 2.199191 0.278254
v -0.366382 2.156414 0.226900
v -0.421548 2.147575 0.616012
v -0.156053 2.127559 0.389251
v -0.529389 1.200832 0.373611
v -0.253509 1.242646 0.529896
v -0.213496 1.363611 0.158335
v -0.365080 1.357672 0.134839
v -0.413921 1.238480 0.501504
v -0.154911 1.213946 0.377411
v -0.369035 0.618141 0.354206
v -0.200446 0.600456 0.442081
v -0.186948 0.608174 0.231521
v -0.346645 0.621899 0.229380
v -0.324124 0.609939 0.440819
v -0.177356 0.600798 0.360193
v -0.538898 0.039606 0.745629
v -0.088869 0.020029 0.656406
v -0.368508 0.344870 0.782444
v -0.129901 0.318214 0.700947
v -0.456143 0.029079 1.144645
v -0.049759 0.022102 0.972382
v -0.366022 0.314226 0.956645
v -0.164811 0.288508 0.956645
v -0.363726 1.801074 0.232818
v -0.403811 1.783749 0.602426
v -0.182069 1.798506 0.468713
v -0.308941 1.787616 0.600126
v -0.485292 1.782958 0.465851
v -0.225759 1.806324 0.262641
v -0.488705 0.263778 0.240457
v -0.074355 0.218442 0.538111
v -0.085451 0.222308 0.042905
v -0.021994 0.220427 0.241823
v -0.518770 0.265875 0.533615
v -0.442864 0.251598 0.042685
v -0.075074 0.168060 0.669158
v -0.545787 0.199650 0.757944
v -0.041233 0.196363 0.909357
v -0.496165 0.223629 1.081519
v -0.328039 0.027424 1.265100
v -0.084070 0.027161 1.203535
v -0.313639 0.342714 1.080498
v -0.212734 0.333323 1.080498
v -0.081743 0.218554 1.217972
v -0.337466 0.223038 1.279537
v -0.434605 0.677453 0.109586
v -0.401181 0.650575 0.537561
v -0.060359 0.627557 0.381241
v -0.513189 0.658517 0.370617
v -0.126304 0.633008 0.544813
v -0.091509 0.652008 0.117407
v 0.000000 3.634586 -0.369722
v 0.000000 3.446031 0.561122
v 0.000000 3.086871 0.153065
v 0.452714 3.699573 -0.238269
v 0.449235 3.555819 0.505636
v 0.601764 3.678100 0.106312
v 0.486695 0.053550 -0.466940
v 0.515619 0.054705 -0.166031
v 0.444754 0.049875 -0.626618
v 0.101295 0.033136 -0.626629
v 0.091798 0.028167 -0.163294
v 0.040410 0.029322 -0.466255
v 0.134448 0.427848 -0.361076
v 0.330480 0.492279 -0.245369
v 0.328689 0.482966 -0.507607
v 0.521833 1.916475 -0.247499
v 0.430546 1.991220 -0.421461
v 0.248728 1.973968 0.020690
v 0.427579 1.976913 0.046007
v 0.179110 1.989682 -0.395662
v 0.139058 2.008433 -0.206436
v 0.177925 0.468527 -0.506201
v 0.171409 0.483790 -0.243908
v 0.382749 0.434770 -0.363326
v 0.413333 2.852907 -0.283107
v 0.428876 2.852071 0.246068
v 0.125751 2.971784 -0.014970
v 0.550708 2.742381 0.009802
v 0.183431 2.954855 0.347962
v 0.146008 2.956532 -0.270968
v 0.507159 2.057631 -0.184079
v 0.259698 2.180790 0.053868
v 0.215319 2.199191 -0.302878
v 0.366382 2.156414 -0.354233
v 0.421548 2.147575 0.034880
v 0.139404 2.127559 -0.191881
v 0.531339 1.200832 -0.279581
v 0.255459 1.242646 -0.123296
v 0.215445 1.363611 -0.529950
v 0.367030 1.357672 -0.553447
v 0.415871 1.238480 -0.151688
v 0.156861 1.213946 -0.275782
v 0.354547 0.617085 -0.333984
v 0.198787 0.600746 -0.252796
v 0.186316 0.607876 -0.447334
v 0.333861 0.620556 -0.449312
v 0.313054 0.609507 -0.253962
v 0.177454 0.601061 -0.328453
v 0.538898 0.039606 0.062026
v 0.088869 0.020029 -0.027197
v 0.368508 0.344870 0.098841
v 0.129901 0.318214 0.017345
v 0.456143 0.029079 0.461042
v 0.049759 0.022102 0.288780
v 0.366022 0.314226 0.273043
v 0.164811 0.288508 0.273043
v 0.363498 1.801022 -0.449405
v 0.403315 1.783813 -0.082273
v 0.174564 1.798471 -0.215090
v 0.309080 1.787654 -0.084557
v 0.484487 1.783028 -0.217933
v 0.226455 1.806237 -0.419782
v 0.488705 0.263778 -0.443146
v 0.074355 0.218442 -0.145491
v 0.085451 0.222308 -0.640698
v 0.021994 0.220427 -0.441780
v 0.518770 0.265875 -0.149988
v 0.442864 0.251598 -0.640917
v 0.075074 0.168060 -0.014444
v 0.545787 0.199650 0.074341
v 0.041233 0.196363 0.225754
v 0.496165 0.223629 0.397916
v 0.328039 0.027424 0.581498
v 0.084070 0.027161 0.519933
v 0.313639 0.342714 0.396896
v 0.212734 0.333323 0.396896
v 0.081743 0.218554 0.534370
v 0.337466 0.223038 0.595935
v 0.434605 0.677453 -0.574016
v 0.401181 0.650575 -0.146042
v 0.060359 0.627557 -0.302361
v 0.513189 0.658517 -0.312986
v 0.126304 0.633008 -0.138790
v 0.091509 0.652008 -0.566195
vn 0.9956 -0.0894 -0.0278
vn -0.9711 0.0052 -0.2387
vn -0.0582 -0.9983 -0.0077
vn -0.0518 -0.9987 0.0026
vn 0.9419 -0.0759 -0.3272
vn -0.0044 -0.0722 -0.9974
vn -0.9951 -0.0028 -0.0988
vn 0.9794 -0.1108 0.1690
vn -0.9090 0.0949 0.4059
vn 0.9380 0.2820 0.2017
vn 0.8795 0.2386 0.4117
vn -0.9327 0.1491 0.3283
vn 0.1697 0.1621 -0.9721
vn 0.9605 0.1241 -0.2493
vn -0.8828 0.2025 -0.4238
vn -0.1209 0.2157 0.9690
vn 0.7817 -0.0319 0.6228
vn -0.1330 0.1055 0.9855
vn -0.8315 -0.1829 -0.5246
vn 0.7750 -0.4910 -0.3977
vn -0.2318 -0.4039 -0.8850
vn 0.8740 -0.4233 0.2388
vn -0.1605 0.0596 0.9852
vn -0.6845 -0.1867 -0.7047
vn 0.9470 -0.1360 -0.2911
vn 0.0391 -0.2583 -0.9653
vn 0.9704 -0.0259 0.2403
vn -0.7958 -0.0649 0.6021
vn 0.1683 0.2214 -0.9606
vn 0.9755 0.0767 -0.2063
vn -0.8685 0.1273 -0.4790
vn -0.0955 -0.1582 0.9828
vn 0.2324 -0.9670 0.1044
vn -0.2879 -0.9504 0.1176
vn -0.0637 -0.9178 -0.3920
vn 0.2715 -0.9566 -0.1058
vn -0.3243 -0.9355 -0.1399
vn -0.0709 -0.9368 0.3427
vn 0.0506 0.4448 -0.8942
vn 0.9535 0.2657 -0.1420
vn -0.9593 0.1287 -0.2513
vn -0.0037 0.0931 0.9956
vn 0.9883 -0.0879 -0.1248
vn 0.1666 0.8647 0.4739
vn -0.0592 -0.9960 -0.0669
vn -0.6933 0.6927 0.1988
vn 0.1107 0.9525 -0.2839
vn -0.5920 0.8027 0.0727
vn -0.0329 -0.9994 -0.0062
vn 0.1440 0.9784 0.1482
vn -0.0489 -0.3263 0.9440
vn -0.8259 -0.3421 -0.4482
vn 0.9582 -0.2283 -0.1722
vn 0.1413 -0.1436 -0.9795
vn -0.8671 -0.1982 0.4571
vn 0.7911 -0.3176 0.5227
vn -0.9780 -0.1034 0.1811
vn -0.7431 -0.0107 0.6691
vn -0.9933 -0.0182 -0.1137
vn 0.8058 0.5922 0.0034
vn 0.9178 0.3680 0.1492
vn -0.8238 0.5659 -0.0338
vn 0.0414 0.4445 -0.8948
vn 0.8678 0.4501 -0.2107
vn -0.8389 0.5102 -0.1893
vn 0.9352 0.3353 0.1136
vn 0.2381 -0.0679 0.9689
vn 0.1256 0.8323 0.5399
vn 0.9904 -0.0111 0.1378
vn 0.6290 0.7774 0.0082
vn -0.5244 0.8062 0.2740
vn -0.0070 -0.9999 0.0115
vn -0.9344 0.0159 0.3559
vn -0.9337 0.0042 0.3580
vn -0.0806 0.0330 0.9962
vn -0.9050 0.0492 -0.4225
vn 0.9785 0.1667 -0.1217
vn 0.0651 0.0498 -0.9966
vn -0.7916 -0.0024 0.6110
vn 0.8815 0.1703 0.4405
vn -0.9956 -0.0894 -0.0278
vn 0.9711 0.0052 -0.2387
vn 0.0582 -0.9983 -0.0077
vn 0.0518 -0.9987 0.0026
vn -0.9419 -0.0759 -0.3272
vn 0.0044 -0.0722 -0.9974
vn 0.9951 -0.0028 -0.0988
vn -0.9794 -0.1108 0.1690
vn 0.9087 0.1105 0.4025
vn -0.9507 0.2121 0.2262
vn -0.8983 -0.0330 0.4382
vn 0.9442 0.0075 0.3292
vn -0.1364 0.3804 -0.9147
vn -0.9243 0.2075 -0.3205
vn 0.8445 0.3788 -0.3785
vn -0.0237 -0.0580 0.9980
vn -0.7716 -0.0073 0.6360
vn 0.2114 -0.3345 0.9184
vn 0.9110 -0.0135 -0.4121
vn -0.9271 -0.2978 -0.2277
vn 0.1622 -0.0235 -0.9865
vn -0.7513 -0.5805 0.3139
vn 0.1734 -0.3112 0.9344
vn 0.8644 0.0396 -0.5013
vn -0.9666 -0.0167 -0.2559
vn -0.1263 0.0682 -0.9896
vn -0.9487 -0.1358 0.2855
vn 0.7992 -0.0277 0.6004
vn -0.1673 0.2330 -0.9580
vn -0.9750 0.0627 -0.2132
vn 0.8816 0.1172 -0.4572
vn 0.0983 -0.1019 0.9899
vn -0.2245 -0.9691 0.1027
vn 0.2656 -0.9584 0.1049
vn 0.0641 -0.9223 -0.3810
vn -0.2721 -0.9564 -0.1066
vn 0.3031 -0.9432 -0.1361
vn 0.0709 -0.9486 0.3084
vn -0.0460 0.3911 -0.9192
vn -0.9666 0.2043 -0.1549
vn 0.9588 0.1372 -0.2488
vn 0.0049 0.0742 0.9972
vn -0.9883 -0.0879 -0.1248
vn -0.1684 0.8760 0.4519
vn 0.0592 -0.9960 -0.0669
vn 0.6821 0.7068 0.1875
vn -0.1107 0.9525 -0.2839
vn 0.5920 0.8027 0.0727
vn 0.0329 -0.9994 -0.0062
vn -0.1440 0.9784 0.1482
vn -0.0871 -0.5282 0.8447
vn 0.8266 -0.2691 -0.4943
vn -0.9584 -0.1836 -0.2186
vn -0.1384 0.1438 -0.9799
vn 0.8724 -0.2847 0.3972
vn -0.7969 -0.3369 0.5014
vn 0.9780 -0.1034 0.1811
vn 0.7431 -0.0107 0.6691
vn 0.9933 -0.0182 -0.1137
vn -0.8058 0.5922 0.0034
vn -0.9030 0.4055 0.1422
vn 0.8037 0.5934 -0.0426
vn -0.0447 0.4871 -0.8722
vn -0.8518 0.4821 -0.2051
vn 0.8189 0.5444 -0.1819
vn -0.9294 0.3556 0.0991
vn -0.2381 -0.0679 0.9689
vn -0.1256 0.8323 0.5399
vn -0.9904 -0.0111 0.1378
vn -0.6290 0.7774 0.0082
vn 0.5244 0.8062 0.2740
vn 0.0070 -0.9999 0.0115
vn 0.8670 -0.1685 0.4690
vn 0.9118 -0.1247 0.3911
vn 0.0822 -0.0181 0.9965
vn 0.9158 0.0546 -0.3979
vn -0.9788 0.1716 -0.1119
vn -0.0648 0.0433 -0.9970
vn 0.7893 -0.0380 0.6128
vn -0.8834 0.1511 0.4436
vt 0.242854 0.762195
vt 0.247727 0.746590
vt 0.264881 0.746794
vt 0.264916 0.762624
vt 0.226706 0.985631
vt 0.205769 0.983740
vt 0.204612 0.964866
vt 0.226388 0.962307
vt 0.176887 0.967948
vt 0.124911 0.970332
vt 0.129356 0.934953
vt 0.178768 0.932975
vt 0.172774 0.986633
vt 0.132798 0.988554
vt 0.245232 0.796980
vt 0.267431 0.798169
vt 0.267676 0.816338
vt 0.245964 0.819585
vt 0.123146 0.047093
vt 0.122656 0.025445
vt 0.162403 0.024207
vt 0.164644 0.047165
vt 0.204498 0.929663
vt 0.226277 0.927999
vt 0.269953 0.950343
vt 0.249040 0.953793
vt 0.259256 0.939135
vt 0.271866 0.940596
vt 0.198223 0.775391
vt 0.211754 0.773502
vt 0.220209 0.788340
vt 0.198974 0.785069
vt 0.454757 0.793663
vt 0.453300 0.769100
vt 0.476684 0.775540
vt 0.484815 0.790779
vt 0.618145 0.545636
vt 0.620292 0.529802
vt 0.647207 0.537591
vt 0.645029 0.556040
vt 0.379869 0.815393
vt 0.375380 0.790570
vt 0.404807 0.789665
vt 0.397865 0.809231
vt 0.504860 0.777549
vt 0.495951 0.801185
vt 0.600392 0.565911
vt 0.595143 0.545896
vt 0.300667 0.820447
vt 0.300346 0.800894
vt 0.321261 0.800722
vt 0.319594 0.824491
vt 0.464387 0.749224
vt 0.481381 0.687183
vt 0.500277 0.685672
vt 0.480503 0.751758
vt 0.295827 0.983478
vt 0.299042 0.902050
vt 0.327295 0.914344
vt 0.348512 0.971228
vt 0.572082 0.726297
vt 0.596634 0.636662
vt 0.612490 0.615594
vt 0.611214 0.710786
vt 0.498635 0.904097
vt 0.494333 0.890990
vt 0.514423 0.892138
vt 0.550380 0.975553
vt 0.371135 0.971144
vt 0.379609 0.898812
vt 0.408463 0.887344
vt 0.421825 0.979555
vt 0.446114 0.938982
vt 0.446897 0.882878
vt 0.411177 0.800198
vt 0.421550 0.876728
vt 0.292575 0.776983
vt 0.287269 0.708623
vt 0.301462 0.713919
vt 0.302892 0.778041
vt 0.379462 0.769788
vt 0.377487 0.717065
vt 0.395311 0.715600
vt 0.395808 0.768336
vt 0.522659 0.706790
vt 0.503712 0.756226
vt 0.595211 0.529618
vt 0.576586 0.485707
vt 0.601253 0.457165
vt 0.621580 0.517646
vt 0.320298 0.714649
vt 0.313914 0.778504
vt 0.447142 0.025617
vt 0.436200 0.034420
vt 0.426561 0.032236
vt 0.427821 0.018887
vt 0.429465 0.071737
vt 0.427032 0.054666
vt 0.436826 0.048857
vt 0.448062 0.057688
vt 0.397234 0.024346
vt 0.411660 0.034196
vt 0.412391 0.052858
vt 0.398481 0.064411
vt 0.136603 0.093688
vt 0.134007 0.076686
vt 0.153391 0.076960
vt 0.155179 0.093759
vt 0.215787 0.806927
vt 0.198989 0.799980
vt 0.270992 0.965028
vt 0.257040 0.972826
vt 0.032399 0.067271
vt 0.019087 0.068545
vt 0.018450 0.048065
vt 0.031616 0.052849
vt 0.242949 0.719208
vt 0.262630 0.710456
vt 0.064907 0.990668
vt 0.061706 0.951105
vt 0.090257 0.958525
vt 0.085156 0.989086
vt 0.128250 0.919126
vt 0.180161 0.906260
vt 0.218952 0.901643
vt 0.243526 0.900262
vt 0.061067 0.930608
vt 0.065310 0.916134
vt 0.077031 0.915295
vt 0.084590 0.928869
vt 0.225476 0.864412
vt 0.241238 0.879992
vt 0.122187 0.882843
vt 0.168486 0.860484
vt 0.637483 0.519989
vt 0.202684 0.902957
vt 0.207721 0.857162
vt 0.034615 0.138457
vt 0.034532 0.154116
vt 0.011656 0.153844
vt 0.012253 0.134128
vt 0.229630 0.743670
vt 0.230909 0.713508
vt 0.035974 0.182092
vt 0.013637 0.183171
vt 0.063358 0.892111
vt 0.093206 0.897303
vt 0.237772 0.683275
vt 0.260062 0.683420
vt 0.101109 0.932559
vt 0.234707 0.842562
vt 0.247510 0.866009
vt 0.125081 0.855955
vt 0.153036 0.847324
vt 0.650978 0.628463
vt 0.655509 0.700295
vt 0.303559 0.645789
vt 0.335599 0.643880
vt 0.562321 0.412794
vt 0.591979 0.402612
vt 0.509738 0.617425
vt 0.539454 0.624650
vt 0.360657 0.634631
vt 0.400523 0.636530
vt 0.611293 0.405230
vt 0.616822 0.465235
vt 0.490221 0.615869
vt 0.318351 0.174590
vt 0.337042 0.171361
vt 0.338489 0.187156
vt 0.323956 0.189541
vt 0.846788 0.323149
vt 0.844475 0.300634
vt 0.869011 0.301919
vt 0.870125 0.320102
vt 0.124998 0.804893
vt 0.121038 0.770169
vt 0.169862 0.768102
vt 0.176458 0.803017
vt 0.130148 0.823191
vt 0.169774 0.821835
vt 0.319973 0.140344
vt 0.315727 0.116969
vt 0.334495 0.117461
vt 0.338676 0.136331
vt 0.970496 0.018066
vt 0.929208 0.020719
vt 0.928773 -0.002356
vt 0.968452 -0.003591
vt 0.842593 0.266856
vt 0.867180 0.267227
vt 0.801688 0.289388
vt 0.801720 0.279729
vt 0.815411 0.278051
vt 0.823264 0.291743
vt 0.271790 0.163811
vt 0.272650 0.155096
vt 0.292763 0.150478
vt 0.285383 0.164282
vt 0.959920 0.568791
vt 0.932948 0.554505
vt 0.931983 0.542022
vt 0.957432 0.546492
vt 0.729968 0.531040
vt 0.705945 0.546122
vt 0.701494 0.526692
vt 0.734689 0.513555
vt 0.847369 0.528655
vt 0.830408 0.523478
vt 0.822983 0.503587
vt 0.851640 0.502847
vt 0.918891 0.564817
vt 0.909760 0.540318
vt 0.750399 0.540499
vt 0.755442 0.519750
vt 0.330977 0.454191
vt 0.312274 0.458301
vt 0.310719 0.434025
vt 0.331687 0.434412
vt 0.317024 0.411591
vt 0.300569 0.412054
vt 0.297925 0.343662
vt 0.310350 0.347971
vt 0.337613 0.621192
vt 0.285646 0.609124
vt 0.305496 0.550403
vt 0.333387 0.537574
vt 0.766746 0.718917
vt 0.727807 0.721449
vt 0.720910 0.612771
vt 0.755675 0.621300
vt 0.968535 0.649795
vt 0.904618 0.701261
vt 0.918708 0.639809
vt 0.948497 0.642857
vt 0.881712 0.692251
vt 0.827931 0.703649
vt 0.828098 0.605133
vt 0.859410 0.616236
vt 0.046153 0.336194
vt 0.047484 0.378935
vt 0.034003 0.398900
vt 0.021885 0.357929
vt 0.990102 0.647746
vt 0.728526 0.499114
vt 0.712416 0.502402
vt 0.710196 0.438451
vt 0.724956 0.430774
vt 0.845430 0.481486
vt 0.829998 0.480938
vt 0.828453 0.428137
vt 0.845656 0.428611
vt 0.931894 0.522092
vt 0.907599 0.523602
vt 0.897609 0.476149
vt 0.928563 0.460100
vt 0.754609 0.498006
vt 0.758224 0.445202
vt 0.328001 0.411092
vt 0.328838 0.347177
vt 0.609632 0.055974
vt 0.590764 0.063351
vt 0.588095 0.049442
vt 0.596859 0.047062
vt 0.589140 0.011161
vt 0.608569 0.024279
vt 0.596612 0.033905
vt 0.587249 0.029073
vt 0.559898 0.059669
vt 0.558668 0.020149
vt 0.573850 0.031362
vt 0.574242 0.048336
vt 0.955911 0.065377
vt 0.938896 0.066511
vt 0.940377 0.049731
vt 0.957773 0.048392
vt 0.271079 0.141273
vt 0.285750 0.133661
vt 0.801859 0.302637
vt 0.818160 0.308407
vt 0.042934 0.868716
vt 0.042828 0.855393
vt 0.056064 0.851180
vt 0.056640 0.869694
vt 0.341408 0.224073
vt 0.323630 0.217773
vt 0.832077 0.156256
vt 0.814080 0.155493
vt 0.813514 0.123763
vt 0.840355 0.115282
vt 0.117695 0.743653
vt 0.169828 0.752232
vt 0.858837 0.144122
vt 0.863821 0.117647
vt 0.841078 0.094799
vt 0.818644 0.093938
vt 0.823355 0.080033
vt 0.834683 0.080439
vt 0.858214 0.080048
vt 0.126346 0.697050
vt 0.173734 0.715550
vt 0.296566 0.436561
vt 0.867657 0.240833
vt 0.849058 0.240569
vt 0.843799 0.202801
vt 0.865652 0.193814
vt 0.841319 0.178594
vt 0.864039 0.178838
vt 0.305593 0.193883
vt 0.307639 0.223318
vt 0.156185 0.450441
vt 0.155716 0.420298
vt 0.178065 0.419501
vt 0.178960 0.448256
vt 0.811193 0.062768
vt 0.840449 0.056497
vt 0.339809 0.250854
vt 0.320182 0.253638
vt 0.300846 0.237792
vt 0.140930 0.682658
vt 0.169338 0.688970
vt 0.695025 0.630754
vt 0.678626 0.716071
vt 0.295009 0.277048
vt 0.326954 0.278843
vt 0.718450 0.368100
vt 0.748233 0.366186
vt 0.898938 0.395653
vt 0.929983 0.394098
vt 0.816909 0.349627
vt 0.856266 0.345480
vt 0.698374 0.371230
vt 0.945087 0.469780
vt 0.948258 0.399761
s 0
usemtl Material
f 61/1/1 66/2/1 47/3/1 8/4/1
f 65/5/2 6/6/2 4/7/2 60/8/2
f 4/9/3 9/10/3 8/11/3 5/12/3
f 6/13/4 7/14/4 9/10/4 4/9/4
f 63/15/5 9/16/5 7/17/5 62/18/5
f 62/19/6 7/20/6 6/21/6 65/22/6
f 60/8/7 4/7/7 5/23/7 64/24/7
f 61/1/8 8/4/8 9/16/8 63/15/8
f 40/25/9 21/26/9 11/27/9 44/28/9
f 41/29/10 20/30/10 10/31/10 45/32/10
f 29/33/11 15/34/11 18/35/11 33/36/11
f 28/37/12 13/38/12 16/39/12 32/40/12
f 30/41/13 17/42/13 14/43/13 31/44/13
f 33/36/14 18/35/14 17/45/14 30/46/14
f 31/47/15 14/48/15 13/38/15 28/37/15
f 32/49/16 16/50/16 15/51/16 29/52/16
f 57/53/17 35/54/17 39/55/17 56/56/17
f 2/57/18 23/58/18 26/59/18 83/60/18
f 1/61/19 22/62/19 25/63/19 3/64/19
f 84/65/20 24/66/20 27/67/20 82/68/20
f 82/69/21 27/70/21 22/71/21 1/72/21
f 83/73/22 26/74/22 24/66/22 84/65/22
f 23/58/23 32/49/23 29/52/23 26/59/23
f 22/71/24 31/44/24 28/75/24 25/76/24
f 24/66/25 33/36/25 30/46/25 27/67/25
f 27/70/26 30/41/26 31/44/26 22/71/26
f 26/74/27 29/33/27 33/36/27 24/66/27
f 58/77/28 34/78/28 38/79/28 55/80/28
f 59/81/29 36/82/29 37/83/29 54/84/29
f 56/56/30 39/55/30 36/85/30 59/86/30
f 54/87/31 37/88/31 34/89/31 58/90/31
f 55/80/32 38/79/32 35/91/32 57/92/32
f 80/93/33 41/94/33 45/95/33 78/96/33
f 79/97/34 40/98/34 44/99/34 77/100/34
f 81/101/35 42/102/35 43/103/35 76/104/35
f 78/96/36 45/95/36 42/102/36 81/101/36
f 76/104/37 43/103/37 40/98/37 79/97/37
f 77/100/38 44/99/38 41/94/38 80/93/38
f 42/105/39 19/106/39 12/107/39 43/108/39
f 45/32/40 10/31/40 19/109/40 42/110/40
f 43/111/41 12/112/41 21/26/41 40/25/41
f 44/113/42 11/114/42 20/115/42 41/116/42
f 66/2/43 68/117/43 51/118/43 47/3/43
f 11/119/44 48/120/44 49/121/44 20/122/44
f 8/11/45 47/123/45 46/124/45 5/12/45
f 64/24/46 67/125/46 48/126/46 11/27/46
f 52/127/47 72/128/47 73/129/47 53/130/47
f 67/125/48 69/131/48 52/132/48 48/126/48
f 47/123/49 51/133/49 50/134/49 46/124/49
f 48/120/50 52/127/50 53/130/50 49/121/50
f 16/50/51 55/80/51 57/92/51 15/51/51
f 14/48/52 54/87/52 58/90/52 13/38/52
f 18/35/53 56/56/53 59/86/53 17/45/53
f 17/42/54 59/81/54 54/84/54 14/43/54
f 13/38/55 58/90/55 55/135/55 16/39/55
f 15/34/56 57/53/56 56/56/56 18/35/56
f 46/136/57 50/137/57 69/131/57 67/125/57
f 50/138/58 70/139/58 75/140/58 69/141/58
f 5/23/59 46/136/59 67/125/59 64/24/59
f 49/142/60 53/143/60 68/117/60 66/2/60
f 20/30/61 61/1/61 63/15/61 10/31/61
f 21/26/62 60/8/62 64/24/62 11/27/62
f 19/106/63 62/19/63 65/22/63 12/107/63
f 10/31/64 63/15/64 62/18/64 19/109/64
f 12/112/65 65/5/65 60/8/65 21/26/65
f 20/30/66 49/142/66 66/2/66 61/1/66
f 75/140/67 70/139/67 71/144/67 74/145/67
f 72/128/68 75/146/68 74/147/68 73/129/68
f 68/117/69 74/148/69 71/149/69 51/118/69
f 53/130/70 73/129/70 74/147/70 68/150/70
f 69/131/71 75/151/71 72/152/71 52/132/71
f 51/133/72 71/153/72 70/154/72 50/134/72
f 32/40/73 23/155/73 25/63/73 28/37/73
f 23/155/74 2/156/74 3/64/74 25/63/74
f 38/79/75 77/157/75 80/158/75 35/91/75
f 37/88/76 76/159/76 79/160/76 34/89/76
f 39/55/77 78/161/77 81/162/77 36/85/77
f 36/82/78 81/163/78 76/164/78 37/83/78
f 34/89/79 79/160/79 77/165/79 38/166/79
f 35/54/80 80/167/80 78/161/80 39/55/80
f 145/168/81 92/169/81 131/170/81 150/171/81
f 149/172/82 144/173/82 88/174/82 90/175/82
f 88/176/83 89/177/83 92/178/83 93/179/83
f 90/180/84 88/176/84 93/179/84 91/181/84
f 147/182/85 146/183/85 91/184/85 93/185/85
f 146/186/86 149/187/86 90/188/86 91/189/86
f 144/173/87 148/190/87 89/191/87 88/174/87
f 145/168/88 147/182/88 93/185/88 92/169/88
f 124/192/89 128/193/89 95/194/89 105/195/89
f 125/196/90 129/197/90 94/198/90 104/199/90
f 113/200/91 117/201/91 102/202/91 99/203/91
f 112/204/92 116/205/92 100/206/92 97/207/92
f 114/208/93 115/209/93 98/210/93 101/211/93
f 117/201/94 114/212/94 101/213/94 102/202/94
f 115/214/95 112/204/95 97/207/95 98/215/95
f 116/216/96 113/217/96 99/218/96 100/219/96
f 141/220/97 140/221/97 123/222/97 119/223/97
f 86/224/98 83/225/98 110/226/98 107/227/98
f 85/228/99 87/229/99 109/230/99 106/231/99
f 84/232/100 82/233/100 111/234/100 108/235/100
f 82/236/101 85/237/101 106/238/101 111/239/101
f 83/240/102 84/241/102 108/242/102 110/243/102
f 107/227/103 110/226/103 113/217/103 116/216/103
f 106/231/104 109/230/104 112/204/104 115/214/104
f 108/235/105 111/234/105 114/212/105 117/201/105
f 111/239/106 106/238/106 115/209/106 114/208/106
f 110/244/107 108/235/107 117/201/107 113/200/107
f 142/245/108 139/246/108 122/247/108 118/248/108
f 143/249/109 138/250/109 121/251/109 120/252/109
f 140/253/110 143/254/110 120/255/110 123/256/110
f 138/257/111 142/245/111 118/248/111 121/258/111
f 139/259/112 141/220/112 119/223/112 122/260/112
f 164/261/113 162/262/113 129/263/113 125/264/113
f 163/265/114 161/266/114 128/267/114 124/268/114
f 165/269/115 160/270/115 127/271/115 126/272/115
f 162/262/116 165/269/116 126/272/116 129/263/116
f 160/270/117 163/265/117 124/268/117 127/271/117
f 161/266/118 164/261/118 125/264/118 128/267/118
f 126/273/119 127/274/119 96/275/119 103/276/119
f 129/197/120 126/277/120 103/278/120 94/198/120
f 127/279/121 124/192/121 105/195/121 96/280/121
f 128/281/122 125/282/122 104/283/122 95/284/122
f 150/171/123 131/170/123 135/285/123 152/286/123
f 95/287/124 104/288/124 133/289/124 132/290/124
f 92/178/125 89/177/125 130/291/125 131/292/125
f 148/293/126 95/287/126 132/290/126 151/294/126
f 136/295/127 137/296/127 157/297/127 156/298/127
f 151/294/128 132/290/128 136/295/128 153/299/128
f 131/292/129 130/291/129 134/300/129 135/301/129
f 132/290/130 133/289/130 137/296/130 136/295/130
f 100/219/131 99/218/131 141/220/131 139/259/131
f 98/215/132 97/207/132 142/245/132 138/257/132
f 102/202/133 101/213/133 143/254/133 140/253/133
f 101/211/134 98/210/134 138/250/134 143/249/134
f 97/207/135 100/206/135 139/246/135 142/245/135
f 99/218/136 102/302/136 140/221/136 141/220/136
f 130/303/137 151/304/137 153/305/137 134/306/137
f 134/306/138 153/305/138 159/307/138 154/308/138
f 89/191/139 148/190/139 151/304/139 130/303/139
f 133/309/140 150/171/140 152/286/140 137/310/140
f 104/199/141 94/198/141 147/182/141 145/168/141
f 105/195/142 95/194/142 148/190/142 144/173/142
f 103/276/143 96/275/143 149/187/143 146/186/143
f 94/198/144 103/278/144 146/183/144 147/182/144
f 96/280/145 105/195/145 144/173/145 149/172/145
f 104/199/146 145/168/146 150/171/146 133/309/146
f 159/311/147 158/312/147 155/313/147 154/314/147
f 156/298/148 157/297/148 158/315/148 159/316/148
f 152/286/149 135/285/149 155/317/149 158/318/149
f 137/310/150 152/286/150 158/318/150 157/319/150
f 153/299/151 136/295/151 156/298/151 159/316/151
f 135/301/152 134/300/152 154/320/152 155/321/152
f 116/205/153 112/204/153 109/230/153 107/322/153
f 107/322/154 109/230/154 87/229/154 86/323/154
f 122/260/155 119/223/155 164/324/155 161/325/155
f 121/258/156 118/248/156 163/326/156 160/327/156
f 123/256/157 120/255/157 165/328/157 162/329/157
f 120/252/158 121/251/158 160/330/158 165/331/158
f 118/248/159 122/247/159 161/332/159 163/326/159
f 119/333/160 123/256/160 162/329/160 164/334/160
