# Blender 5.0.0
# www.blender.org
mtllib photoBody.mtl
o photographer.002
v -0.001003 2.413141 -0.169061
v 0.927409 2.583301 0.719171
v 0.938646 2.491395 0.680265
v 1.017807 2.656968 0.725208
v -0.001123 2.760519 0.008765
v 0.455012 2.012496 -0.991047
v 0.397564 2.107416 -0.308817
v 0.513781 1.847593 -0.710096
v 0.484976 1.611199 -1.018767
v 0.626406 2.727530 -0.629698
v 0.381924 1.797424 -0.223618
v 0.624857 1.622331 -0.606108
v 0.436254 2.555675 -0.146378
v 0.661358 2.531046 -0.220385
v 1.082631 2.438595 0.612105
v 1.197010 2.483535 0.598653
v 1.144282 2.662061 0.691210
v 0.775307 3.212277 -0.172771
v 0.473177 2.930787 0.178182
v 0.695191 3.363507 -0.003495
v 0.143258 3.472673 0.134393
v 0.163580 3.474857 -0.077510
v 0.141801 3.192291 0.157127
v 0.214901 3.334114 0.160690
v 0.153565 3.318062 0.364249
v 0.179486 3.390819 0.295906
v 1.017002 2.964562 0.312145
v 0.726299 2.849202 0.343863
v 0.822107 3.012971 0.345784
v 0.982744 2.750812 0.047538
v 0.688093 2.698998 0.300222
v 0.824843 2.659957 0.124605
v 1.252299 2.191980 1.006147
v 1.151028 2.311858 0.945314
v 1.212320 2.268549 0.929113
v 1.193510 2.177314 1.019763
v 0.951220 2.428985 0.966570
v 0.955496 2.165758 0.953359
v 1.120415 2.476874 1.081119
v 0.894963 2.621314 0.933031
v 1.019890 2.583874 0.967603
v 1.049901 2.420958 1.183377
v 0.759265 2.579177 1.037630
v 0.766364 2.531912 1.119608
v 0.562400 3.381069 1.013177
v 0.555961 3.355488 0.954059
v 0.588338 3.385751 0.996629
v 0.521062 3.351943 1.056925
v 0.479869 3.333026 0.917394
v 0.480279 3.298066 0.999643
v 0.168489 3.530423 0.169674
v 0.194112 3.318884 0.634993
v 0.239828 3.439435 0.392979
v 0.209146 3.892947 0.793601
v 0.338488 3.819107 0.605075
v 0.264062 3.535632 0.254147
v 0.346552 3.613136 0.392932
v 0.248630 3.487551 0.747958
v 0.511809 3.471378 1.076513
v 0.508010 3.502182 0.972289
v 0.572523 3.497823 1.046759
v 0.478137 3.442809 1.077962
v 0.486640 3.463214 0.930745
v 0.475705 3.417219 1.028248
v 0.489708 3.729451 1.224155
v 0.641609 3.812329 1.042463
v 0.634501 3.805298 1.104355
v 0.384798 3.695318 1.217622
v 0.532943 3.747638 0.994317
v 0.376320 3.660922 1.132794
v 0.289351 3.919629 1.099357
v 0.356492 3.990850 0.986643
v 0.347452 3.988520 1.019459
v 0.238295 3.872928 1.107268
v 0.328601 3.945220 0.993015
v 0.228938 3.873646 1.078599
v -0.001123 2.914281 0.088548
v 0.393645 3.383913 0.085603
v 0.343124 3.461583 -0.096810
v 0.184372 2.996782 0.110036
v -0.001439 2.065237 -0.093766
v 0.465354 1.726230 -1.028432
v 0.650126 1.754742 -0.662291
v 0.445578 1.909089 -0.132511
v 1.327108 2.252576 0.581199
v 1.127836 2.173017 0.603003
v 0.883904 2.247879 0.719586
v 1.243783 2.165743 1.004359
v 0.870276 2.598800 0.793681
v 1.030158 2.722972 0.806498
v 1.247716 2.739216 0.747576
v 0.920182 2.501182 1.037667
v 0.990409 2.084155 0.860729
v 1.292969 2.426077 1.128506
v 0.887800 2.278959 0.887994
v 1.088892 2.553265 1.081698
v 0.134525 3.587658 0.110626
v 0.239866 4.093823 0.118767
v 0.211656 4.005877 0.854637
v 0.370282 3.978077 0.628073
v 0.243086 3.725530 0.127810
v 0.350810 3.669005 0.379834
v 0.258801 4.186073 0.556987
v 0.179957 4.090152 0.808040
v 0.226752 4.203452 0.368714
v -0.000669 3.665936 0.073899
v -0.000669 4.128289 0.058446
v -0.000669 3.989716 0.922978
v -0.000669 3.889066 0.014336
v -0.000669 4.272063 0.575273
v -0.000669 4.141271 0.850486
v -0.000669 4.250393 0.268936
v -0.389695 2.614982 0.520674
v -0.355265 2.532220 0.477633
v -0.504376 2.632492 0.533894
v -0.455012 2.305992 -0.957101
v -0.328187 2.459214 -0.186074
v -0.513781 2.345684 -0.670274
v -0.484976 2.092127 -1.018767
v -0.463218 2.843274 -0.761422
v -0.381923 2.120775 -0.325145
v -0.624857 2.161433 -0.606108
v -0.319556 2.793505 -0.087028
v -0.379531 2.698491 -0.490442
v -0.475152 2.091413 -0.142193
v -0.167137 2.079207 0.051806
v -0.291261 2.205494 0.601179
v -0.511459 2.187488 0.582675
v -0.456527 2.419736 0.412972
v -0.578512 2.401152 0.406162
v -0.617891 2.573988 0.504916
v -0.698932 3.348002 -0.309620
v -0.320485 2.981699 0.174278
v -0.548852 3.258625 0.056951
v -0.143258 3.472673 0.134393
v -0.163580 3.474857 -0.077510
v -0.141800 3.192291 0.157127
v -0.214901 3.334114 0.160690
v -0.153565 3.318062 0.364249
v -0.179486 3.390819 0.295906
v -0.787824 2.885275 0.091625
v -0.462942 2.913500 0.190992
v -0.642350 3.024755 0.120613
v -0.665895 2.734590 -0.183012
v -0.371706 2.825282 0.054167
v -0.481033 2.733907 -0.116496
v -0.458917 2.229457 0.899456
v -0.476618 2.396131 0.836177
v -0.535191 2.288187 0.860613
v -0.401378 2.173987 0.924625
v -0.306925 2.311039 0.738844
v -0.351738 2.186990 0.728800
v -0.449166 2.351404 1.150091
v -0.362547 2.641960 1.036334
v -0.439146 2.570509 1.125830
v -0.304575 2.307387 1.084100
v -0.056766 2.570717 1.029695
v -0.082961 2.497789 1.001915
v -0.139414 3.054879 1.516546
v -0.169893 3.151009 1.467206
v -0.168617 3.065440 1.525367
v -0.091723 3.053064 1.476621
v -0.137935 3.192969 1.397515
v -0.093298 3.115812 1.403982
v -0.168489 3.530423 0.169674
v -0.194112 3.318884 0.634993
v -0.239828 3.439435 0.392979
v -0.209146 3.892947 0.793601
v -0.338488 3.819107 0.605075
v -0.264062 3.535632 0.254147
v -0.346552 3.613136 0.392932
v -0.248630 3.487551 0.747958
v -0.030738 3.122379 1.536462
v -0.097239 3.183151 1.604550
v -0.054978 3.092364 1.588217
v -0.024126 3.147167 1.489054
v -0.085277 3.223472 1.501226
v -0.032062 3.177224 1.431264
v 0.274461 3.406316 1.524951
v 0.240015 3.310982 1.787373
v 0.299777 3.296531 1.746974
v 0.199689 3.462958 1.466516
v 0.124587 3.341777 1.778226
v 0.119813 3.448093 1.509523
v 0.203457 3.684320 1.622712
v 0.173337 3.592553 1.895159
v 0.189325 3.606688 1.868538
v 0.157191 3.691909 1.571213
v 0.138922 3.593643 1.853745
v 0.134103 3.699894 1.588911
v -0.393645 3.332153 0.074020
v -0.343124 3.492608 -0.239336
v -0.184372 2.996782 0.110036
v -0.465354 2.205047 -1.028432
v -0.650126 2.347006 -0.662291
v -0.445578 2.246084 -0.234038
v -0.677482 2.191040 0.409387
v -0.464385 2.223196 0.419731
v -0.285424 2.523505 0.512622
v -0.435090 2.087254 0.794795
v -0.343938 2.655189 0.593744
v -0.543555 2.680928 0.618958
v -0.742632 2.586382 0.568988
v -0.323478 2.539170 0.833888
v -0.183962 2.150871 0.638246
v -0.601498 2.283241 0.934225
v -0.192257 2.368145 0.671602
v -0.492530 2.497457 0.886765
v -0.134525 3.587658 0.110626
v -0.239866 4.093823 0.118767
v -0.211656 4.005877 0.854637
v -0.370282 3.978077 0.628073
v -0.243086 3.725530 0.127810
v -0.350810 3.669005 0.379834
v -0.258801 4.186073 0.556987
v -0.179957 4.090152 0.808040
v -0.226752 4.203452 0.368714
v 0.000000 2.265138 -1.116634
v 0.000000 2.187929 -0.247873
v 0.000000 1.825250 -1.126684
v 0.000000 1.940656 -0.170668
v 0.000000 2.842417 -0.879670
v 0.000000 3.135610 -0.671860
v 0.000000 3.498338 -0.076652
v 0.000000 3.106249 0.116319
v 0.000000 3.518690 0.146608
v 0.000000 3.287242 0.715707
v 0.000000 3.878689 0.854885
v 0.000000 3.438665 0.816711
v 0.000000 3.491726 0.079463
v 0.000000 3.274433 0.401106
v 0.000000 1.927027 -1.122356
v 0.000000 3.446980 -0.309372
v -0.113846 3.433864 1.008261
v -0.113846 3.766078 1.080577
v -0.113846 3.484485 0.775711
v -0.113846 3.816700 0.848026
v 0.464144 3.433864 1.008261
v 0.464144 3.766078 1.080577
v 0.464144 3.484485 0.775711
v 0.464144 3.816700 0.848026
v 0.168932 3.545510 1.708348
v 0.016512 3.631496 1.727065
v 0.016512 3.829686 0.947521
v 0.016512 3.497765 2.506915
v 0.193049 3.730093 0.925842
v 0.199417 3.394581 2.484454
v 0.193049 3.530910 0.882484
v 0.199417 3.188214 2.439533
v 0.016512 3.431318 0.860805
v 0.016512 3.085030 2.417073
v -0.160026 3.530910 0.882484
v -0.166393 3.188214 2.439533
v -0.160026 3.730093 0.925842
v -0.166393 3.394581 2.484454
v 0.168932 3.373537 1.670914
v 0.016512 3.287550 1.652196
v -0.135909 3.373537 1.670914
v -0.135909 3.545510 1.708348
v -0.122052 3.525532 1.762515
v -0.122052 3.369193 1.728484
v 0.016512 3.603702 1.779531
v 0.016512 3.291023 1.711468
v 0.155076 3.369193 1.728484
v 0.155076 3.525532 1.762515
v 0.016512 3.565196 2.106874
v -0.149765 3.471392 2.086455
v -0.149765 3.283785 2.045618
v 0.016512 3.189982 2.025199
v 0.182789 3.283785 2.045618
v 0.182789 3.471392 2.086455
v -0.122052 3.458837 2.068910
v -0.122052 3.302497 2.034879
v 0.016512 3.224328 2.017864
v 0.155076 3.302497 2.034879
v 0.155076 3.458837 2.068910
v 0.016512 3.537006 2.085926
v 0.168932 3.595190 1.480119
v 0.168932 3.423217 1.442685
v 0.016512 3.337231 1.423967
v -0.135909 3.423217 1.442685
v 0.016512 3.681176 1.498836
v -0.135909 3.595190 1.480119
v 0.193049 3.613813 1.460031
v 0.193049 3.414629 1.416674
v 0.016512 3.315037 1.394995
v -0.160026 3.414629 1.416674
v -0.160026 3.613813 1.460031
v 0.016512 3.713405 1.481710
v 0.071906 3.144361 1.757947
v 0.098821 3.099345 1.762443
v 0.061508 3.233910 1.742750
v 0.216794 3.250709 1.824680
v 0.276197 3.242222 1.763742
v 0.141901 3.280631 1.817665
v 0.017379 3.183805 1.894357
v 0.019047 3.169707 1.906320
v 0.027816 3.208629 1.876629
v 0.082579 3.210251 1.926125
v 0.090236 3.204303 1.919996
v 0.064970 3.221708 1.906794
v -0.037268 3.206524 1.920238
v -0.043923 3.195764 1.933823
v -0.022742 3.232499 1.907837
v -0.042996 3.263981 1.971477
v -0.033032 3.262618 1.976993
v -0.036134 3.263982 1.943765
v 0.519792 3.553966 0.921758
v 0.574538 3.568181 0.928422
v 0.493273 3.568708 0.935622
v 0.556440 3.692750 0.952524
v 0.592259 3.668952 0.952352
v 0.510329 3.658781 0.962782
v 0.461411 3.666697 0.841178
v 0.495291 3.675494 0.845302
v 0.445000 3.675820 0.849758
v 0.484091 3.752583 0.860217
v 0.506257 3.737855 0.860111
v 0.455555 3.731561 0.866566
v 0.143315 3.484485 0.775711
v 0.143315 3.816700 0.848026
v 0.143315 3.433864 1.008261
v 0.143315 3.766078 1.080577
v -0.055797 3.777505 1.028082
v -0.055797 3.805273 0.900521
v 0.085265 3.805273 0.900521
v 0.085265 3.777505 1.028082
v -0.038195 3.858351 1.029009
v -0.038195 3.879189 0.933282
v 0.067663 3.879189 0.933282
v 0.067663 3.858351 1.029009
v 0.016512 3.449613 2.459366
v 0.152139 3.373100 2.442711
v 0.152139 3.220075 2.409401
v 0.016512 3.143563 2.392746
v -0.119115 3.220075 2.409401
v -0.119115 3.373100 2.442711
vn 0.8742 0.0666 -0.4810
vn -0.4092 -0.3381 0.8475
vn -0.9761 0.1077 0.1889
vn -0.0682 0.3398 -0.9380
vn -0.5477 0.4836 -0.6828
vn -0.2276 -0.7812 -0.5813
vn 0.1100 0.5566 -0.8234
vn -0.9184 0.1212 0.3767
vn -0.6718 -0.7097 -0.2122
vn -0.8865 -0.1991 0.4177
vn -0.0292 -0.8900 -0.4551
vn -0.1319 -0.9908 -0.0310
vn -0.3874 0.1711 -0.9059
vn -0.0233 0.5715 -0.8202
vn -0.8927 0.2615 0.3670
vn -0.1806 -0.7356 0.6529
vn -0.9062 0.3439 -0.2459
vn -0.8809 -0.4684 -0.0679
vn -0.3485 0.8082 -0.4747
vn 0.5098 -0.6934 0.5093
vn 0.9374 -0.2912 -0.1911
vn -0.6764 0.6962 0.2403
vn 0.7108 0.3327 -0.6197
vn -0.0428 0.9515 -0.3048
vn 0.4694 -0.4745 -0.7446
vn -0.1651 -0.1594 0.9733
vn 0.6851 0.1814 0.7055
vn 0.6672 0.4291 -0.6089
vn 0.4415 0.0449 0.8961
vn 0.8053 -0.1037 0.5837
vn 0.8515 0.2399 -0.4663
vn -0.8638 -0.4995 0.0664
vn 0.3548 0.0347 -0.9343
vn -0.6646 -0.0091 -0.7472
vn 0.2996 0.5752 -0.7612
vn -0.8561 -0.4923 0.1570
vn 0.3903 0.2678 0.8809
vn -0.6864 -0.3391 0.6433
vn 0.9986 -0.0173 0.0507
vn 0.2539 0.1690 0.9523
vn 0.9205 0.3646 0.1405
vn -0.4357 -0.2468 0.8656
vn -0.5855 -0.4202 -0.6933
vn -0.2141 0.9768 -0.0079
vn -0.8223 0.5485 0.1518
vn -0.9711 0.1707 -0.1668
vn -0.7558 0.2785 -0.5926
vn -0.8883 0.1794 0.4227
vn -0.2827 0.0815 -0.9557
vn -0.9220 0.0873 -0.3772
vn -0.8994 0.4357 -0.0368
vn -0.3546 0.5606 -0.7483
vn -0.6991 0.6391 0.3208
vn -0.6126 0.3826 0.6916
vn -0.2894 0.4799 -0.8282
vn -0.6542 0.2983 -0.6950
vn 0.8430 0.4625 -0.2746
vn -0.5643 0.0909 -0.8206
vn 0.7825 0.3053 -0.5427
vn -0.5283 0.2767 -0.8027
vn -0.5469 -0.1747 0.8188
vn -0.4967 -0.8513 -0.1688
vn 0.4085 0.4570 0.7901
vn -0.4107 0.7544 0.5121
vn 0.8351 -0.0889 0.5429
vn -0.5844 0.2886 0.7584
vn -0.1729 0.4530 -0.8746
vn 0.7583 -0.5469 0.3549
vn 0.6355 -0.7474 -0.1939
vn 0.1948 -0.3913 -0.8994
vn 0.8201 0.5005 -0.2774
vn -0.2134 -0.6751 -0.7062
vn -0.2031 -0.1167 0.9722
vn 0.4412 0.8799 0.1766
vn 0.5916 -0.4413 -0.6747
vn -0.7808 0.3578 -0.5122
vn -0.9504 -0.2327 0.2064
vn -0.2465 0.8290 0.5020
vn -0.2055 0.0055 0.9787
vn -0.0940 -0.9784 0.1840
vn -0.0655 -0.2108 -0.9753
vn -0.3060 -0.9367 0.1702
vn -0.3264 -0.7254 0.6060
vn -0.4060 -0.5475 0.7317
vn -0.2643 -0.0708 0.9618
vn -0.8305 -0.5557 -0.0389
vn -0.9012 -0.3413 0.2672
vn -0.2752 -0.7086 -0.6497
vn 0.1695 0.2729 -0.9470
vn 0.0841 0.1977 -0.9767
vn -0.3617 0.9244 0.1212
vn -0.9982 -0.0184 -0.0564
vn -0.2267 -0.8012 -0.5537
vn 0.9918 0.0170 -0.1266
vn 0.6603 0.6884 0.3002
vn 0.4778 -0.7363 -0.4791
vn 0.0627 0.7138 -0.6975
vn -0.4010 -0.4004 0.8240
vn 0.1062 0.7929 -0.6001
vn 0.1164 -0.0120 0.9931
vn 0.0845 0.5065 -0.8581
vn 0.2127 -0.7612 0.6127
vn -0.7259 -0.5314 -0.4367
vn -0.3573 -0.0557 0.9323
vn -0.9562 -0.2179 0.1953
vn -0.2557 0.1882 0.9482
vn -0.9194 0.0016 0.3933
vn -0.3223 -0.8509 -0.4148
vn -0.2785 -0.4625 -0.8418
vn -0.2673 -0.9633 0.0257
vn -0.2938 -0.8572 0.4230
vn -0.8912 -0.4397 0.1111
vn -0.0488 0.5351 0.8433
vn -0.8822 -0.4156 -0.2214
vn 0.2569 -0.3481 0.9016
vn 0.9915 -0.1128 -0.0655
vn 0.0917 0.3005 -0.9494
vn 0.9647 -0.1020 -0.2429
vn -0.0555 -0.9848 0.1649
vn 0.5475 -0.5255 -0.6512
vn 0.4857 0.5713 -0.6616
vn 0.9277 0.0971 0.3604
vn 0.7207 -0.5054 -0.4745
vn 0.9296 0.1218 0.3478
vn 0.2573 -0.8673 -0.4261
vn 0.1319 -0.9908 -0.0310
vn 0.3932 0.1712 -0.9034
vn 0.2858 0.6079 -0.7408
vn 0.8927 0.2615 0.3670
vn 0.1806 -0.7356 0.6529
vn 0.9062 0.3439 -0.2459
vn 0.8809 -0.4684 -0.0679
vn 0.3485 0.8082 -0.4747
vn -0.0598 -0.8697 0.4900
vn 0.2908 0.5983 -0.7467
vn 0.2984 0.9396 0.1676
vn -0.5646 0.6110 -0.5549
vn -0.3041 0.9288 -0.2119
vn 0.1111 -0.3357 -0.9354
vn 0.8390 -0.5072 0.1968
vn -0.8092 0.1846 0.5578
vn -0.7332 -0.1236 -0.6687
vn -0.5122 0.0200 0.8586
vn -0.4625 -0.5858 0.6655
vn -0.4904 0.1614 -0.8564
vn 0.7793 0.0230 -0.6263
vn -0.7871 0.3936 -0.4750
vn 0.2727 0.7833 -0.5586
vn -0.6869 0.7112 -0.1498
vn 0.9377 0.1527 -0.3120
vn -0.0600 -0.6729 0.7373
vn 0.7293 0.0178 -0.6839
vn -0.3203 -0.6217 0.7147
vn 0.1313 -0.5804 0.8037
vn -0.9856 -0.1355 0.1011
vn 0.9050 -0.4253 0.0094
vn -0.3105 0.5265 -0.7915
vn 0.2141 0.9768 -0.0079
vn 0.8223 0.5485 0.1518
vn 0.9711 0.1706 -0.1668
vn 0.7558 0.2785 -0.5926
vn 0.8883 0.1794 0.4227
vn 0.2827 0.0815 -0.9557
vn 0.9220 0.0873 -0.3772
vn 0.8993 0.4357 -0.0368
vn 0.3546 0.5606 -0.7483
vn 0.6991 0.6391 0.3208
vn 0.6126 0.3826 0.6916
vn 0.2901 0.4811 -0.8273
vn -0.6050 0.7082 0.3640
vn -0.1641 0.0114 0.9864
vn -0.6410 0.7400 -0.2039
vn -0.7487 0.5131 0.4197
vn -0.3789 0.9247 -0.0373
vn 0.6792 -0.7146 -0.1674
vn -0.6596 0.0917 -0.7460
vn 0.9983 -0.0456 -0.0361
vn 0.6502 -0.5164 -0.5573
vn 0.7387 -0.6739 -0.0139
vn -0.6550 -0.0867 -0.7506
vn -0.5106 0.4905 0.7062
vn 0.3296 -0.8770 -0.3496
vn -0.0860 -0.9602 -0.2659
vn -0.7239 -0.3895 0.5695
vn 0.5010 -0.2837 0.8176
vn -0.9606 -0.2653 -0.0833
vn 0.3644 0.3344 -0.8691
vn -0.8208 0.4651 0.3316
vn -0.2028 -0.7452 -0.6352
vn 0.8342 0.2912 -0.4682
vn 0.9093 0.4148 0.0334
vn -0.1703 0.8453 0.5064
vn 0.2105 0.0051 0.9776
vn -0.0300 -0.9947 0.0984
vn -0.0673 -0.2874 -0.9554
vn 0.4176 -0.8314 -0.3666
vn 0.1025 -0.7257 0.6803
vn 0.2167 -0.5832 0.7829
vn 0.2050 -0.1739 0.9632
vn 0.6422 -0.7194 -0.2647
vn 0.4010 -0.8329 0.3813
vn -0.0662 -0.2793 -0.9579
vn -0.2015 0.2497 -0.9471
vn -0.0844 0.1982 -0.9765
vn -0.0841 0.9347 0.3453
vn 0.8720 0.4448 -0.2044
vn 0.5671 -0.5608 -0.6032
vn -0.8722 -0.4825 -0.0798
vn -0.6935 0.0534 0.7185
vn -0.0684 -0.8636 -0.4995
vn -0.4520 0.3149 -0.8346
vn 0.4963 -0.2820 0.8211
vn -0.7634 0.2416 -0.5991
vn -0.0571 0.0395 0.9976
vn -0.4895 0.3268 -0.8085
vn 0.2363 -0.7809 0.5782
vn 0.7259 -0.5314 -0.4367
vn 0.3591 -0.0557 0.9316
vn 0.9562 -0.2179 0.1953
vn 0.2571 0.1886 0.9478
vn 0.9194 0.0016 0.3933
vn 0.3241 -0.8502 -0.4148
vn 0.2802 -0.4625 -0.8412
vn 0.2687 -0.9629 0.0258
vn 0.2954 -0.8567 0.4228
vn 0.8912 -0.4397 0.1111
vn 0.0489 0.5354 0.8432
vn -1.0000 -0.0000 -0.0000
vn -0.0000 0.2127 -0.9771
vn 1.0000 -0.0000 -0.0000
vn -0.0000 -0.2127 0.9771
vn -0.0000 -0.9771 -0.2127
vn -0.0000 0.9771 0.2127
vn 0.4859 -0.8725 0.0511
vn 0.4996 0.8542 0.1440
vn 0.9719 -0.0501 0.2301
vn 0.5000 -0.8462 -0.1842
vn 0.9992 0.0087 -0.0401
vn -0.9719 -0.0501 0.2301
vn -0.5000 -0.8462 -0.1842
vn 0.4996 -0.8368 -0.2241
vn -0.4859 0.7723 0.4092
vn -0.4996 -0.8368 -0.2241
vn 0.6081 -0.1688 0.7757
vn -0.5000 0.8462 0.1842
vn -0.9992 0.0087 -0.0401
vn -0.4859 -0.8725 0.0511
vn 0.5000 0.8462 0.1842
vn -0.4996 0.8542 0.1440
vn 0.4859 0.7723 0.4092
vn -0.2315 0.5802 -0.7809
vn -0.4629 0.1885 -0.8661
vn -0.2315 -0.2032 -0.9514
vn 0.2315 -0.2032 -0.9514
vn 0.4629 0.1885 -0.8661
vn 0.2315 0.5802 -0.7809
vn 0.3496 0.4396 0.8273
vn -0.3496 0.4396 0.8273
vn -0.6992 -0.1521 0.6985
vn -0.3496 -0.7438 0.5697
vn 0.3496 -0.7438 0.5697
vn 0.6992 -0.1521 0.6985
vn 0.9483 0.0875 0.3049
vn -0.1768 -0.7787 -0.6020
vn 0.6726 0.3971 -0.6245
vn -0.0969 -0.5284 -0.8434
vn 0.8003 -0.2967 -0.5210
vn -0.5676 0.6208 0.5408
vn -0.1201 0.5575 -0.8214
vn 0.5236 0.5573 0.6444
vn 0.5044 -0.8603 -0.0746
vn -0.6416 0.2997 -0.7061
vn 0.8520 0.4739 0.2226
vn -0.4816 0.7170 -0.5039
vn 0.9111 -0.1714 0.3748
vn 0.9893 0.0601 -0.1332
vn -0.4242 -0.8974 -0.1216
vn 0.5383 0.2182 0.8140
vn -0.0927 -0.8098 0.5793
vn -0.3792 -0.9213 0.0865
vn 0.6034 0.6463 0.4670
vn 0.3295 -0.6532 -0.6817
vn 0.1544 -0.5559 0.8168
vn 0.8526 -0.0177 -0.5222
vn -0.9798 0.1705 0.1042
vn -0.8992 0.0355 0.4360
vn 0.3724 -0.3089 0.8751
vn -0.0913 -0.2019 0.9751
vn 0.8649 -0.0125 -0.5018
vn -0.5507 -0.8281 -0.1051
vn -0.2287 0.4850 0.8441
vn -0.7417 -0.0287 0.6701
vn 0.9762 0.2120 0.0461
vn -0.0000 -0.0115 0.9999
vn -0.0000 0.4052 -0.9142
vn -0.9762 0.2120 0.0461
vn -0.6081 -0.1688 0.7757
vn 0.2952 -0.6713 0.6798
vn -0.2952 -0.6713 0.6798
vn -0.3133 0.3645 0.8769
vn 0.3133 0.3645 0.8769
vt 0.374379 0.147775
vt 0.354013 0.054322
vt 0.356173 0.047416
vt 0.377223 0.136050
vt 0.408938 0.158897
vt 0.416504 0.174093
vt 0.429816 0.130554
vt 0.426528 0.118074
vt 0.417574 0.105249
vt 0.396625 0.133310
vt 0.401053 0.108624
vt 0.400091 0.110114
vt 0.395915 0.122225
vt 0.388804 0.140962
vt 0.374437 0.158213
vt 0.354269 0.061588
vt 0.353146 0.060411
vt 0.372848 0.161561
vt 0.397485 0.081331
vt 0.399169 0.078858
vt 0.403300 0.071431
vt 0.401243 0.072501
vt 0.416762 0.096358
vt 0.430375 0.094723
vt 0.431073 0.084797
vt 0.416015 0.083942
vt 0.388892 0.189788
vt 0.381719 0.198838
vt 0.385447 0.145979
vt 0.294081 0.100229
vt 0.289241 0.085237
vt 0.305123 0.129135
vt 0.307165 0.127449
vt 0.539632 0.772448
vt 0.558892 0.769435
vt 0.553345 0.767076
vt 0.539006 0.768446
vt 0.303854 0.016551
vt 0.293882 0.055317
vt 0.386693 0.147651
vt 0.379345 0.158305
vt 0.356201 0.559202
vt 0.331713 0.563921
vt 0.330501 0.664082
vt 0.350773 0.640429
vt 0.560358 0.759062
vt 0.558620 0.761423
vt 0.569349 0.816700
vt 0.584343 0.792027
vt 0.575973 0.780760
vt 0.565424 0.792552
vt 0.568230 0.831967
vt 0.588988 0.798850
vt 0.349761 0.064197
vt 0.351312 0.053994
vt 0.347311 0.013433
vt 0.347648 0.014971
vt 0.341347 0.032049
vt 0.347944 0.012795
vt 0.383610 0.136613
vt 0.666944 0.961284
vt 0.660986 0.907106
vt 0.656733 0.901298
vt 0.667114 0.953668
vt 0.665531 0.933433
vt 0.667469 0.906785
vt 0.676311 0.913504
vt 0.672219 0.978358
vt 0.349611 0.023129
vt 0.341818 0.043818
vt 0.358988 0.044456
vt 0.355183 0.043136
vt 0.359860 0.039377
vt 0.346888 0.035854
vt 0.349697 0.013917
vt 0.353612 0.009062
vt 0.350932 0.024912
vt 0.674473 0.923468
vt 0.641236 0.770960
vt 0.639597 0.770429
vt 0.642496 0.785276
vt 0.646071 0.775209
vt 0.685410 0.931334
vt 0.677888 0.975334
vt 0.676215 0.973060
vt 0.640781 0.750591
vt 0.633905 0.751040
vt 0.636647 0.776250
vt 0.633999 0.780651
vt 0.631309 0.758323
vt 0.641518 0.764578
vt 0.377630 0.471774
vt 0.339334 0.407838
vt 0.339250 0.443360
vt 0.369313 0.503966
vt 0.404479 0.313750
vt 0.370923 0.395197
vt 0.367286 0.458058
vt 0.406550 0.335842
vt 0.341104 0.424396
vt 0.331450 0.469052
vt 0.426430 0.283103
vt 0.446413 0.358194
vt 0.621715 0.764314
vt 0.611993 0.688959
vt 0.606015 0.687515
vt 0.614023 0.757108
vt 0.591150 0.703069
vt 0.578103 0.741446
vt 0.278950 0.510204
vt 0.282436 0.659007
vt 0.285245 0.467942
vt 0.319716 0.647883
vt 0.439792 0.281043
vt 0.449131 0.303675
vt 0.331411 0.418757
vt 0.320640 0.462661
vt 0.644268 0.754608
vt 0.649911 0.708411
vt 0.636788 0.697441
vt 0.643689 0.721511
vt 0.650342 0.714314
vt 0.645255 0.759437
vt 0.623610 0.667673
vt 0.620568 0.667802
vt 0.630971 0.697235
vt 0.628548 0.708993
vt 0.622512 0.675451
vt 0.632408 0.686242
vt 0.627954 0.740529
vt 0.627777 0.743050
vt 0.628591 0.740325
vt 0.635026 0.685906
vt 0.632911 0.678100
vt 0.359049 0.048547
vt 0.433314 0.099531
vt 0.434373 0.091032
vt 0.304332 0.134073
vt 0.325628 0.136839
vt 0.381097 0.165376
vt 0.378474 0.198603
vt 0.384050 0.209171
vt 0.391488 0.212610
vt 0.406736 0.194284
vt 0.382574 0.158881
vt 0.379902 0.174481
vt 0.377729 0.180850
vt 0.359898 0.046574
vt 0.351641 0.066864
vt 0.343798 0.040388
vt 0.348667 0.026431
vt 0.338820 0.502376
vt 0.378530 0.540306
vt 0.447844 0.503828
vt 0.457385 0.517457
vt 0.464362 0.422861
vt 0.408309 0.547178
vt 0.454940 0.334629
vt 0.332106 0.522590
vt 0.375637 0.574309
vt 0.424091 0.565740
vt 0.443440 0.276403
vt 0.379060 0.156564
vt 0.384553 0.152122
vt 0.362773 0.055317
vt 0.360553 0.061360
vt 0.412431 0.171566
vt 0.423966 0.130497
vt 0.404411 0.153384
vt 0.414568 0.119822
vt 0.399089 0.118146
vt 0.390359 0.146240
vt 0.447708 0.470035
vt 0.440769 0.490948
vt 0.415314 0.713016
vt 0.437312 0.552265
vt 0.382728 0.156364
vt 0.380484 0.167505
vt 0.359942 0.062548
vt 0.361462 0.058245
vt 0.403897 0.100968
vt 0.399644 0.109547
vt 0.414282 0.119758
vt 0.413193 0.110576
vt 0.428551 0.108598
vt 0.427872 0.118346
vt 0.392382 0.204257
vt 0.380579 0.188653
vt 0.393518 0.149676
vt 0.296647 0.089914
vt 0.318295 0.142416
vt 0.379024 0.162690
vt 0.357681 0.063150
vt 0.356584 0.064769
vt 0.350612 0.015243
vt 0.355851 0.010772
vt 0.349304 0.024258
vt 0.350981 0.020480
vt 0.391238 0.148157
vt 0.660151 0.959042
vt 0.656810 0.953036
vt 0.670641 0.896948
vt 0.677800 0.912732
vt 0.648437 0.957105
vt 0.651242 0.978337
vt 0.670480 0.924081
vt 0.667004 0.908349
vt 0.349019 0.043390
vt 0.351791 0.026294
vt 0.366003 0.047240
vt 0.367013 0.041226
vt 0.361649 0.053812
vt 0.355772 0.030899
vt 0.357573 0.037199
vt 0.360664 0.019585
vt 0.357228 0.020645
vt 0.684478 0.943680
vt 0.697084 0.816395
vt 0.696601 0.818329
vt 0.682420 0.957110
vt 0.693039 0.819275
vt 0.684580 0.809777
vt 0.669370 0.977419
vt 0.665428 0.968398
vt 0.689253 0.802788
vt 0.700731 0.795135
vt 0.701971 0.810817
vt 0.681683 0.796773
vt 0.685212 0.798909
vt 0.690164 0.789936
vt 0.696384 0.806545
vt 0.710235 0.773600
vt 0.686836 0.758497
vt 0.691347 0.803092
vt 0.679847 0.749809
vt 0.684188 0.751647
vt 0.713462 0.770500
vt 0.714792 0.720949
vt 0.711957 0.718973
vt 0.711711 0.765415
vt 0.683836 0.707606
vt 0.711008 0.721425
vt 0.711729 0.784305
vt 0.715787 0.799274
vt 0.713381 0.782558
vt 0.718647 0.780143
vt 0.682473 0.709245
vt 0.687365 0.709712
vt 0.366403 0.045821
vt 0.379335 0.194487
vt 0.388672 0.214923
vt 0.367656 0.038738
vt 0.359148 0.057883
vt 0.350463 0.048075
vt 0.352294 0.030010
vt 0.303291 0.520502
vt 0.404276 0.524523
vt 0.407091 0.453834
vt 0.306106 0.449813
vt 0.406455 0.469791
vt 0.404911 0.508566
vt 0.322297 0.800928
vt 0.323996 0.811654
vt 0.300235 0.811059
vt 0.296159 0.800274
vt 0.377334 0.593788
vt 0.374572 0.637362
vt 0.322297 0.636055
vt 0.325059 0.592480
vt 0.400905 0.710000
vt 0.401815 0.785741
vt 0.370450 0.784957
vt 0.372391 0.709287
vt 0.374572 0.802235
vt 0.371519 0.812842
vt 0.296159 0.635401
vt 0.298922 0.591827
vt 0.307720 0.783388
vt 0.315364 0.707861
vt 0.276355 0.782603
vt 0.286851 0.707148
vt 0.395281 0.813437
vt 0.400709 0.802889
vt 0.400709 0.638016
vt 0.403472 0.594441
vt 0.418489 0.488258
vt 0.388215 0.487500
vt 0.327669 0.485986
vt 0.297395 0.485229
vt 0.367810 0.706468
vt 0.391572 0.707063
vt 0.320288 0.705280
vt 0.296526 0.704686
vt 0.395281 0.648564
vt 0.371519 0.647970
vt 0.323996 0.646781
vt 0.300235 0.646187
vt 0.412022 0.771728
vt 0.403472 0.775922
vt 0.377334 0.775268
vt 0.381749 0.770971
vt 0.321203 0.769457
vt 0.325059 0.773961
vt 0.290929 0.768699
vt 0.298922 0.773307
vt 0.381749 0.589491
vt 0.321203 0.587976
vt 0.290929 0.587219
vt 0.412022 0.590248
vt 0.724612 0.786461
vt 0.726962 0.790395
vt 0.717115 0.775172
vt 0.729047 0.785395
vt 0.726953 0.783757
vt 0.717543 0.806849
vt 0.728670 0.786503
vt 0.728468 0.792598
vt 0.730178 0.787733
vt 0.732086 0.775687
vt 0.728626 0.786122
vt 0.726724 0.781908
vt 0.729036 0.775986
vt 0.731546 0.775544
vt 0.617101 0.725188
vt 0.617605 0.723501
vt 0.626406 0.718984
vt 0.628353 0.724591
vt 0.617458 0.713764
vt 0.616253 0.710295
vt 0.627104 0.723029
vt 0.617211 0.723628
vt 0.616684 0.712798
vt 0.429784 0.475566
vt 0.428625 0.504664
vt 0.147344 0.418432
vt 0.112713 0.438426
vt 0.078082 0.418432
vt 0.078082 0.378443
vt 0.112713 0.358449
vt 0.147344 0.378443
s 0
usemtl Material
f 28/1/1 2/2/1 3/3/1 31/4/1
f 10/5/2 222/6/2 218/7/2 6/8/2
f 6/8/3 8/9/3 14/10/3 10/5/3
f 7/11/4 219/12/4 1/13/4 13/14/4
f 8/9/5 7/11/5 13/14/5 14/10/5
f 27/15/6 17/16/6 4/17/6 29/18/6
f 81/19/7 84/20/7 11/21/7 221/22/7
f 83/23/8 82/24/8 9/25/8 12/26/8
f 18/27/9 27/15/9 29/18/9 20/28/9
f 10/5/10 30/29/10 27/15/10 18/27/10
f 78/30/11 24/31/11 22/32/11 79/33/11
f 22/34/12 21/35/12 230/36/12 224/37/12
f 80/38/13 23/39/13 24/31/13 78/30/13
f 1/13/14 5/40/14 19/41/14 13/14/14
f 26/42/15 53/43/15 51/44/15 21/45/15
f 21/35/16 51/46/16 226/47/16 230/36/16
f 23/48/17 25/49/17 26/50/17 24/51/17
f 24/51/18 26/50/18 21/35/18 22/34/18
f 225/52/19 231/53/19 25/49/19 23/48/19
f 2/2/20 4/17/20 90/54/20 89/55/20
f 36/56/21 33/57/21 94/58/21 88/59/21
f 14/10/22 32/60/22 30/29/22 10/5/22
f 19/41/23 28/1/23 31/4/23 13/14/23
f 13/14/24 31/4/24 32/60/24 14/10/24
f 20/28/25 29/18/25 28/1/25 19/41/25
f 35/61/26 41/62/26 40/63/26 34/64/26
f 37/65/27 43/66/27 44/67/27 38/68/27
f 33/57/28 35/69/28 96/70/28 94/58/28
f 15/71/29 3/3/29 87/72/29 86/73/29
f 3/3/30 2/2/30 89/55/30 87/72/30
f 37/74/31 38/75/31 93/76/31 95/77/31
f 39/78/32 45/79/32 47/80/32 41/62/32
f 44/67/33 50/81/33 48/82/33 42/83/33
f 36/84/34 42/83/34 39/78/34 33/85/34
f 38/68/35 44/67/35 42/83/35 36/84/35
f 33/85/36 39/78/36 41/62/36 35/61/36
f 34/64/37 40/63/37 43/66/37 37/65/37
f 47/80/38 61/86/38 60/87/38 46/88/38
f 49/89/39 63/90/39 64/91/39 50/81/39
f 40/63/40 46/88/40 49/89/40 43/66/40
f 43/66/41 49/89/41 50/81/41 44/67/41
f 41/62/42 47/80/42 46/88/42 40/63/42
f 42/83/43 48/82/43 45/79/43 39/78/43
f 231/92/44 227/93/44 52/94/44 25/95/44
f 25/95/45 52/94/45 53/43/45 26/42/45
f 57/96/46 55/97/46 100/98/46 102/99/46
f 55/97/47 54/100/47 99/101/47 100/98/47
f 56/102/48 57/96/48 102/99/48 101/103/48
f 229/104/49 228/105/49 54/106/49 58/107/49
f 58/107/50 54/106/50 55/108/50 57/109/50
f 52/94/51 58/110/51 57/111/51 53/43/51
f 227/93/52 229/112/52 58/110/52 52/94/52
f 53/43/53 57/111/53 56/113/53 51/44/53
f 51/114/54 56/102/54 101/103/54 97/115/54
f 54/100/55 228/116/55 108/117/55 99/101/55
f 59/118/56 65/119/56 67/120/56 61/86/56
f 64/91/57 70/121/57 68/122/57 62/123/57
f 48/82/58 62/123/58 59/118/58 45/79/58
f 50/81/59 64/91/59 62/123/59 48/82/59
f 45/79/60 59/118/60 61/86/60 47/80/60
f 46/88/61 60/87/61 63/90/61 49/89/61
f 67/120/62 73/124/62 72/125/62 66/126/62
f 69/127/63 75/128/63 76/129/63 70/121/63
f 60/87/64 61/86/64 309/130/64 308/131/64
f 63/90/65 69/127/65 70/121/65 64/91/65
f 63/90/66 60/87/66 308/131/66 310/132/66
f 62/123/67 68/122/67 65/119/67 59/118/67
f 76/129/68 75/128/68 72/125/68 73/124/68
f 74/133/69 76/129/69 73/124/69 71/134/69
f 68/122/70 74/133/70 71/134/70 65/119/70
f 70/121/71 76/129/71 74/133/71 68/122/71
f 65/119/72 71/134/72 73/124/72 67/120/72
f 66/126/73 72/125/73 75/128/73 69/127/73
f 31/4/74 3/3/74 15/71/74 32/60/74
f 29/18/75 4/17/75 2/2/75 28/1/75
f 84/20/76 83/23/76 12/26/76 11/21/76
f 30/29/77 16/135/77 17/16/77 27/15/77
f 32/60/78 15/71/78 16/135/78 30/29/78
f 82/24/79 232/136/79 220/137/79 9/25/79
f 22/32/80 224/138/80 233/139/80 79/33/80
f 19/41/81 80/140/81 78/141/81 20/28/81
f 20/28/82 78/141/82 79/142/82 18/27/82
f 233/143/83 223/144/83 18/27/83 79/142/83
f 222/6/84 10/5/84 18/27/84 223/144/84
f 6/8/85 218/7/85 232/136/85 82/24/85
f 7/11/86 8/9/86 83/23/86 84/20/86
f 8/9/87 6/8/87 82/24/87 83/23/87
f 219/12/88 7/11/88 84/20/88 81/19/88
f 80/140/89 19/41/89 5/40/89 77/145/89
f 77/145/90 225/146/90 23/147/90 80/140/90
f 86/73/91 93/76/91 88/59/91 85/148/91
f 85/148/92 88/59/92 94/58/92 91/149/92
f 91/149/93 94/58/93 96/70/93 90/54/93
f 89/55/94 92/150/94 95/77/94 87/72/94
f 87/72/95 95/77/95 93/76/95 86/73/95
f 90/54/96 96/70/96 92/150/96 89/55/96
f 34/151/97 37/74/97 95/77/97 92/150/97
f 17/16/98 16/135/98 85/148/98 91/149/98
f 38/75/99 36/56/99 88/59/99 93/76/99
f 16/135/100 15/71/100 86/73/100 85/148/100
f 35/69/101 34/151/101 92/150/101 96/70/101
f 4/17/102 17/16/102 91/149/102 90/54/102
f 99/101/103 104/152/103 103/153/103 100/98/103
f 101/103/104 98/154/104 107/155/104 109/156/104
f 98/154/105 102/99/105 100/98/105 105/157/105
f 97/115/106 101/103/106 109/156/106 106/158/106
f 102/99/107 98/154/107 101/103/107
f 103/153/108 104/152/108 111/159/108 110/160/108
f 108/117/109 111/159/109 104/152/109 99/101/109
f 105/157/110 103/153/110 110/160/110 112/161/110
f 98/154/111 105/157/111 112/161/111 107/155/111
f 103/153/112 105/157/112 100/98/112
f 226/162/113 51/114/113 97/115/113 106/158/113
f 142/163/114 145/164/114 114/165/114 113/166/114
f 120/167/115 116/168/115 218/7/115 222/6/115
f 116/168/116 120/167/116 124/169/116 118/170/116
f 117/171/117 123/172/117 1/13/117 219/12/117
f 118/170/118 124/169/118 123/172/118 117/171/118
f 125/173/119 126/174/119 127/175/119 128/176/119
f 141/177/120 143/178/120 115/179/120 131/180/120
f 81/19/121 221/22/121 121/181/121 196/182/121
f 195/183/122 122/184/122 119/185/122 194/186/122
f 132/187/123 134/188/123 143/178/123 141/177/123
f 120/167/124 132/187/124 141/177/124 144/189/124
f 191/190/125 192/191/125 136/32/125 138/31/125
f 136/34/126 224/37/126 230/36/126 135/35/126
f 193/38/127 191/190/127 138/31/127 137/39/127
f 1/13/128 123/172/128 133/192/128 5/40/128
f 140/42/129 135/45/129 165/44/129 167/43/129
f 135/35/130 230/36/130 226/47/130 165/46/130
f 137/48/131 138/51/131 140/50/131 139/49/131
f 138/51/132 136/34/132 135/35/132 140/50/132
f 225/52/133 137/48/133 139/49/133 231/53/133
f 113/166/134 201/193/134 202/194/134 115/179/134
f 150/195/135 200/196/135 206/197/135 147/198/135
f 124/169/136 120/167/136 144/189/136 146/199/136
f 133/192/137 123/172/137 145/164/137 142/163/137
f 123/172/138 124/169/138 146/199/138 145/164/138
f 134/188/139 133/192/139 142/163/139 143/178/139
f 149/200/140 148/201/140 154/202/140 155/203/140
f 151/204/141 152/205/141 158/206/141 157/207/141
f 147/198/142 206/197/142 208/208/142 149/209/142
f 129/210/143 198/211/143 199/212/143 114/165/143
f 114/165/144 199/212/144 201/193/144 113/166/144
f 151/213/145 207/214/145 205/215/145 152/216/145
f 153/217/146 155/203/146 161/218/146 159/219/146
f 158/206/147 156/220/147 162/221/147 164/222/147
f 150/223/148 147/224/148 153/217/148 156/220/148
f 152/205/149 150/223/149 156/220/149 158/206/149
f 147/224/150 149/200/150 155/203/150 153/217/150
f 148/201/151 151/204/151 157/207/151 154/202/151
f 161/218/152 160/225/152 174/226/152 175/227/152
f 163/228/153 164/222/153 178/229/153 177/230/153
f 154/202/154 157/207/154 163/228/154 160/225/154
f 157/207/155 158/206/155 164/222/155 163/228/155
f 155/203/156 154/202/156 160/225/156 161/218/156
f 156/220/157 153/217/157 159/219/157 162/221/157
f 231/92/158 139/95/158 166/94/158 227/93/158
f 139/95/159 140/42/159 167/43/159 166/94/159
f 171/96/160 214/99/160 212/98/160 169/97/160
f 169/97/161 212/98/161 211/101/161 168/100/161
f 170/102/162 213/103/162 214/99/162 171/96/162
f 229/104/163 172/107/163 168/106/163 228/105/163
f 172/107/164 171/109/164 169/108/164 168/106/164
f 166/94/165 167/43/165 171/111/165 172/110/165
f 227/93/166 166/94/166 172/110/166 229/112/166
f 167/43/167 165/44/167 170/113/167 171/111/167
f 165/114/168 209/115/168 213/103/168 170/102/168
f 168/100/169 211/101/169 108/117/169 228/116/169
f 173/231/170 175/227/170 181/232/170 179/233/170
f 178/229/171 176/234/171 182/235/171 184/236/171
f 162/221/172 159/219/172 173/231/172 176/234/172
f 164/222/173 162/221/173 176/234/173 178/229/173
f 159/219/174 161/218/174 175/227/174 173/231/174
f 160/225/175 163/228/175 177/230/175 174/226/175
f 181/232/176 180/237/176 186/238/176 187/239/176
f 183/240/177 184/236/177 190/241/177 189/242/177
f 174/226/178 177/230/178 292/243/178 290/244/178
f 177/230/179 178/229/179 184/236/179 183/240/179
f 180/237/180 181/232/180 294/245/180 293/246/180
f 176/234/181 173/231/181 179/233/181 182/235/181
f 190/241/182 187/239/182 186/238/182 189/242/182
f 188/247/183 185/248/183 187/239/183 190/241/183
f 182/235/184 179/233/184 185/248/184 188/247/184
f 184/236/185 182/235/185 188/247/185 190/241/185
f 179/233/186 181/232/186 187/239/186 185/248/186
f 180/237/187 183/240/187 189/242/187 186/238/187
f 145/164/188 146/199/188 129/210/188 114/165/188
f 143/178/189 142/163/189 113/166/189 115/179/189
f 196/182/190 121/181/190 122/184/190 195/183/190
f 144/189/191 141/177/191 131/180/191 130/249/191
f 146/199/192 144/189/192 130/249/192 129/210/192
f 194/186/193 119/185/193 220/137/193 232/136/193
f 136/32/194 192/191/194 233/139/194 224/138/194
f 133/192/195 134/188/195 191/250/195 193/140/195
f 134/188/196 132/187/196 192/251/196 191/250/196
f 233/143/197 192/251/197 132/187/197 223/144/197
f 222/6/198 223/144/198 132/187/198 120/167/198
f 116/168/199 194/186/199 232/136/199 218/7/199
f 117/171/200 196/182/200 195/183/200 118/170/200
f 118/170/201 195/183/201 194/186/201 116/168/201
f 219/12/202 81/19/202 196/182/202 117/171/202
f 193/140/203 77/145/203 5/40/203 133/192/203
f 77/145/204 193/140/204 137/147/204 225/146/204
f 198/211/205 197/252/205 200/196/205 205/215/205
f 197/252/206 203/253/206 206/197/206 200/196/206
f 203/253/207 202/194/207 208/208/207 206/197/207
f 201/193/208 199/212/208 207/214/208 204/254/208
f 199/212/209 198/211/209 205/215/209 207/214/209
f 202/194/210 201/193/210 204/254/210 208/208/210
f 148/255/211 204/254/211 207/214/211 151/213/211
f 131/180/212 203/253/212 197/252/212 130/249/212
f 152/216/213 205/215/213 200/196/213 150/195/213
f 130/249/214 197/252/214 198/211/214 129/210/214
f 149/209/215 208/208/215 204/254/215 148/255/215
f 115/179/216 202/194/216 203/253/216 131/180/216
f 211/101/217 212/98/217 215/153/217 216/152/217
f 213/103/218 109/156/218 107/155/218 210/154/218
f 210/154/219 217/157/219 212/98/219 214/99/219
f 209/115/220 106/158/220 109/156/220 213/103/220
f 214/99/221 213/103/221 210/154/221
f 215/153/222 110/160/222 111/159/222 216/152/222
f 108/117/223 211/101/223 216/152/223 111/159/223
f 217/157/224 112/161/224 110/160/224 215/153/224
f 210/154/225 107/155/225 112/161/225 217/157/225
f 215/153/226 212/98/226 217/157/226
f 226/162/227 106/158/227 209/115/227 165/114/227
f 234/256/228 235/257/228 237/258/228 236/259/228
f 320/259/229 321/258/229 241/258/229 240/259/229
f 240/259/230 241/258/230 239/257/230 238/256/230
f 322/256/231 323/257/231 235/257/231 234/256/231
f 320/259/232 240/259/232 238/256/232 322/256/232
f 323/257/233 321/258/233 326/260/233 327/261/233
f 256/262/234 264/263/234 263/264/234 257/265/234
f 278/266/230 242/267/230 256/268/230 279/269/230
f 266/270/235 245/271/235 247/272/235 271/273/235
f 242/274/236 265/275/236 264/263/236 256/262/236
f 279/269/237 256/268/237 257/276/237 280/277/237
f 271/273/238 247/272/238 249/278/238 270/279/238
f 258/262/239 261/263/239 260/275/239 259/274/239
f 280/277/240 257/276/240 258/268/240 281/269/240
f 270/279/241 249/278/241 251/280/241 269/281/241
f 259/274/242 260/275/242 262/282/242 243/283/242
f 281/269/228 258/268/228 259/267/228 283/266/228
f 269/281/243 251/280/243 253/278/243 268/279/243
f 255/272/244 253/278/244 336/278/244 337/272/244
f 283/266/245 259/267/245 243/284/245 282/285/245
f 268/279/246 253/278/246 255/272/246 267/273/246
f 257/265/247 263/264/247 261/263/247 258/262/247
f 282/285/248 243/284/248 242/267/248 278/266/248
f 267/273/249 255/272/249 245/271/249 266/270/249
f 244/286/229 246/287/229 248/288/229 250/289/229 252/288/229 254/287/229
f 243/283/250 262/282/250 265/275/250 242/274/250
f 272/290/251 267/273/251 266/270/251 277/291/251
f 273/292/252 268/279/252 267/273/252 272/290/252
f 274/293/253 269/281/253 268/279/253 273/292/253
f 275/292/254 270/279/254 269/281/254 274/293/254
f 276/290/255 271/273/255 270/279/255 275/292/255
f 277/291/256 266/270/256 271/273/256 276/290/256
f 262/294/248 277/291/248 276/290/248 265/295/248
f 265/295/230 276/290/230 275/292/230 264/296/230
f 264/296/237 275/292/237 274/293/237 263/297/237
f 263/297/240 274/293/240 273/292/240 261/296/240
f 261/296/228 273/292/228 272/290/228 260/295/228
f 260/295/245 272/290/245 277/291/245 262/294/245
f 289/298/257 282/299/257 278/300/257 284/301/257
f 288/301/258 283/300/258 282/299/258 289/298/258
f 287/302/259 281/303/259 283/300/259 288/301/259
f 286/304/260 280/305/260 281/303/260 287/302/260
f 285/302/261 279/303/261 280/305/261 286/304/261
f 284/301/262 278/300/262 279/303/262 285/302/262
f 246/287/230 284/306/230 285/307/230 248/288/230
f 248/288/237 285/307/237 286/308/237 250/289/237
f 250/289/240 286/308/240 287/307/240 252/288/240
f 252/288/228 287/307/228 288/306/228 254/287/228
f 254/287/245 288/306/245 289/309/245 244/286/245
f 244/286/248 289/309/248 284/306/248 246/287/248
f 290/244/263 292/243/263 298/310/263 296/311/263
f 295/312/264 293/246/264 299/313/264 301/314/264
f 175/227/265 174/226/265 290/244/265 291/315/265
f 183/240/266 180/237/266 293/246/266 295/312/266
f 177/230/267 183/240/267 295/312/267 292/243/267
f 181/232/268 175/227/268 291/315/268 294/245/268
f 300/316/269 297/317/269 303/318/269 306/319/269
f 297/317/270 296/311/270 302/320/270 303/318/270
f 292/243/271 295/312/271 301/314/271 298/310/271
f 293/246/272 294/245/272 300/316/272 299/313/272
f 291/315/273 290/244/273 296/311/273 297/317/273
f 294/245/274 291/315/274 297/317/274 300/316/274
f 302/320/275 304/321/275 307/322/275 305/323/275
f 303/318/276 302/320/276 305/323/276 306/319/276
f 301/314/277 299/313/277 305/323/277 307/322/277
f 296/311/278 298/310/278 304/321/278 302/320/278
f 298/310/279 301/314/279 307/322/279 304/321/279
f 299/313/280 300/316/280 306/319/280 305/323/280
f 310/132/281 308/131/281 314/324/281 316/325/281
f 311/326/282 313/327/282 319/328/282 317/329/282
f 66/126/283 69/127/283 313/327/283 311/326/283
f 69/127/284 63/90/284 310/132/284 313/327/284
f 61/86/285 67/120/285 312/330/285 309/130/285
f 67/120/286 66/126/286 311/326/286 312/330/286
f 314/324/287 317/329/287 319/328/287 316/325/287
f 315/331/288 318/332/288 317/329/288 314/324/288
f 313/327/289 310/132/289 316/325/289 319/328/289
f 312/330/290 311/326/290 317/329/290 318/332/290
f 308/131/291 309/130/291 315/331/291 314/324/291
f 309/130/292 312/330/292 318/332/292 315/331/292
f 241/258/233 321/258/233 323/257/233 239/257/233
f 236/259/232 320/259/232 322/256/232 234/256/232
f 238/256/231 239/257/231 323/257/231 322/256/231
f 236/259/229 237/258/229 321/258/229 320/259/229
f 327/261/293 326/260/293 330/333/293 331/334/293
f 237/258/233 235/257/233 324/261/233 325/260/233
f 235/257/233 323/257/233 327/261/233 324/261/233
f 321/258/233 237/258/233 325/260/233 326/260/233
f 330/333/233 329/333/233 328/334/233 331/334/233
f 324/261/294 327/261/294 331/334/294 328/334/294
f 326/260/295 325/260/295 329/333/295 330/333/295
f 325/260/296 324/261/296 328/334/296 329/333/296
f 333/335/231 332/336/231 337/337/231 336/338/231 335/339/231 334/340/231
f 249/278/297 247/272/297 333/272/297 334/278/297
f 245/271/298 255/272/298 337/272/298 332/271/298
f 247/272/299 245/271/299 332/271/299 333/272/299
f 251/280/300 249/278/300 334/278/300 335/280/300
f 253/278/301 251/280/301 335/280/301 336/278/301
