# Blender 5.0.0
# www.blender.org
mtllib photoLegs.mtl
o photographer.001
v 0.484976 1.611199 -1.018767
v 0.381924 1.797424 -0.223618
v 0.624857 1.622331 -0.606108
v 0.465103 1.434697 -1.038221
v 0.419586 1.599741 -0.181781
v 0.631103 1.535358 -0.605971
v 0.908932 0.671773 -1.424036
v 0.851988 0.372635 -1.419125
v 0.789792 0.832326 -1.406733
v 0.513822 0.812209 -1.397368
v 0.544838 0.347587 -1.413408
v 0.450597 0.637444 -1.409683
v 0.442969 0.618460 -0.922141
v 0.764747 0.355264 -0.872597
v 0.741372 0.873060 -0.982038
v 0.730015 0.426312 0.139401
v 0.685158 0.526834 -0.055154
v 0.439905 0.126621 0.598504
v 0.690213 0.128309 0.542534
v 0.299988 0.519547 -0.053197
v 0.262084 0.423099 0.133415
v 0.525662 0.851262 -1.010679
v 0.586716 0.336874 -0.898609
v 0.852188 0.655216 -0.894969
v 0.419311 1.094938 -0.855676
v 0.506928 1.289357 0.047437
v 0.042395 1.036634 -0.321865
v 0.665772 1.165327 -0.423568
v 0.140407 1.173206 0.065067
v 0.144017 1.040968 -0.747344
v 0.771768 0.564238 0.171079
v 0.282070 0.534923 0.478262
v 0.289757 0.612284 -0.161119
v 0.653442 0.671753 -0.195042
v 0.614454 0.546003 0.456703
v 0.200587 0.497066 0.183177
v 0.889230 0.566833 -0.666314
v 0.508907 0.283993 -0.687076
v 0.426911 0.849037 -0.685316
v 0.784349 0.882776 -0.663556
v 0.786860 0.313041 -0.669668
v 0.382029 0.503728 -0.669075
v 0.922309 0.006179 -1.332603
v 0.501464 0.006184 -1.298539
v 0.853431 0.320583 -1.072857
v 0.568919 0.354319 -1.099159
v 0.954427 0.006172 -0.967972
v 0.484596 0.006178 -0.921584
v 0.780024 0.231203 -1.094497
v 0.519876 0.279346 -1.079590
v 0.885813 0.695449 -1.175189
v 0.431539 0.354681 -1.208371
v 0.468717 0.844946 -1.150859
v 0.405183 0.659426 -1.156375
v 0.912721 0.395381 -1.218589
v 0.757654 0.865736 -1.163666
v 0.497202 0.278582 -1.116351
v 0.958934 0.162553 -1.246197
v 0.434852 0.166723 -0.975429
v 0.936025 0.139997 -1.028648
v 0.812567 0.026700 -0.805620
v 0.575459 0.033127 -0.790717
v 0.715173 0.255394 -0.897491
v 0.593415 0.305864 -0.900668
v 0.559325 0.161662 -0.801879
v 0.811507 0.133849 -0.819187
v 0.559819 0.305745 -0.670682
v 0.464863 0.513608 -0.677005
v 0.513461 0.680961 -0.676279
v 0.701568 0.696240 -0.668324
v 0.787309 0.542060 -0.662877
v 0.718965 0.328044 -0.665461
v 0.440553 0.006190 0.419122
v 0.270596 0.263104 0.135106
v 0.252404 0.585706 -0.231846
v 0.763382 0.636081 -0.167808
v 0.822609 0.238395 0.145087
v 0.697723 0.006222 0.428578
v -0.484976 2.092127 -1.018767
v -0.381923 2.120775 -0.325145
v -0.624857 2.161433 -0.606108
v -0.465103 1.357564 -0.922959
v -0.376812 2.075870 -0.245333
v -0.631103 1.826744 -0.657981
v -0.720789 0.011631 0.632478
v -0.761079 0.020136 0.933154
v -0.613361 0.009788 0.469178
v -0.336382 0.010138 0.469954
v -0.297110 0.021574 0.937185
v -0.260301 0.008508 0.634590
v -0.280398 0.517456 0.724226
v -0.580228 0.577561 1.014313
v -0.594127 0.534285 0.512250
v -0.627939 2.022486 0.898575
v -0.473156 1.731525 0.696782
v -0.319793 2.181961 1.061351
v -0.572191 2.170440 1.023823
v -0.328057 1.717333 0.729957
v -0.230170 1.934525 0.926989
v -0.376188 0.479047 0.514008
v -0.400205 0.534686 1.015677
v -0.692104 0.597049 0.721708
v -0.426685 1.253783 -0.328731
v -0.475152 2.091413 -0.142193
v -0.111056 1.644495 -0.174670
v -0.632271 1.702331 -0.460118
v -0.167137 2.079207 0.051806
v -0.144567 1.259596 -0.086846
v -0.608454 2.030602 0.767836
v -0.291261 2.205494 0.601179
v -0.257214 1.754241 0.735569
v -0.480488 1.752806 0.583444
v -0.511459 2.187488 0.582675
v -0.216507 2.045334 0.812366
v -0.742307 0.838195 0.740164
v -0.338248 0.828479 1.048356
v -0.296587 0.764503 0.499550
v -0.655758 0.824427 0.497254
v -0.616952 0.863987 1.048066
v -0.233987 0.774548 0.752295
v -0.813159 0.011549 1.250554
v -0.290520 0.023142 1.253377
v -0.630367 0.355798 1.329754
v -0.438740 0.391576 1.244179
v -0.767107 0.022809 1.616761
v -0.295429 0.031144 1.627706
v -0.624929 0.316559 1.466488
v -0.368007 0.340076 1.460088
v -0.715188 0.323645 0.646952
v -0.274093 0.197931 0.948758
v -0.313204 0.277008 0.446874
v -0.234764 0.270953 0.649995
v -0.755896 0.244529 0.942776
v -0.601867 0.303318 0.445818
v -0.271614 0.177963 1.260564
v -0.812795 0.191735 1.258004
v -0.268236 0.206766 1.562569
v -0.769285 0.231628 1.547687
v -0.626391 0.089561 1.765936
v -0.389256 0.095053 1.762913
v -0.542723 0.277239 1.659559
v -0.425035 0.315222 1.645349
v -0.376843 0.208668 1.745499
v -0.627320 0.205547 1.748072
v -0.397382 0.835704 0.950700
v -0.316130 0.782434 0.754078
v -0.377805 0.787502 0.580257
v -0.566572 0.818113 0.578979
v -0.639659 0.838557 0.752352
v -0.556768 0.853054 0.948266
v -0.416734 1.697833 1.091787
v -0.195070 1.584924 0.848764
v -0.289207 1.528583 0.592084
v -0.539492 1.587831 0.579737
v -0.679340 1.816448 0.891187
v -0.566923 1.778125 1.065270
v 0.000000 1.825250 -1.126684
v 0.000000 1.940656 -0.170668
v -0.067674 1.204648 -0.811801
v -0.016762 1.775223 -0.234475
v -0.010153 1.665165 -0.278508
v 0.000000 3.518690 0.146608
v 0.000000 3.287242 0.715707
v 0.000000 3.438362 0.392894
vn 0.1037 0.3356 0.9363
vn 0.9710 0.1458 0.1896
vn -0.8017 -0.5974 -0.0207
vn -0.9410 0.0239 0.3375
vn 0.0237 0.0617 -0.9978
vn 0.0259 0.0037 0.9997
vn 0.0382 -0.0816 0.9959
vn 0.9204 -0.3339 0.2033
vn 0.0771 -0.9864 0.1454
vn -0.9959 0.0449 0.0787
vn 0.9358 0.1604 0.3139
vn -0.9196 0.3229 0.2238
vn 0.8051 0.4390 0.3988
vn 0.9053 0.3858 -0.1776
vn -0.9462 -0.0883 -0.3113
vn -0.0308 0.7188 0.6945
vn 0.7946 0.4742 0.3792
vn -0.9305 0.1592 0.3299
vn -0.1210 -0.2724 -0.9545
vn 0.0007 -0.5013 -0.8653
vn -0.8976 0.2126 0.3862
vn 0.9442 0.3121 -0.1051
vn 0.1856 0.4814 0.8566
vn 0.9581 0.1081 -0.2651
vn 0.0436 -0.5052 -0.8619
vn -0.8847 0.2139 0.4142
vn 0.7794 0.5604 0.2802
vn -0.0196 0.8227 0.5681
vn 0.9638 0.0397 -0.2638
vn -0.0467 0.0297 -0.9985
vn -0.0186 -0.0269 -0.9995
vn 0.0094 -0.0019 -1.0000
vn 0.0554 -0.0114 -0.9984
vn 0.0947 -0.9953 0.0198
vn 0.9582 -0.1697 0.2302
vn -0.9284 -0.3619 0.0837
vn -0.1207 0.9710 0.2066
vn 0.9833 0.0734 0.1663
vn 0.0372 0.9986 -0.0364
vn 0.0430 0.2749 0.9605
vn -0.9029 -0.0991 -0.4182
vn -0.2438 -0.9604 0.1352
vn -0.6715 -0.4511 -0.5879
vn -0.0000 1.0000 -0.0000
vn 0.0205 -0.0027 -0.9998
vn 0.0505 0.0534 -0.9973
vn -0.0117 0.4848 -0.8745
vn -0.9980 0.0611 0.0182
vn -0.7941 -0.2366 -0.5598
vn -0.9086 -0.1379 0.3944
vn 0.6230 -0.6892 -0.3699
vn 0.9140 0.2794 -0.2940
vn -0.9586 0.1060 -0.2644
vn 0.0831 -0.9960 0.0317
vn 0.8943 -0.3642 -0.2600
vn -0.8331 -0.5380 -0.1284
vn 0.2849 0.8902 -0.3554
vn -0.0729 -0.1093 -0.9913
vn -0.1503 -0.5724 -0.8061
vn 0.8133 0.0551 -0.5793
vn 0.7055 -0.6110 -0.3591
vn -0.5516 -0.8042 -0.2213
vn -0.0049 0.9870 -0.1607
vn -0.8737 -0.3725 -0.3130
vn -0.8779 -0.1996 -0.4353
vn -0.8921 -0.3400 -0.2975
vn -0.0611 0.9611 0.2695
vn 0.7379 0.6061 0.2969
vn 0.1068 -0.9845 -0.1394
vn -0.9674 -0.2533 0.0014
vn 0.8916 0.2344 0.3876
vn -0.8637 0.4768 0.1632
vn -0.9190 -0.1731 -0.3541
vn 0.9745 -0.1941 -0.1122
vn -0.5995 -0.6291 -0.4947
vn 0.0903 -0.8574 -0.5068
vn 0.9368 0.2086 -0.2809
vn -0.0610 0.7684 -0.6370
vn 0.1313 0.2833 0.9500
vn -0.9920 0.1246 0.0180
vn 0.8548 -0.0165 0.5188
vn 0.9192 0.0279 0.3928
vn 0.1646 -0.0839 -0.9828
vn 0.0021 0.9994 -0.0355
vn 0.0038 1.0000 -0.0003
vn -0.9175 0.0901 0.3874
vn 0.0006 0.0826 0.9966
vn 0.9910 -0.0258 0.1315
vn -0.9867 0.1162 -0.1134
vn 0.9131 0.1863 -0.3627
vn -0.9027 0.2185 -0.3707
vn -0.9049 -0.3949 -0.1587
vn 0.8972 -0.4285 0.1070
vn -0.1655 0.9052 0.3914
vn -0.9075 0.3621 -0.2128
vn 0.9153 0.3920 0.0928
vn 0.0668 -0.9970 -0.0383
vn -0.4831 -0.8026 0.3499
vn 0.9282 0.3668 0.0620
vn -0.9530 0.2150 -0.2133
vn 0.1906 0.9808 0.0419
vn -0.7311 0.2341 -0.6409
vn 0.8942 0.4216 -0.1505
vn -0.9799 0.1048 -0.1700
vn 0.3343 0.8313 -0.4441
vn -0.9745 -0.2125 -0.0727
vn -0.0178 -0.9960 0.0870
vn -0.1574 -0.9859 0.0574
vn -0.0598 -0.9965 0.0590
vn -0.1627 -0.9807 0.1087
vn 0.0032 0.0510 0.9987
vn -0.9318 0.2090 0.2969
vn 0.9197 0.1914 0.3428
vn 0.0228 0.1127 -0.9934
vn -0.9906 0.1365 -0.0097
vn -0.1440 -0.8108 -0.5673
vn -0.0133 0.9999 0.0101
vn 0.8210 -0.5612 -0.1050
vn 0.1501 -0.9730 -0.1750
vn 0.6034 -0.7945 -0.0680
vn -0.0197 0.9995 -0.0249
vn 0.0732 -0.9619 -0.2633
vn -0.1969 -0.9708 0.1371
vn -0.1199 -0.9926 0.0180
vn 0.9908 -0.0166 -0.1340
vn 0.7769 -0.1559 -0.6101
vn 0.9856 -0.0206 0.1678
vn -0.8040 -0.5879 0.0893
vn -0.9387 -0.2104 -0.2730
vn 0.9488 -0.2723 -0.1604
vn -0.0537 -0.3006 0.9522
vn -0.8601 -0.3307 0.3884
vn 0.8577 -0.1865 0.4791
vn -0.8732 -0.4475 -0.1933
vn -0.0087 -0.1514 -0.9884
vn 0.0506 -0.7308 -0.6807
vn -0.8465 -0.0357 -0.5312
vn -0.6492 -0.6831 -0.3346
vn 0.3448 -0.8743 -0.3417
vn -0.0131 0.9094 -0.4157
vn 0.8923 -0.4399 0.1013
vn 0.8182 -0.0446 -0.5731
vn 0.8089 -0.5853 0.0557
vn 0.1370 0.1438 -0.9801
vn -0.7920 0.1328 -0.5959
vn -0.0322 -0.0059 0.9995
vn 0.9102 -0.0265 0.4133
vn -0.9390 0.1050 0.3274
vn 0.8834 0.0851 -0.4608
vn 0.8823 -0.0943 -0.4611
vn -0.7881 -0.3195 0.5261
vn 0.5158 -0.4360 0.7375
vn -0.1993 -0.5859 0.7855
vn -0.7228 0.0929 -0.6848
vn 0.1405 -0.0955 -0.9855
vt 0.396716 0.346969
vt 0.382034 0.416608
vt 0.379312 0.382359
vt 0.402385 0.358082
vt 0.660951 0.154933
vt 0.631518 0.191243
vt 0.648096 0.086395
vt 0.658681 0.086374
vt 0.707632 0.154930
vt 0.702676 0.074389
vt 0.687984 0.073297
vt 0.692104 0.156063
vt 0.421445 0.403725
vt 0.442689 0.378384
vt 0.470552 0.408517
vt 0.460438 0.427499
vt 0.468148 0.409585
vt 0.476679 0.409983
vt 0.745745 0.003732
vt 0.742746 0.009554
vt 0.696910 0.009485
vt 0.699136 0.006832
vt 0.760436 0.004825
vt 0.758686 0.008556
vt 0.688988 0.163430
vt 0.684986 0.079118
vt 0.700926 0.078120
vt 0.705849 0.159836
vt 0.660907 0.083721
vt 0.664559 0.150311
vt 0.684481 0.330508
vt 0.690679 0.251226
vt 0.663666 0.267531
vt 0.661448 0.336830
vt 0.658677 0.331844
vt 0.661793 0.259346
vt 0.687132 0.243191
vt 0.678739 0.331433
vt 0.448973 0.605549
vt 0.423271 0.735741
vt 0.405633 0.679745
vt 0.417636 0.600985
vt 0.418318 0.593752
vt 0.406341 0.679893
vt 0.418823 0.731774
vt 0.447079 0.603796
vt 0.390399 0.595659
vt 0.397016 0.659113
vt 0.397355 0.658385
vt 0.397451 0.594957
vt 0.457892 0.468490
vt 0.451382 0.479167
vt 0.370950 0.422552
vt 0.411000 0.446378
vt 0.457027 0.415546
vt 0.410488 0.463830
vt 0.376091 0.434365
vt 0.682262 0.332387
vt 0.662842 0.337801
vt 0.679571 0.328484
vt 0.709912 0.315854
vt 0.694747 0.323817
vt 0.696196 0.326037
vt 0.713143 0.322162
vt 0.707533 0.206665
vt 0.709736 0.215632
vt 0.658348 0.469588
vt 0.660566 0.359139
vt 0.658693 0.346095
vt 0.655577 0.461641
vt 0.618695 0.153583
vt 0.613795 0.083882
vt 0.648998 0.299782
vt 0.651847 0.284145
vt 0.686325 0.009506
vt 0.689425 0.007089
vt 0.643333 0.152180
vt 0.652098 0.230288
vt 0.629529 0.175292
vt 0.611602 0.174891
vt 0.611892 0.191883
vt 0.628173 0.191500
vt 0.623537 0.144585
vt 0.652024 0.006994
vt 0.656245 0.004092
vt 0.626429 0.212129
vt 0.625072 0.237961
vt 0.660779 0.336704
vt 0.651196 0.083977
vt 0.618016 0.080981
vt 0.603243 0.097896
vt 0.604477 0.133970
vt 0.654948 0.220477
vt 0.601887 0.100060
vt 0.602902 0.143334
vt 0.639627 0.006082
vt 0.640983 0.003918
vt 0.352058 0.721459
vt 0.333989 0.498099
vt 0.332038 0.499560
vt 0.347213 0.721639
vt 0.345744 0.482178
vt 0.369505 0.684867
vt 0.336022 0.614483
vt 0.282004 0.503291
vt 0.283826 0.502588
vt 0.347035 0.620338
vt 0.395644 0.641769
vt 0.358948 0.467880
vt 0.348843 0.480825
vt 0.367213 0.686538
vt 0.357254 0.468582
vt 0.393290 0.638617
vt 0.443584 0.353549
vt 0.466350 0.372195
vt 0.389809 0.363266
vt 0.369838 0.371036
vt 0.676131 0.139139
vt 0.677185 0.085457
vt 0.648412 0.085721
vt 0.647758 0.133669
vt 0.721897 0.168004
vt 0.703594 0.173571
vt 0.704912 0.093255
vt 0.719771 0.090088
vt 0.468777 0.421205
vt 0.433588 0.405857
vt 0.456208 0.450829
vt 0.419204 0.459190
vt 0.415714 0.450791
vt 0.448982 0.458281
vt 0.743140 0.016367
vt 0.715780 0.019686
vt 0.715414 0.008568
vt 0.742948 0.004091
vt 0.758000 0.013199
vt 0.757929 0.006423
vt 0.703318 0.159139
vt 0.721801 0.160798
vt 0.719700 0.083312
vt 0.704719 0.080980
vt 0.676676 0.151902
vt 0.677551 0.096575
vt 0.695113 0.314506
vt 0.667095 0.321570
vt 0.670166 0.243119
vt 0.696792 0.248456
vt 0.667068 0.311845
vt 0.694009 0.297073
vt 0.696563 0.226656
vt 0.670042 0.231375
vt 0.415314 0.713016
vt 0.391661 0.731541
vt 0.376206 0.740906
vt 0.399449 0.762778
vt 0.414769 0.568031
vt 0.437312 0.552265
vt 0.399270 0.758332
vt 0.386668 0.740331
vt 0.381896 0.572464
vt 0.386131 0.555748
vt 0.360600 0.709812
vt 0.358087 0.713038
vt 0.440769 0.490948
vt 0.447708 0.470035
vt 0.414238 0.423953
vt 0.361278 0.425405
vt 0.404921 0.442787
vt 0.354932 0.452087
vt 0.399657 0.453573
vt 0.694003 0.314605
vt 0.676176 0.318576
vt 0.693846 0.299233
vt 0.709663 0.300621
vt 0.717007 0.294322
vt 0.709780 0.309006
vt 0.717216 0.310735
vt 0.715852 0.231266
vt 0.715692 0.216136
vt 0.663994 0.445268
vt 0.663968 0.429767
vt 0.666942 0.301515
vt 0.667066 0.320231
vt 0.614350 0.088026
vt 0.620277 0.141558
vt 0.646149 0.239041
vt 0.638362 0.223423
vt 0.686898 0.018636
vt 0.686641 0.008833
vt 0.641462 0.182378
vt 0.647991 0.137441
vt 0.629020 0.171631
vt 0.629603 0.178072
vt 0.612745 0.171264
vt 0.611452 0.160861
vt 0.621632 0.148368
vt 0.653575 0.020565
vt 0.652579 0.011137
vt 0.626502 0.216559
vt 0.625920 0.206294
vt 0.675955 0.313824
vt 0.648669 0.095525
vt 0.615346 0.097454
vt 0.603397 0.141224
vt 0.601772 0.112171
vt 0.649249 0.192178
vt 0.603631 0.142079
vt 0.602047 0.107786
vt 0.639512 0.018192
vt 0.639788 0.013808
vt 0.340740 0.694937
vt 0.329471 0.676913
vt 0.261245 0.530057
vt 0.263393 0.534240
vt 0.338079 0.627008
vt 0.272457 0.499331
vt 0.354187 0.590242
vt 0.361872 0.604175
vt 0.291712 0.493032
vt 0.288186 0.485386
vt 0.360201 0.689397
vt 0.278867 0.513402
s 0
usemtl Material
f 157/1/1 159/2/1 4/3/1 1/4/1
f 52/5/2 57/6/2 44/7/2 11/8/2
f 56/9/3 9/10/3 7/11/3 51/12/3
f 1/4/4 4/3/4 6/13/4 3/14/4
f 2/15/5 5/16/5 160/17/5 158/18/5
f 7/19/6 12/20/6 11/21/6 8/22/6
f 9/23/7 10/24/7 12/20/7 7/19/7
f 54/25/8 12/26/8 10/27/8 53/28/8
f 53/28/9 10/27/9 9/10/9 56/9/9
f 51/12/10 7/11/10 8/29/10 55/30/10
f 52/5/11 11/8/11 12/26/11 54/25/11
f 37/31/12 24/32/12 14/33/12 41/34/12
f 38/35/13 23/36/13 13/37/13 42/38/13
f 32/39/14 18/40/14 21/41/14 36/42/14
f 31/43/15 16/44/15 19/45/15 35/46/15
f 33/47/16 20/48/16 17/49/16 34/50/16
f 36/42/17 21/41/17 20/48/17 33/47/17
f 34/50/18 17/49/18 16/44/18 31/43/18
f 35/46/19 19/45/19 18/40/19 32/39/19
f 5/16/20 26/51/20 29/52/20 160/17/20
f 4/3/21 25/53/21 28/54/21 6/13/21
f 161/55/22 27/56/22 30/57/22 159/2/22
f 159/2/23 30/57/23 25/53/23 4/3/23
f 160/17/24 29/52/24 27/56/24 161/55/24
f 26/51/25 35/46/25 32/39/25 29/52/25
f 25/53/26 34/50/26 31/43/26 28/54/26
f 27/56/27 36/42/27 33/47/27 30/57/27
f 30/57/28 33/47/28 34/50/28 25/53/28
f 29/52/29 32/39/29 36/42/29 27/56/29
f 71/58/30 37/31/30 41/34/30 72/59/30
f 68/60/31 42/38/31 39/61/31 69/62/31
f 70/63/32 40/64/32 37/31/32 71/58/32
f 69/62/33 39/61/33 40/64/33 70/63/33
f 39/61/34 22/65/34 15/66/34 40/64/34
f 42/38/35 13/37/35 22/65/35 39/61/35
f 40/64/36 15/66/36 24/32/36 37/31/36
f 41/67/37 14/68/37 23/69/37 38/70/37
f 57/6/38 59/71/38 48/72/38 44/7/38
f 14/68/39 45/73/39 46/74/39 23/69/39
f 11/21/40 44/75/40 43/76/40 8/22/40
f 55/30/41 58/77/41 45/78/41 14/33/41
f 49/79/42 63/80/42 64/81/42 50/82/42
f 58/77/43 60/83/43 49/79/43 45/78/43
f 44/75/44 48/84/44 47/85/44 43/76/44
f 45/73/45 49/86/45 50/87/45 46/74/45
f 67/88/46 38/35/46 42/38/46 68/60/46
f 72/59/47 41/34/47 38/35/47 67/88/47
f 43/89/48 47/90/48 60/83/48 58/77/48
f 47/90/49 61/91/49 66/92/49 60/83/49
f 8/29/50 43/89/50 58/77/50 55/30/50
f 46/93/51 50/82/51 59/71/51 57/6/51
f 23/36/52 52/5/52 54/25/52 13/37/52
f 24/32/53 51/12/53 55/30/53 14/33/53
f 22/65/54 53/28/54 56/9/54 15/66/54
f 13/37/55 54/25/55 53/28/55 22/65/55
f 15/66/56 56/9/56 51/12/56 24/32/56
f 23/36/57 46/93/57 57/6/57 52/5/57
f 66/92/58 61/91/58 62/94/58 65/95/58
f 63/80/59 66/92/59 65/95/59 64/81/59
f 59/71/60 65/95/60 62/94/60 48/72/60
f 50/82/61 64/81/61 65/95/61 59/71/61
f 60/83/62 66/92/62 63/80/62 49/79/62
f 48/84/63 62/96/63 61/97/63 47/85/63
f 35/46/64 26/51/64 28/54/64 31/43/64
f 5/16/65 2/15/65 3/14/65 6/13/65
f 26/51/66 5/16/66 6/13/66 28/54/66
f 78/98/67 72/99/67 67/100/67 73/101/67
f 73/101/68 67/100/68 68/102/68 74/103/68
f 75/104/69 69/105/69 70/106/69 76/107/69
f 76/108/70 70/109/70 71/110/70 77/111/70
f 74/103/71 68/102/71 69/112/71 75/113/71
f 77/111/72 71/110/72 72/99/72 78/98/72
f 16/44/73 77/111/73 78/98/73 19/45/73
f 21/41/74 74/103/74 75/113/74 20/48/74
f 17/49/75 76/108/75 77/111/75 16/44/75
f 20/48/76 75/113/76 76/108/76 17/49/76
f 18/40/77 73/101/77 74/103/77 21/41/77
f 19/45/78 78/98/78 73/101/78 18/40/78
f 157/114/79 79/115/79 82/116/79 159/117/79
f 130/118/80 89/119/80 122/120/80 135/121/80
f 134/122/81 129/123/81 85/124/81 87/125/81
f 79/115/82 81/126/82 84/127/82 82/116/82
f 80/128/83 158/129/83 160/130/83 83/131/83
f 85/132/84 86/133/84 89/134/84 90/135/84
f 87/136/85 85/132/85 90/135/85 88/137/85
f 132/138/86 131/139/86 88/140/86 90/141/86
f 131/139/87 134/122/87 87/125/87 88/140/87
f 129/123/88 133/142/88 86/143/88 85/124/88
f 130/118/89 132/138/89 90/141/89 89/119/89
f 115/144/90 119/145/90 92/146/90 102/147/90
f 116/148/91 120/149/91 91/150/91 101/151/91
f 110/152/92 114/153/92 99/154/92 96/155/92
f 109/156/93 113/157/93 97/158/93 94/159/93
f 111/160/94 112/161/94 95/162/94 98/163/94
f 114/153/95 111/160/95 98/163/95 99/154/95
f 112/161/96 109/156/96 94/159/96 95/162/96
f 113/157/97 110/152/97 96/155/97 97/158/97
f 83/131/98 160/130/98 107/164/98 104/165/98
f 82/116/99 84/127/99 106/166/99 103/167/99
f 161/168/100 159/117/100 108/169/100 105/170/100
f 159/117/101 82/116/101 103/167/101 108/169/101
f 160/130/102 161/168/102 105/170/102 107/164/102
f 103/167/103 106/166/103 109/156/103 112/161/103
f 105/170/104 108/169/104 111/160/104 114/153/104
f 108/169/105 103/167/105 112/161/105 111/160/105
f 107/164/106 105/170/106 114/153/106 110/152/106
f 149/171/107 150/172/107 119/145/107 115/144/107
f 146/173/108 147/174/108 117/175/108 120/149/108
f 148/176/109 149/171/109 115/144/109 118/177/109
f 147/174/110 148/176/110 118/177/110 117/175/110
f 117/175/111 118/177/111 93/178/111 100/179/111
f 120/149/112 117/175/112 100/179/112 91/150/112
f 118/177/113 115/144/113 102/147/113 93/178/113
f 119/180/114 116/181/114 101/182/114 92/183/114
f 135/121/115 122/120/115 126/184/115 137/185/115
f 92/183/116 101/182/116 124/186/116 123/187/116
f 89/134/117 86/133/117 121/188/117 122/189/117
f 133/142/118 92/146/118 123/190/118 136/191/118
f 127/192/119 128/193/119 142/194/119 141/195/119
f 136/191/120 123/190/120 127/192/120 138/196/120
f 122/189/121 121/188/121 125/197/121 126/198/121
f 123/187/122 124/186/122 128/199/122 127/200/122
f 145/201/123 146/173/123 120/149/123 116/148/123
f 150/172/124 145/201/124 116/148/124 119/145/124
f 121/202/125 136/191/125 138/196/125 125/203/125
f 125/203/126 138/196/126 144/204/126 139/205/126
f 86/143/127 133/142/127 136/191/127 121/202/127
f 124/206/128 135/121/128 137/185/128 128/193/128
f 101/151/129 91/150/129 132/138/129 130/118/129
f 102/147/130 92/146/130 133/142/130 129/123/130
f 100/179/131 93/178/131 134/122/131 131/139/131
f 91/150/132 100/179/132 131/139/132 132/138/132
f 93/178/133 102/147/133 129/123/133 134/122/133
f 101/151/134 130/118/134 135/121/134 124/206/134
f 144/204/135 143/207/135 140/208/135 139/205/135
f 141/195/136 142/194/136 143/207/136 144/204/136
f 137/185/137 126/184/137 140/208/137 143/207/137
f 128/193/138 137/185/138 143/207/138 142/194/138
f 138/196/139 127/192/139 141/195/139 144/204/139
f 126/198/140 125/197/140 139/209/140 140/210/140
f 113/157/141 109/156/141 106/166/141 104/165/141
f 83/131/142 84/127/142 81/126/142 80/128/142
f 104/165/143 106/166/143 84/127/143 83/131/143
f 156/211/144 151/212/144 145/213/144 150/214/144
f 151/212/145 152/215/145 146/216/145 145/213/145
f 153/217/146 154/218/146 148/219/146 147/220/146
f 154/218/147 155/221/147 149/222/147 148/219/147
f 152/215/148 153/217/148 147/220/148 146/216/148
f 155/221/149 156/211/149 150/214/149 149/222/149
f 94/159/150 97/158/150 156/211/150 155/221/150
f 99/154/151 98/163/151 153/217/151 152/215/151
f 95/162/152 94/159/152 155/221/152 154/218/152
f 98/163/153 95/162/153 154/218/153 153/217/153
f 96/155/154 99/154/154 152/215/154 151/212/154
f 97/158/155 96/155/155 151/212/155 156/211/155
l 164 163
l 162 164
